<?xml version="1.0" encoding="UTF-8"?>
<!DOCTYPE svg PUBLIC "-//W3C//DTD SVG 1.1//EN" "http://www.w3.org/Graphics/SVG/1.1/DTD/svg11.dtd">
<svg version="1.2" width="188.72mm" height="188.72mm" viewBox="0 0 18872 18872" preserveAspectRatio="xMidYMid" fill-rule="evenodd" stroke-width="28.222" stroke-linejoin="round" xmlns="http://www.w3.org/2000/svg" xmlns:ooo="http://xml.openoffice.org/svg/export" xmlns:xlink="http://www.w3.org/1999/xlink" xmlns:presentation="http://sun.com/xmlns/staroffice/presentation" xmlns:smil="http://www.w3.org/2001/SMIL20/" xmlns:anim="urn:oasis:names:tc:opendocument:xmlns:animation:1.0" xml:space="preserve">
 <defs class="ClipPathGroup">
  <clipPath id="presentation_clip_path" clipPathUnits="userSpaceOnUse">
   <rect x="0" y="0" width="18872" height="18872"/>
  </clipPath>
  <clipPath id="presentation_clip_path_shrink" clipPathUnits="userSpaceOnUse">
   <rect x="18" y="18" width="18835" height="18835"/>
  </clipPath>
 </defs>
 <defs class="TextShapeIndex">
  <g ooo:slide="id1" ooo:id-list="id3 id4 id5 id6 id7 id8 id9 id10 id11 id12 id13 id14 id15 id16 id17 id18 id19 id20 id21 id22 id23 id24 id25 id26 id27 id28 id29 id30 id31"/>
 </defs>
 <defs class="EmbeddedBulletChars">
  <g id="bullet-char-template-57356" transform="scale(0.00048828125,-0.00048828125)">
   <path d="M 580,1141 L 1163,571 580,0 -4,571 580,1141 Z"/>
  </g>
  <g id="bullet-char-template-57354" transform="scale(0.00048828125,-0.00048828125)">
   <path d="M 8,1128 L 1137,1128 1137,0 8,0 8,1128 Z"/>
  </g>
  <g id="bullet-char-template-10146" transform="scale(0.00048828125,-0.00048828125)">
   <path d="M 174,0 L 602,739 174,1481 1456,739 174,0 Z M 1358,739 L 309,1346 659,739 1358,739 Z"/>
  </g>
  <g id="bullet-char-template-10132" transform="scale(0.00048828125,-0.00048828125)">
   <path d="M 2015,739 L 1276,0 717,0 1260,543 174,543 174,936 1260,936 717,1481 1274,1481 2015,739 Z"/>
  </g>
  <g id="bullet-char-template-10007" transform="scale(0.00048828125,-0.00048828125)">
   <path d="M 0,-2 C -7,14 -16,27 -25,37 L 356,567 C 262,823 215,952 215,954 215,979 228,992 255,992 264,992 276,990 289,987 310,991 331,999 354,1012 L 381,999 492,748 772,1049 836,1024 860,1049 C 881,1039 901,1025 922,1006 886,937 835,863 770,784 769,783 710,716 594,584 L 774,223 C 774,196 753,168 711,139 L 727,119 C 717,90 699,76 672,76 641,76 570,178 457,381 L 164,-76 C 142,-110 111,-127 72,-127 30,-127 9,-110 8,-76 1,-67 -2,-52 -2,-32 -2,-23 -1,-13 0,-2 Z"/>
  </g>
  <g id="bullet-char-template-10004" transform="scale(0.00048828125,-0.00048828125)">
   <path d="M 285,-33 C 182,-33 111,30 74,156 52,228 41,333 41,471 41,549 55,616 82,672 116,743 169,778 240,778 293,778 328,747 346,684 L 369,508 C 377,444 397,411 428,410 L 1163,1116 C 1174,1127 1196,1133 1229,1133 1271,1133 1292,1118 1292,1087 L 1292,965 C 1292,929 1282,901 1262,881 L 442,47 C 390,-6 338,-33 285,-33 Z"/>
  </g>
  <g id="bullet-char-template-9679" transform="scale(0.00048828125,-0.00048828125)">
   <path d="M 813,0 C 632,0 489,54 383,161 276,268 223,411 223,592 223,773 276,916 383,1023 489,1130 632,1184 813,1184 992,1184 1136,1130 1245,1023 1353,916 1407,772 1407,592 1407,412 1353,268 1245,161 1136,54 992,0 813,0 Z"/>
  </g>
  <g id="bullet-char-template-8226" transform="scale(0.00048828125,-0.00048828125)">
   <path d="M 346,457 C 273,457 209,483 155,535 101,586 74,649 74,723 74,796 101,859 155,911 209,963 273,989 346,989 419,989 480,963 531,910 582,859 608,796 608,723 608,648 583,586 532,535 482,483 420,457 346,457 Z"/>
  </g>
  <g id="bullet-char-template-8211" transform="scale(0.00048828125,-0.00048828125)">
   <path d="M -4,459 L 1135,459 1135,606 -4,606 -4,459 Z"/>
  </g>
  <g id="bullet-char-template-61548" transform="scale(0.00048828125,-0.00048828125)">
   <path d="M 173,740 C 173,903 231,1043 346,1159 462,1274 601,1332 765,1332 928,1332 1067,1274 1183,1159 1299,1043 1357,903 1357,740 1357,577 1299,437 1183,322 1067,206 928,148 765,148 601,148 462,206 346,322 231,437 173,577 173,740 Z"/>
  </g>
 </defs>
 <g>
  <g id="id2" class="Master_Slide">
   <g id="bg-id2" class="Background"/>
   <g id="bo-id2" class="BackgroundObjects"/>
  </g>
 </g>
 <g class="SlideGroup">
  <g>
   <g id="container-id1">
    <g id="id1" class="Slide" clip-path="url(#presentation_clip_path)">
     <g class="Page">
      <g class="com.sun.star.drawing.PolyPolygonShape">
       <g id="id3">
        <rect class="BoundingBox" stroke="none" fill="none" x="9101" y="9894" width="980" height="1881"/>
        <path fill="rgb(222,220,230)" stroke="none" d="M 10080,11430 L 9750,11774 9458,11549 9101,9895 9419,10027 9763,10199 10080,11430 Z"/>
       </g>
      </g>
      <g class="com.sun.star.drawing.PolyPolygonShape">
       <g id="id4">
        <rect class="BoundingBox" stroke="none" fill="none" x="5853" y="3456" width="8900" height="9731"/>
        <path fill="rgb(255,245,206)" stroke="none" d="M 9660,10405 L 9649,10243 9460,10173 9201,9984 8677,9520 8267,9174 7516,8580 7251,8149 7024,7436 6846,6928 6803,6831 6630,6744 6350,6480 6204,6161 5955,5708 5999,5659 5853,5178 5896,4741 6096,4066 6495,3580 6614,3456 6889,3493 7564,3537 8909,3585 9735,3747 10199,4028 10561,4352 11263,5048 12019,5999 12381,6749 12786,7651 13671,9385 14709,10438 14752,11183 14725,11977 13753,12679 12160,13073 10810,13186 9984,13105 9822,12862 9784,12603 9585,12166 10006,11194 10000,11194 9660,10405 Z"/>
       </g>
      </g>
      <g class="com.sun.star.drawing.PolyPolygonShape">
       <g id="id5">
        <rect class="BoundingBox" stroke="none" fill="none" x="5019" y="11983" width="10799" height="6787"/>
        <path fill="rgb(247,209,213)" stroke="none" d="M 9858,12444 L 9688,12128 9397,12145 8356,13204 7861,13716 7511,14074 6854,14714 5437,16916 5019,17727 6709,18316 9432,18768 11429,18555 13691,17727 14962,16968 15816,16251 15414,15969 15081,14877 14817,13434 14740,12436 14672,11983 12871,12708 11249,12998 10174,12870 9883,12614 9858,12444 Z"/>
       </g>
      </g>
      <g class="com.sun.star.drawing.ClosedBezierShape">
       <g id="id6">
        <rect class="BoundingBox" stroke="none" fill="none" x="13961" y="6446" width="3873" height="4227"/>
        <path fill="rgb(222,220,230)" stroke="none" d="M 17626,10576 C 17694,10610 17763,10642 17833,10672 16923,10036 15056,7682 13961,6446 L 14730,8366 C 15361,8967 16021,9534 16731,10041 17018,10238 17313,10424 17626,10576 Z"/>
       </g>
      </g>
      <g class="com.sun.star.drawing.ClosedBezierShape">
       <g id="id7">
        <rect class="BoundingBox" stroke="none" fill="none" x="6735" y="6852" width="45" height="32"/>
        <path fill="rgb(199,183,149)" stroke="none" d="M 6735,6854 C 6750,6863 6765,6873 6779,6883 6768,6873 6757,6862 6746,6852 6742,6853 6738,6853 6735,6854 Z"/>
       </g>
      </g>
      <g class="com.sun.star.drawing.ClosedBezierShape">
       <g id="id8">
        <rect class="BoundingBox" stroke="none" fill="none" x="9877" y="3296" width="4764" height="4986"/>
        <path fill="rgb(222,220,230)" stroke="none" d="M 13355,5810 C 13334,5792 13314,5775 13296,5760 12522,5138 10018,3333 9877,3296 10365,3851 12178,5703 12178,5703 12979,6577 13783,7459 14640,8281 L 13355,5810 Z"/>
       </g>
      </g>
      <g class="com.sun.star.drawing.ClosedBezierShape">
       <g id="id9">
        <rect class="BoundingBox" stroke="none" fill="none" x="8337" y="9261" width="1304" height="2679"/>
        <path fill="rgb(222,220,230)" stroke="none" d="M 8605,9497 C 8562,9460 8464,9374 8337,9261 8363,9319 9266,11312 9377,11939 L 9640,11641 C 9537,11003 9226,10124 9161,9977 9044,9872 8880,9732 8750,9620 8695,9573 8645,9531 8605,9497 Z"/>
       </g>
      </g>
      <g class="com.sun.star.drawing.ClosedBezierShape">
       <g id="id10">
        <rect class="BoundingBox" stroke="none" fill="none" x="12178" y="5702" width="6210" height="5391"/>
        <path fill="rgb(222,220,230)" stroke="none" d="M 16455,10688 C 16455,10688 17529,11018 18327,11092 18351,11013 18371,10944 18387,10887 18112,10856 17841,10774 17583,10673 15540,9804 13462,7494 12178,5703 12178,5703 13365,9620 16455,10688 Z"/>
       </g>
      </g>
      <g class="com.sun.star.drawing.ClosedBezierShape">
       <g id="id11">
        <rect class="BoundingBox" stroke="none" fill="none" x="4984" y="290" width="11944" height="13698"/>
        <path fill="rgb(42,96,153)" stroke="none" d="M 5600,5580 C 5489,5469 5445,5505 5445,5505 5402,5444 5083,3775 5083,3744 5083,3714 5537,3535 5537,3535 5537,3535 5454,4300 5638,5175 5799,5612 5978,6047 6175,6470 6394,6930 6628,7386 6943,7789 6771,7600 6620,7392 6478,7178 6145,6668 5860,6131 5600,5580 Z M 6274,1421 C 6213,1838 6026,2227 5783,2567 5799,2203 6036,1697 6274,1421 Z M 7526,1028 L 12495,3395 7240,1143 7526,1028 Z M 10834,1814 C 11528,2163 12230,2528 12805,3060 12907,3157 13018,3289 13112,3393 14036,4527 14803,5770 15570,7011 15682,7197 16013,7742 16122,7927 16183,8029 16244,8131 16308,8231 16069,7904 15736,7395 15504,7053 14707,5876 13939,4671 13046,3566 12985,3487 12881,3374 12815,3299 12580,3038 12296,2833 12004,2636 11612,2375 11197,2146 10778,1925 9938,1481 9062,1110 8205,701 9089,1050 9982,1390 10834,1814 Z M 13689,3007 C 14014,3384 14250,3826 14472,4267 14796,4911 15183,5860 15470,6530 15638,6904 15789,7292 16030,7626 15760,7312 15586,6929 15399,6563 15038,5823 14713,5066 14337,4335 14116,3908 13883,3480 13570,3113 13455,2980 13315,2874 13177,2767 12060,1944 10868,1229 9700,480 10926,1137 12142,1826 13271,2643 13417,2754 13567,2868 13689,3007 Z M 8513,12916 L 8778,12616 C 8293,10732 7050,7558 6628,6858 6616,6858 6605,6857 6593,6856 6604,6856 6615,6855 6625,6854 6584,6787 6551,6743 6527,6726 6552,6741 6631,6787 6714,6840 6719,6838 6724,6838 6729,6836 6638,6755 6543,6674 6463,6607 L 6453,6598 C 6237,6416 5961,5741 5949,5712 L 5975,5702 C 5417,4717 5680,2892 5783,2665 6642,2604 7710,2338 7710,2338 L 7928,2391 C 7572,2033 7229,1666 6928,1257 7204,1422 7437,1648 7657,1879 7812,2050 7964,2229 8084,2428 L 9597,2796 C 9728,2829 12212,3709 13162,4757 14111,5804 15964,8084 16521,8706 L 16927,9269 C 16604,8563 16279,7773 16279,7773 16279,7773 14982,4024 14099,2796 13215,1568 11458,308 11043,291 10628,275 8050,660 7812,725 7575,791 6407,1326 6028,1552 5836,1666 4984,3750 4984,3750 5132,4769 4984,5284 6077,7114 7163,8932 8402,10245 7567,13986 L 7993,13504 C 7994,13453 8061,11231 7954,10490 8140,10939 8409,11933 8513,12916 Z"/>
       </g>
      </g>
      <g class="com.sun.star.drawing.ClosedBezierShape">
       <g id="id12">
        <rect class="BoundingBox" stroke="none" fill="none" x="17741" y="10396" width="698" height="463"/>
        <path fill="rgb(222,220,230)" stroke="none" d="M 18438,10687 L 17742,10396 17985,10733 C 18118,10784 18255,10826 18394,10858 18425,10748 18438,10687 18438,10687 Z"/>
       </g>
      </g>
      <g class="com.sun.star.drawing.ClosedBezierShape">
       <g id="id13">
        <rect class="BoundingBox" stroke="none" fill="none" x="16672" y="11317" width="1568" height="3166"/>
        <path fill="rgb(222,220,230)" stroke="none" d="M 18239,11365 C 18026,11357 17770,11338 17519,11317 17181,12354 16874,13408 16672,14482 17515,13282 17998,12085 18239,11365 Z"/>
       </g>
      </g>
      <g class="com.sun.star.drawing.ClosedBezierShape">
       <g id="id14">
        <rect class="BoundingBox" stroke="none" fill="none" x="7030" y="7155" width="18" height="46"/>
        <path fill="rgb(199,183,149)" stroke="none" d="M 7030,7155 C 7036,7169 7042,7184 7047,7200 7044,7185 7040,7172 7035,7164 7034,7161 7032,7158 7030,7155 Z"/>
       </g>
      </g>
      <g class="com.sun.star.drawing.ClosedBezierShape">
       <g id="id15">
        <rect class="BoundingBox" stroke="none" fill="none" x="7065" y="7089" width="68" height="79"/>
        <path fill="rgb(199,183,149)" stroke="none" d="M 7093,7167 C 7105,7147 7118,7129 7132,7111 L 7111,7089 C 7095,7095 7080,7101 7065,7108 7072,7119 7078,7130 7083,7140 7087,7147 7090,7157 7093,7167 Z"/>
       </g>
      </g>
      <g class="com.sun.star.drawing.ClosedBezierShape">
       <g id="id16">
        <rect class="BoundingBox" stroke="none" fill="none" x="6811" y="6827" width="82" height="51"/>
        <path fill="rgb(199,183,149)" stroke="none" d="M 6892,6862 L 6858,6827 C 6843,6832 6827,6836 6811,6839 6825,6852 6839,6865 6852,6877 6854,6877 6855,6876 6857,6876 6869,6872 6880,6867 6892,6862 Z"/>
       </g>
      </g>
      <g class="com.sun.star.drawing.ClosedBezierShape">
       <g id="id17">
        <rect class="BoundingBox" stroke="none" fill="none" x="6877" y="6892" width="206" height="196"/>
        <path fill="rgb(199,183,149)" stroke="none" d="M 7082,7059 L 6922,6893 C 6907,6896 6892,6898 6877,6900 6949,6969 7010,7033 7050,7087 7060,7077 7071,7068 7082,7059 Z"/>
       </g>
      </g>
      <g class="com.sun.star.drawing.ClosedBezierShape">
       <g id="id18">
        <rect class="BoundingBox" stroke="none" fill="none" x="14811" y="10876" width="767" height="5032"/>
        <path fill="rgb(222,220,230)" stroke="none" d="M 15465,15907 C 15502,15871 15540,15834 15577,15796 15374,14508 15307,11741 15294,11079 15127,11026 14971,10957 14826,10876 14788,11681 14783,13687 15465,15907 Z"/>
       </g>
      </g>
      <g class="com.sun.star.drawing.ClosedBezierShape">
       <g id="id19">
        <rect class="BoundingBox" stroke="none" fill="none" x="14500" y="13315" width="792" height="3407"/>
        <path fill="rgb(222,220,230)" stroke="none" d="M 15290,16072 C 14980,15087 14803,14140 14706,13315 L 14500,16721 C 14782,16516 15045,16299 15290,16072 Z"/>
       </g>
      </g>
      <g class="com.sun.star.drawing.ClosedBezierShape">
       <g id="id20">
        <rect class="BoundingBox" stroke="none" fill="none" x="15509" y="11139" width="463" height="4465"/>
        <path fill="rgb(222,220,230)" stroke="none" d="M 15509,11139 C 15524,11861 15590,14335 15762,15603 15803,15560 15843,15516 15883,15472 15787,14260 15916,12037 15971,11209 15808,11197 15654,11173 15509,11139 Z"/>
       </g>
      </g>
      <g class="com.sun.star.drawing.ClosedBezierShape">
       <g id="id21">
        <rect class="BoundingBox" stroke="none" fill="none" x="16061" y="11211" width="1146" height="4036"/>
        <path fill="rgb(222,220,230)" stroke="none" d="M 16456,11211 C 16363,11216 16273,11218 16185,11217 16106,12390 16024,14167 16082,15246 16262,15034 16430,14819 16586,14603 16596,14515 16606,14428 16617,14340 16751,13311 16957,12296 17206,11289 16793,11249 16456,11211 16456,11211 Z"/>
       </g>
      </g>
      <g class="com.sun.star.drawing.ClosedBezierShape">
       <g id="id22">
        <rect class="BoundingBox" stroke="none" fill="none" x="6978" y="6634" width="503" height="209"/>
        <path fill="rgb(199,183,149)" stroke="none" d="M 7135,6701 C 7175,6678 7227,6692 7271,6690 L 7339,6691 C 7385,6691 7429,6688 7478,6692 L 7480,6687 C 7380,6599 7237,6637 7127,6685 7077,6697 7033,6727 7006,6770 7003,6774 7000,6778 6998,6783 6988,6800 6982,6819 6979,6839 L 6984,6842 C 7045,6798 7080,6745 7135,6701 Z"/>
       </g>
      </g>
      <g class="com.sun.star.drawing.ClosedBezierShape">
       <g id="id23">
        <rect class="BoundingBox" stroke="none" fill="none" x="7250" y="6919" width="287" height="127"/>
        <path fill="rgb(199,183,149)" stroke="none" d="M 7536,6919 C 7488,6942 7441,6956 7393,6976 7350,6992 7296,7018 7250,7025 7334,7081 7501,7010 7536,6919 Z"/>
       </g>
      </g>
      <g class="com.sun.star.drawing.ClosedBezierShape">
       <g id="id24">
        <rect class="BoundingBox" stroke="none" fill="none" x="6386" y="2818" width="597" height="928"/>
        <path fill="rgb(68,50,5)" stroke="none" d="M 6403,2945 C 6341,3162 6469,3380 6645,3538 6750,3632 6872,3705 6982,3745 6914,3701 6835,3644 6759,3578 6526,3375 6315,3084 6484,2818 6448,2852 6420,2896 6403,2945 Z"/>
       </g>
      </g>
      <g class="com.sun.star.drawing.ClosedBezierShape">
       <g id="id25">
        <rect class="BoundingBox" stroke="none" fill="none" x="6654" y="2627" width="3233" height="1045"/>
        <path fill="rgb(68,50,5)" stroke="none" d="M 6654,2841 C 6928,2722 7229,2685 7525,2673 8258,2650 9034,2835 9587,3340 9697,3439 9796,3551 9886,3670 9806,3544 9711,3427 9605,3321 9454,3171 9281,3049 9097,2950 8986,2891 8870,2840 8751,2797 8360,2658 7933,2609 7523,2632 7226,2654 6920,2701 6654,2841 Z"/>
       </g>
      </g>
      <g class="com.sun.star.drawing.ClosedBezierShape">
       <g id="id26">
        <rect class="BoundingBox" stroke="none" fill="none" x="6982" y="3373" width="3584" height="974"/>
        <path fill="rgb(68,50,5)" stroke="none" d="M 6982,3444 C 8210,3413 9723,3254 10565,4346 10474,4213 10366,4091 10245,3982 9351,3211 8075,3358 6982,3444 Z"/>
       </g>
      </g>
      <g class="com.sun.star.drawing.ClosedBezierShape">
       <g id="id27">
        <rect class="BoundingBox" stroke="none" fill="none" x="6799" y="3012" width="2797" height="457"/>
        <path fill="rgb(68,50,5)" stroke="none" d="M 9595,3468 C 9551,3436 9497,3386 9450,3359 8719,2890 7606,2965 6799,3186 7620,3035 8690,2957 9443,3371 9490,3396 9548,3439 9595,3468 Z"/>
       </g>
      </g>
      <g class="com.sun.star.drawing.ClosedBezierShape">
       <g id="id28">
        <rect class="BoundingBox" stroke="none" fill="none" x="5646" y="2916" width="629" height="1638"/>
        <path fill="rgb(68,50,5)" stroke="none" d="M 6273,2916 C 6124,2965 6016,3096 5928,3220 5676,3601 5543,4123 5745,4553 5605,4112 5735,3631 5963,3243 6044,3116 6134,2984 6273,2916 Z"/>
       </g>
      </g>
      <g class="com.sun.star.drawing.ClosedBezierShape">
       <g id="id29">
        <rect class="BoundingBox" stroke="none" fill="none" x="5821" y="3505" width="613" height="1491"/>
        <path fill="rgb(68,50,5)" stroke="none" d="M 6433,3505 C 6015,3863 5717,4438 5856,4995 5799,4425 6069,3923 6433,3505 Z"/>
       </g>
      </g>
      <g class="com.sun.star.drawing.ClosedBezierShape">
       <g id="id30">
        <rect class="BoundingBox" stroke="none" fill="none" x="5748" y="3253" width="527" height="1125"/>
        <path fill="rgb(68,50,5)" stroke="none" d="M 5806,4377 C 5697,3941 5986,3551 6273,3253 5930,3493 5616,3952 5806,4377 Z"/>
       </g>
      </g>
      <g class="com.sun.star.drawing.ClosedBezierShape">
       <g id="id31">
        <rect class="BoundingBox" stroke="none" fill="none" x="0" y="0" width="18871" height="18871"/>
        <path fill="rgb(0,0,0)" stroke="none" d="M 6175,6471 C 5978,6048 5799,5613 5638,5176 5454,4301 5537,3536 5537,3536 5537,3536 5083,3714 5083,3745 5083,3775 5402,5445 5445,5506 5445,5506 5489,5470 5600,5581 5860,6132 6145,6669 6478,7179 6620,7393 6771,7601 6943,7790 6628,7387 6394,6931 6175,6471 Z M 7526,1029 L 7240,1144 12494,3396 7526,1029 Z M 6065,4688 C 6014,5260 6193,5861 6429,6208 6407,6243 6379,6290 6381,6302 6384,6320 6418,6402 6418,6402 6418,6402 6622,6243 6892,6193 6899,6195 6906,6196 6912,6198 6908,6196 6905,6194 6901,6191 7038,6167 7192,6171 7345,6238 7217,6052 6919,6057 6736,6076 6168,5607 6065,4688 6065,4688 Z M 8866,5328 C 8441,5300 8029,5830 8029,5830 8029,5830 8140,5945 8285,5965 8430,5985 8582,5811 8582,5811 8582,5811 8535,5433 8866,5328 Z M 9686,5694 C 9760,5672 9987,5592 9833,5267 L 9686,5694 Z M 10840,9643 C 10888,9629 10938,9609 10990,9584 11489,9338 12160,8585 12256,8085 12337,7666 12235,7032 12181,6750 11801,6042 11390,5435 10676,4532 9614,3188 7582,3844 6759,3578 6526,3375 6315,3084 6484,2818 6448,2852 6420,2896 6403,2945 6341,3162 6469,3380 6645,3538 6563,3613 5448,4662 6126,5924 6104,5898 6083,5870 6063,5842 6159,6056 6342,6435 6487,6558 L 6498,6567 C 6588,6644 6692,6732 6788,6819 6804,6813 6819,6808 6833,6801 L 6504,6459 C 6712,6228 7315,6137 7497,6391 7497,6391 7747,8044 7800,8146 7853,8249 8234,8206 8418,8211 L 8662,8556 8484,8748 8697,9079 C 8570,8703 8601,8747 8610,8776 8610,8776 8725,8650 8815,8609 8905,8568 9161,8564 9335,8515 9516,8463 9648,8422 9711,8418 L 9712,8418 C 9721,8417 9729,8417 9735,8418 9753,8421 9759,8429 9759,8436 9863,8477 9972,8506 10079,8539 9959,8520 9836,8503 9718,8474 9624,8506 9296,8620 9212,8687 9114,8764 8823,9040 8773,9106 8862,9269 8954,9293 9158,9235 9158,9235 9226,9193 9320,9146 9319,9140 9318,9136 9318,9136 9337,9131 9357,9125 9378,9118 9435,9091 9497,9064 9557,9044 9711,8971 9864,8866 9916,8742 9883,8853 9805,8939 9714,9012 9721,9012 9728,9012 9735,9012 L 9758,9040 C 9896,9021 10036,9027 10149,9110 9977,9023 9780,9095 9611,9168 9333,9357 9293,9670 9319,9717 9349,9772 9625,10007 9877,10048 10129,10090 10478,9932 10521,9846 10417,10141 9852,10263 9492,10042 9132,9821 7778,8582 7497,8216 7217,7849 7203,7185 7203,7185 L 7156,7136 C 7136,7152 7116,7170 7100,7189 7111,7238 7119,7307 7129,7393 7140,7492 7153,7610 7176,7731 7221,7898 7288,8093 7373,8232 7393,8266 7423,8307 7459,8352 7844,8765 8508,9342 8640,9455 8680,9489 8730,9532 8784,9579 8911,9687 9068,9821 9184,9925 L 9189,9919 C 9192,9921 9196,9929 9202,9941 9254,9988 9296,10028 9322,10055 9423,10162 9859,10279 10077,10268 L 10079,10261 C 10365,10249 10623,10024 10646,9999 L 11466,9545 11466,9546 C 11693,9359 11958,9121 12178,8872 12048,9152 11742,9606 11542,9893 11651,10475 11579,10667 11711,10822 11975,11133 11880,12009 11953,12344 11953,12344 11393,11571 11233,11735 11073,11898 10362,12701 10362,12701 L 9889,12226 C 11038,11700 10412,10496 10139,10314 10113,10320 10081,10322 10045,10322 9802,10322 9391,10206 9283,10091 9274,10082 9264,10072 9251,10060 9364,10353 9592,11045 9685,11588 L 9889,11358 9653,10384 C 9653,10384 9932,10425 10069,10482 10207,10540 10447,10941 10402,11370 10356,11799 9964,11997 9964,11997 9900,11971 8161,13546 7426,14216 6149,15841 5177,17582 5177,17582 5249,17606 5320,17628 5391,17650 5489,17503 5589,17359 5694,17217 6805,15763 8063,14429 9327,13110 8150,14495 6979,15897 5963,17405 5888,17521 5815,17638 5745,17756 5786,17768 5828,17780 5869,17791 L 8860,14059 6127,17862 C 6298,17907 6468,17948 6635,17987 7438,16826 8606,15170 9384,14059 8685,15175 7639,16844 6895,18043 7112,18089 7325,18128 7535,18161 7671,17875 7826,17597 7976,17319 8597,16197 9247,15071 9916,13977 9509,14718 9108,15507 8725,16259 8405,16901 8075,17541 7791,18200 7913,18217 8033,18232 8151,18245 L 10079,14456 8430,18273 C 8644,18292 8855,18304 9061,18311 L 10775,13830 9335,18316 C 9530,18317 9723,18313 9911,18303 10439,16952 11126,14964 11610,13634 11263,14782 10649,16837 10296,17960 10264,18056 10229,18171 10192,18285 10464,18263 10728,18231 10983,18188 L 12837,13241 11256,18138 C 11719,18045 12154,17920 12563,17766 L 13590,13323 12834,17659 C 13134,17534 13418,17394 13689,17242 L 13885,13720 13940,17095 C 14055,17025 14167,16953 14276,16879 L 14540,12515 C 11129,14171 9448,13703 9384,12782 L 9874,12422 C 9890,13234 12545,13031 14584,11768 13666,10887 12618,9112 12665,7994 12843,9386 14221,10696 14605,11037 14608,10925 14613,10828 14618,10747 13737,10144 13274,9060 12837,8101 12774,7962 12713,7830 12654,7704 12531,8142 12138,9093 10990,9584 10941,9604 10891,9624 10840,9643 Z M 8837,9094 C 8830,9106 8828,9121 8830,9136 8836,9173 8875,9193 8905,9201 9020,9226 9144,9205 9240,9135 L 9205,9094 C 9181,9115 9151,9131 9119,9142 9055,9164 8981,9175 8916,9161 8890,9154 8859,9143 8870,9112 8903,9071 8980,8982 9036,8932 9220,8758 9438,8615 9686,8555 9352,8626 9059,8838 8837,9094 Z M 18438,10687 L 17742,10396 17985,10733 C 18118,10784 18255,10826 18394,10858 18425,10748 18438,10687 18438,10687 Z M 17583,10672 C 15540,9803 13462,7494 12178,5703 12178,5703 13365,9619 16455,10687 16455,10687 17529,11017 18327,11091 18351,11012 18371,10943 18387,10886 18112,10855 17841,10773 17583,10672 Z M 14640,8281 L 13355,5810 C 13334,5792 13314,5775 13296,5760 12522,5138 10018,3333 9877,3296 10365,3851 12178,5703 12178,5703 12979,6577 13783,7459 14640,8281 Z M 18239,11365 C 18026,11357 17770,11338 17519,11317 17181,12354 16874,13408 16672,14482 17515,13282 17998,12085 18239,11365 Z M 16616,14340 C 16750,13311 16956,12296 17206,11289 16792,11249 16455,11211 16455,11211 16362,11216 16272,11218 16184,11217 16105,12390 16023,14167 16081,15246 16261,15034 16429,14819 16585,14603 16595,14515 16605,14428 16616,14340 Z M 15971,11209 C 15808,11197 15654,11173 15509,11139 15524,11861 15590,14335 15762,15603 15803,15560 15843,15516 15883,15472 15787,14260 15916,12037 15971,11209 Z M 15576,15796 C 15373,14508 15306,11741 15293,11079 15126,11026 14970,10957 14825,10876 14787,11681 14782,13687 15464,15907 15501,15871 15539,15834 15576,15796 Z M 14706,13315 L 14500,16721 C 14782,16516 15045,16299 15290,16072 14980,15087 14803,14140 14706,13315 Z M 8605,9496 C 8562,9459 8464,9374 8337,9261 8363,9319 9266,11311 9377,11938 L 9639,11640 C 9536,11002 9226,10123 9161,9976 9044,9871 8880,9731 8750,9619 8695,9572 8645,9530 8605,9496 Z M 6735,6854 C 6750,6863 6765,6873 6779,6883 6768,6873 6757,6862 6746,6852 6742,6853 6738,6853 6735,6854 Z M 6858,6827 C 6843,6832 6827,6836 6811,6839 6825,6852 6839,6865 6852,6877 6854,6877 6855,6876 6857,6876 6869,6872 6880,6867 6892,6862 L 6858,6827 Z M 7093,7167 C 7105,7147 7118,7129 7132,7111 L 7111,7089 C 7095,7095 7080,7101 7065,7108 7072,7119 7078,7130 7083,7140 7087,7147 7090,7157 7093,7167 Z M 7030,7155 C 7036,7169 7042,7184 7047,7200 7044,7185 7040,7172 7035,7164 7034,7161 7032,7158 7030,7155 Z M 6922,6893 C 6907,6896 6892,6898 6877,6900 6949,6969 7010,7033 7050,7087 7060,7077 7071,7068 7082,7059 L 6922,6893 Z M 7250,7025 C 7334,7081 7501,7010 7536,6919 7488,6942 7441,6956 7393,6976 7350,6992 7296,7018 7250,7025 Z M 7127,6685 C 7077,6697 7033,6727 7006,6770 7003,6774 7000,6778 6998,6783 6988,6800 6982,6819 6979,6839 L 6984,6842 C 7045,6798 7080,6745 7135,6701 7175,6678 7227,6692 7271,6690 L 7339,6691 C 7385,6691 7429,6688 7478,6692 L 7480,6687 C 7380,6599 7237,6637 7127,6685 Z M 6274,2916 C 6125,2965 6017,3096 5929,3220 5677,3601 5544,4123 5746,4553 5606,4112 5736,3631 5964,3243 6045,3116 6135,2984 6274,2916 Z M 6274,3253 C 5931,3493 5617,3952 5807,4377 5698,3941 5987,3551 6274,3253 Z M 6433,3505 C 6015,3863 5717,4438 5856,4995 5799,4425 6069,3923 6433,3505 Z M 9604,3322 C 9453,3172 9281,3050 9097,2951 8986,2892 8870,2841 8751,2798 8360,2659 7933,2610 7523,2633 7226,2655 6920,2702 6654,2842 6928,2723 7229,2686 7525,2674 8258,2651 9034,2836 9586,3341 9696,3440 9795,3552 9885,3671 9805,3545 9710,3428 9604,3322 Z M 9442,3371 C 9489,3396 9547,3439 9594,3468 9550,3436 9496,3386 9449,3359 8719,2890 7606,2965 6799,3186 7620,3035 8690,2957 9442,3371 Z M 10564,4346 C 10473,4213 10365,4091 10244,3982 9351,3211 8075,3358 6982,3444 8210,3413 9722,3254 10564,4346 Z M 4984,3751 C 5132,4770 4984,5285 6077,7115 7163,8933 8402,10245 7567,13986 L 7993,13504 C 7994,13453 8061,11231 7954,10490 8140,10939 8409,11933 8513,12916 L 8778,12616 C 8293,10732 7050,7559 6628,6859 6616,6859 6605,6858 6593,6857 6604,6857 6615,6856 6625,6855 6584,6788 6551,6744 6527,6727 6552,6742 6631,6788 6714,6841 6719,6839 6724,6839 6729,6837 6638,6756 6543,6675 6463,6608 L 6453,6599 C 6237,6417 5961,5742 5949,5713 L 5975,5703 C 5417,4718 5680,2893 5783,2666 6642,2605 7710,2339 7710,2339 L 7928,2392 C 7572,2034 7229,1667 6928,1258 7204,1423 7437,1649 7657,1880 7812,2051 7964,2230 8084,2429 L 9596,2797 C 9727,2830 12211,3710 13161,4758 14110,5805 15964,8085 16521,8707 L 16927,9270 C 16604,8564 16279,7774 16279,7774 16279,7774 14982,4025 14098,2797 13214,1569 11457,309 11042,292 10627,276 8050,661 7812,726 7575,792 6407,1327 6028,1553 5836,1667 4984,3751 4984,3751 Z M 6519,6722 C 6519,6722 6522,6724 6527,6727 6525,6725 6522,6723 6519,6722 Z M 17626,10575 C 17694,10609 17763,10641 17833,10671 16923,10035 15056,7682 13961,6446 L 14730,8366 C 15361,8967 16021,9533 16731,10040 17018,10237 17313,10423 17626,10575 Z M 18674,11357 L 18674,11358 18673,11358 C 18302,13154 17419,14763 16184,16027 16190,16042 16195,16058 16200,16071 L 16101,16112 C 15961,16252 15816,16387 15667,16518 15672,16531 15676,16544 15681,16557 L 15580,16594 C 14320,17677 12771,18432 11064,18729 L 11057,18754 11012,18738 C 10499,18824 9972,18870 9435,18870 8183,18870 6989,18626 5896,18183 L 5872,18216 5768,18131 C 5705,18104 5642,18076 5579,18048 5577,18052 5574,18056 5572,18060 5572,18060 5487,18013 5404,17967 2210,16455 0,13203 0,9436 0,4224 4224,0 9435,0 14646,0 18870,4224 18870,9436 18870,10093 18802,10736 18674,11357 Z M 8336,6041 C 8207,6090 8017,5916 7993,5903 8045,6138 8333,6237 8548,6302 8542,6090 8729,6054 8729,6054 8709,6099 8836,6202 8934,6225 9032,6247 9192,6186 9229,6088 9265,5989 9229,5850 9122,5805 9122,5805 9303,5694 9569,5703 9405,5666 8821,5752 8697,5789 8572,5826 8465,5991 8336,6041 Z M 8662,6391 C 8891,6469 9156,6376 9329,6216 9353,6191 9377,6165 9389,6133 9367,6159 9340,6177 9312,6195 9118,6318 8894,6398 8662,6391 Z M 8124,5281 C 7853,5416 7710,5694 7710,5694 7718,5727 7966,5830 7966,5830 7966,5830 8390,5134 9551,5107 9277,5070 8394,5146 8124,5281 Z M 8997,7641 C 9013,7663 9025,7688 9027,7711 9027,7794 8960,7870 8900,7925 8959,7904 9010,7861 9045,7806 9173,7608 8875,7453 8711,7437 8815,7491 8926,7549 8997,7641 Z M 8725,7905 C 8619,7839 8230,7934 8185,7979 8140,8024 8275,8069 8377,8105 L 8467,8105 8780,7954 C 8780,7954 8832,7970 8725,7905 Z M 14336,4336 C 14713,5067 15038,5824 15399,6564 15586,6930 15760,7313 16030,7627 15789,7293 15638,6905 15470,6531 15183,5861 14796,4912 14472,4268 14249,3827 14013,3385 13688,3008 13566,2869 13416,2755 13270,2644 12141,1827 10925,1138 9699,481 10867,1230 12059,1945 13176,2768 13314,2875 13454,2981 13569,3114 13882,3481 14115,3909 14336,4336 Z M 12814,3300 C 12880,3375 12984,3488 13045,3567 13938,4672 14707,5877 15504,7054 15736,7396 16069,7905 16308,8232 16244,8132 16183,8030 16122,7928 16013,7743 15682,7198 15570,7012 14803,5771 14035,4528 13111,3394 13017,3290 12906,3158 12804,3061 12229,2529 11527,2164 10833,1815 9981,1391 9089,1051 8205,702 9062,1111 9937,1482 10777,1926 11196,2147 11611,2376 12003,2637 12295,2834 12579,3039 12814,3300 Z M 5783,2568 C 5799,2204 6036,1698 6274,1422 6213,1839 6026,2228 5783,2568 Z"/>
       </g>
      </g>
     </g>
    </g>
   </g>
  </g>
 </g>
</svg>