<?xml version="1.0" encoding="UTF-8"?>
<!DOCTYPE svg PUBLIC "-//W3C//DTD SVG 1.1//EN" "http://www.w3.org/Graphics/SVG/1.1/DTD/svg11.dtd">
<svg version="1.2" width="342mm" height="342mm" viewBox="0 0 34200 34200" preserveAspectRatio="xMidYMid" fill-rule="evenodd" stroke-width="28.222" stroke-linejoin="round" xmlns="http://www.w3.org/2000/svg" xmlns:ooo="http://xml.openoffice.org/svg/export" xmlns:xlink="http://www.w3.org/1999/xlink" xmlns:presentation="http://sun.com/xmlns/staroffice/presentation" xmlns:smil="http://www.w3.org/2001/SMIL20/" xmlns:anim="urn:oasis:names:tc:opendocument:xmlns:animation:1.0" xml:space="preserve">
 <defs class="ClipPathGroup">
  <clipPath id="presentation_clip_path" clipPathUnits="userSpaceOnUse">
   <rect x="0" y="0" width="34200" height="34200"/>
  </clipPath>
  <clipPath id="presentation_clip_path_shrink" clipPathUnits="userSpaceOnUse">
   <rect x="34" y="34" width="34132" height="34132"/>
  </clipPath>
 </defs>
 <defs class="TextShapeIndex">
  <g ooo:slide="id1" ooo:id-list="id3 id4 id5 id6 id7 id8 id9 id10 id11 id12 id13 id14 id15 id16 id17 id18 id19 id20 id21"/>
 </defs>
 <defs class="EmbeddedBulletChars">
  <g id="bullet-char-template-57356" transform="scale(0.00048828125,-0.00048828125)">
   <path d="M 580,1141 L 1163,571 580,0 -4,571 580,1141 Z"/>
  </g>
  <g id="bullet-char-template-57354" transform="scale(0.00048828125,-0.00048828125)">
   <path d="M 8,1128 L 1137,1128 1137,0 8,0 8,1128 Z"/>
  </g>
  <g id="bullet-char-template-10146" transform="scale(0.00048828125,-0.00048828125)">
   <path d="M 174,0 L 602,739 174,1481 1456,739 174,0 Z M 1358,739 L 309,1346 659,739 1358,739 Z"/>
  </g>
  <g id="bullet-char-template-10132" transform="scale(0.00048828125,-0.00048828125)">
   <path d="M 2015,739 L 1276,0 717,0 1260,543 174,543 174,936 1260,936 717,1481 1274,1481 2015,739 Z"/>
  </g>
  <g id="bullet-char-template-10007" transform="scale(0.00048828125,-0.00048828125)">
   <path d="M 0,-2 C -7,14 -16,27 -25,37 L 356,567 C 262,823 215,952 215,954 215,979 228,992 255,992 264,992 276,990 289,987 310,991 331,999 354,1012 L 381,999 492,748 772,1049 836,1024 860,1049 C 881,1039 901,1025 922,1006 886,937 835,863 770,784 769,783 710,716 594,584 L 774,223 C 774,196 753,168 711,139 L 727,119 C 717,90 699,76 672,76 641,76 570,178 457,381 L 164,-76 C 142,-110 111,-127 72,-127 30,-127 9,-110 8,-76 1,-67 -2,-52 -2,-32 -2,-23 -1,-13 0,-2 Z"/>
  </g>
  <g id="bullet-char-template-10004" transform="scale(0.00048828125,-0.00048828125)">
   <path d="M 285,-33 C 182,-33 111,30 74,156 52,228 41,333 41,471 41,549 55,616 82,672 116,743 169,778 240,778 293,778 328,747 346,684 L 369,508 C 377,444 397,411 428,410 L 1163,1116 C 1174,1127 1196,1133 1229,1133 1271,1133 1292,1118 1292,1087 L 1292,965 C 1292,929 1282,901 1262,881 L 442,47 C 390,-6 338,-33 285,-33 Z"/>
  </g>
  <g id="bullet-char-template-9679" transform="scale(0.00048828125,-0.00048828125)">
   <path d="M 813,0 C 632,0 489,54 383,161 276,268 223,411 223,592 223,773 276,916 383,1023 489,1130 632,1184 813,1184 992,1184 1136,1130 1245,1023 1353,916 1407,772 1407,592 1407,412 1353,268 1245,161 1136,54 992,0 813,0 Z"/>
  </g>
  <g id="bullet-char-template-8226" transform="scale(0.00048828125,-0.00048828125)">
   <path d="M 346,457 C 273,457 209,483 155,535 101,586 74,649 74,723 74,796 101,859 155,911 209,963 273,989 346,989 419,989 480,963 531,910 582,859 608,796 608,723 608,648 583,586 532,535 482,483 420,457 346,457 Z"/>
  </g>
  <g id="bullet-char-template-8211" transform="scale(0.00048828125,-0.00048828125)">
   <path d="M -4,459 L 1135,459 1135,606 -4,606 -4,459 Z"/>
  </g>
  <g id="bullet-char-template-61548" transform="scale(0.00048828125,-0.00048828125)">
   <path d="M 173,740 C 173,903 231,1043 346,1159 462,1274 601,1332 765,1332 928,1332 1067,1274 1183,1159 1299,1043 1357,903 1357,740 1357,577 1299,437 1183,322 1067,206 928,148 765,148 601,148 462,206 346,322 231,437 173,577 173,740 Z"/>
  </g>
 </defs>
 <g>
  <g id="id2" class="Master_Slide">
   <g id="bg-id2" class="Background"/>
   <g id="bo-id2" class="BackgroundObjects"/>
  </g>
 </g>
 <g class="SlideGroup">
  <g>
   <g id="container-id1">
    <g id="id1" class="Slide" clip-path="url(#presentation_clip_path)">
     <g class="Page">
      <g class="com.sun.star.drawing.ClosedBezierShape">
       <g id="id3">
        <rect class="BoundingBox" stroke="none" fill="none" x="10303" y="15120" width="159" height="99"/>
        <path fill="rgb(246,249,212)" stroke="none" d="M 10304,15121 C 10360,15153 10413,15186 10461,15218 10437,15181 10383,15150 10304,15121 Z"/>
       </g>
      </g>
      <g class="com.sun.star.drawing.ClosedBezierShape">
       <g id="id4">
        <rect class="BoundingBox" stroke="none" fill="none" x="32039" y="14752" width="1266" height="8621"/>
        <path fill="rgb(255,0,0)" stroke="none" d="M 33132,14753 C 33244,15520 33303,16303 33303,17100 33303,19321 32853,21440 32039,23371 32151,22391 32368,20367 32396,19132 L 33132,14753 Z"/>
       </g>
      </g>
      <g class="com.sun.star.drawing.ClosedBezierShape">
       <g id="id5">
        <rect class="BoundingBox" stroke="none" fill="none" x="31377" y="9443" width="1523" height="8523"/>
        <path fill="rgb(255,0,0)" stroke="none" d="M 32898,13496 L 32157,17964 C 32043,17871 31889,17782 31714,17698 31664,16491 31452,11279 31377,9444 32055,10705 32572,12064 32898,13496 Z"/>
       </g>
      </g>
      <g class="com.sun.star.drawing.ClosedBezierShape">
       <g id="id6">
        <rect class="BoundingBox" stroke="none" fill="none" x="27251" y="4719" width="3349" height="9030"/>
        <path fill="rgb(255,0,0)" stroke="none" d="M 28807,12900 C 28289,12690 27738,12466 27251,12201 L 27542,4720 C 28711,5708 29739,6858 30590,8135 30600,9204 30615,11831 30532,13748 30093,13421 29479,13172 28807,12900 Z"/>
       </g>
      </g>
      <g class="com.sun.star.drawing.ClosedBezierShape">
       <g id="id7">
        <rect class="BoundingBox" stroke="none" fill="none" x="5261" y="5684" width="24111" height="25584"/>
        <path fill="rgb(246,249,212)" stroke="none" d="M 28731,23213 C 27758,25248 26017,28403 25755,28889 25407,29536 24737,30605 23077,31153 22140,31326 20528,31437 19662,30419 19407,30118 19165,29864 18928,29636 18959,29624 18989,29611 19019,29598 19066,29621 19117,29644 19172,29669 19182,29677 19192,29684 19202,29692 19288,29758 19373,29835 19458,29916 19627,30077 19793,30250 19972,30417 20061,30500 20155,30581 20256,30657 L 20333,30713 20417,30764 C 20443,30782 20478,30794 20508,30809 20540,30822 20572,30838 20603,30845 20851,30922 21094,30944 21338,30956 21824,30971 22308,30926 22776,30810 23243,30698 23700,30505 24064,30195 23680,30481 23221,30639 22757,30719 22292,30803 21816,30814 21351,30770 21120,30744 20886,30704 20682,30626 20655,30618 20635,30605 20612,30594 20590,30581 20567,30574 20545,30556 L 20479,30509 20415,30456 C 20330,30383 20248,30303 20168,30217 20080,30124 19994,30027 19907,29929 20062,29967 20220,29992 20371,29996 21117,30014 22105,29542 22292,29262 22479,28982 22653,27932 22833,27266 22292,27791 22255,28225 21210,28840 20244,29410 19181,29111 18452,28930 18123,28756 17840,28536 17617,28333 L 17066,27734 C 17329,27846 17725,27984 17856,28068 17906,28100 18636,28479 19326,28516 20016,28553 22217,27572 22404,27447 22591,27322 22973,26632 23388,26707 22954,26520 22516,27043 22199,27173 21882,27304 20147,27509 19625,27509 19102,27509 18935,27994 18655,27938 18219,27851 17387,27496 17126,27460 17025,27437 16926,27440 16848,27498 L 16189,26635 C 16289,26664 16390,26686 16482,26699 16619,26719 16756,26724 16891,26723 17041,26718 17172,26694 17307,26665 17574,26605 17834,26515 18083,26390 18146,26359 18207,26325 18267,26288 18298,26270 18328,26251 18357,26231 18387,26211 18418,26190 18439,26178 18526,26118 18637,26066 18748,26017 18972,25919 19213,25836 19456,25754 19701,25671 19946,25596 20201,25496 L 20250,25477 20301,25453 C 20310,25448 20317,25446 20328,25440 L 20360,25422 C 20379,25410 20398,25397 20415,25384 20481,25332 20531,25278 20576,25220 20666,25106 20736,24984 20790,24854 20841,24724 20884,24587 20880,24440 20877,24368 20862,24292 20822,24229 20779,24167 20716,24127 20651,24114 20706,24151 20747,24202 20761,24258 20776,24313 20771,24372 20757,24429 20728,24543 20669,24652 20598,24751 20528,24850 20447,24943 20361,25021 20318,25059 20273,25095 20232,25117 20221,25123 20212,25127 20203,25131 L 20173,25140 C 20147,25148 20120,25156 20089,25164 19848,25224 19588,25280 19334,25349 19078,25418 18823,25498 18568,25607 18441,25664 18315,25725 18188,25814 18154,25837 18132,25853 18108,25871 18084,25888 18060,25905 18035,25921 17986,25955 17933,25985 17882,26017 17672,26139 17443,26241 17210,26326 17095,26368 16973,26407 16864,26430 16739,26452 16615,26471 16491,26479 16320,26495 16135,26475 15942,26433 L 15675,26365 15508,26322 15951,27117 17388,28321 17463,28458 C 16949,28088 16373,27688 15659,27123 13272,25233 12327,24164 10984,22473 9660,20806 8579,18995 8548,18229 8597,18275 8664,18330 8750,18390 8879,18543 9071,18749 9317,18953 9327,19030 9342,19103 9360,19169 9389,19274 9425,19370 9462,19465 9538,19653 9627,19826 9719,19997 9907,20334 10114,20653 10332,20962 10767,21580 11241,22164 11736,22727 12233,23288 12751,23829 13293,24344 13833,24860 13784,24669 13231,24055 12790,23565 12369,23057 11966,22537 11515,21949 11088,21344 10706,20717 10516,20404 10338,20084 10184,19759 10160,19706 10137,19652 10113,19599 10120,19603 10126,19607 10133,19611 10157,19624 10182,19637 10208,19649 L 10264,19527 C 10309,19545 10353,19561 10399,19576 L 10355,19707 C 10471,19745 10598,19773 10734,19788 L 10748,19668 C 10784,19675 10821,19681 10858,19686 10870,19688 10881,19689 10892,19690 L 10887,19800 C 10920,19802 10953,19802 10986,19802 11080,19800 11178,19796 11270,19784 L 11259,19697 C 11309,19693 11358,19685 11406,19676 L 11423,19759 C 11561,19730 11686,19687 11795,19632 L 11758,19560 C 11805,19537 11849,19513 11892,19486 L 11936,19543 C 12020,19479 12112,19387 12211,19271 L 12188,19250 C 12224,19215 12257,19178 12289,19140 L 12307,19154 C 12376,19065 12450,18964 12526,18853 L 12502,18837 C 12528,18792 12551,18749 12572,18706 L 12608,18730 C 12673,18630 12739,18525 12804,18416 L 12704,18357 C 12721,18290 12728,18238 12724,18211 12724,18206 12722,18201 12719,18197 L 12879,18289 C 12883,18281 12888,18274 12892,18266 13000,18292 13121,18276 13207,18257 L 14275,20864 14566,21574 C 14613,21691 14665,21812 14709,21926 14715,21943 14720,21961 14726,21978 14887,23010 15065,25175 15193,25513 15349,25923 15653,26352 15672,26147 15683,26024 15396,24660 15165,23586 15098,23142 15025,22700 14932,22259 14906,22134 14876,22008 14841,21882 14802,21754 14762,21636 14723,21514 L 14484,20785 13715,18429 C 13717,18420 13718,18408 13719,18394 13727,18266 13661,18114 13560,17956 L 13532,17870 13508,17878 C 13271,17537 12903,17177 12774,16953 12176,15906 8171,15891 6373,14809 6109,14240 5850,13678 5749,13456 5571,13068 5245,10087 5262,8138 5400,7904 5686,7591 6126,7292 5929,9427 6034,13707 7154,14267 8395,14888 9821,14946 10304,15121 9371,14581 7573,14080 7362,13456 7006,12404 6504,8836 7289,6716 7839,6525 8498,6389 9272,6365 9674,6403 10410,6306 11999,6075 13308,5884 14792,5668 15506,5686 16359,5708 16715,6010 17938,7161 18321,7520 18796,7967 19382,8483 20275,9270 21087,9494 21816,9635 22869,10395 24510,11865 24930,12838 24772,12934 24414,13092 23596,13312 22742,13541 21644,13773 20582,13997 19082,14313 17666,14611 17052,14879 16546,15100 16219,15390 16006,15705 15698,16014 15326,16651 15298,17100 15280,17399 15597,19003 15746,19787 15864,20406 15874,18372 16334,17347 16475,17225 16657,17125 16902,17238 17274,17408 18087,17351 18597,17260 18801,17435 19116,17566 19484,17659 19508,17682 19533,17706 19559,17731 L 19477,17811 C 19567,17902 19663,17989 19762,18070 L 19832,17984 C 19880,18028 19919,18063 19942,18086 L 19884,18164 C 19987,18240 20095,18312 20205,18376 L 20236,18325 C 20277,18352 20320,18379 20364,18405 L 20340,18451 C 20452,18510 20570,18564 20689,18612 L 20706,18569 C 20753,18588 20800,18606 20849,18622 L 20833,18666 C 20952,18708 21075,18746 21200,18777 L 21213,18726 C 21262,18737 21311,18747 21361,18757 L 21350,18811 C 21472,18837 21599,18859 21727,18874 L 21735,18809 C 21785,18814 21835,18818 21885,18821 L 21879,18891 C 22004,18902 22132,18909 22260,18910 L 22261,18829 C 22311,18829 22361,18827 22412,18824 L 22413,18910 C 22540,18908 22668,18900 22794,18889 L 22785,18792 C 22834,18786 22884,18779 22933,18771 L 22946,18872 C 23079,18855 23206,18833 23324,18807 L 23300,18699 C 23348,18688 23396,18675 23444,18662 L 23475,18769 C 23594,18735 23717,18685 23841,18622 L 23803,18549 C 23851,18531 23898,18512 23945,18491 L 23977,18546 C 24082,18484 24189,18411 24296,18329 L 24283,18311 C 24327,18284 24369,18256 24412,18227 L 24417,18233 C 24438,18215 24459,18196 24481,18177 25522,17417 26208,16041 26576,15734 27023,15361 27564,15958 27799,16729 28182,17982 28466,18893 26899,22808 28086,21250 28828,19669 29227,18672 29584,20349 29227,22136 28685,23190 L 28731,23213 Z"/>
       </g>
      </g>
      <g class="com.sun.star.drawing.ClosedBezierShape">
       <g id="id8">
        <rect class="BoundingBox" stroke="none" fill="none" x="15809" y="28617" width="6842" height="4632"/>
        <path fill="rgb(246,249,212)" stroke="none" d="M 15858,28790 C 16319,27721 17033,31949 22649,32323 21319,32810 19908,33126 18442,33247 17565,32240 15468,29694 15858,28790 Z"/>
       </g>
      </g>
      <g class="com.sun.star.drawing.ClosedBezierShape">
       <g id="id9">
        <rect class="BoundingBox" stroke="none" fill="none" x="8354" y="17666" width="4390" height="818"/>
        <path fill="rgb(246,249,212)" stroke="none" d="M 12743,18076 C 12729,18101 12711,18133 12689,18171 12460,18061 11178,18354 10586,18460 10260,18519 9744,18451 9248,18337 L 8543,18135 C 8411,17968 8323,17842 8366,17672 8804,17709 9324,17695 9860,17681 10966,17653 12106,17623 12679,18008 12704,18032 12726,18054 12743,18076 Z"/>
       </g>
      </g>
      <g class="com.sun.star.drawing.ClosedBezierShape">
       <g id="id10">
        <rect class="BoundingBox" stroke="none" fill="none" x="7792" y="16920" width="3040" height="629"/>
        <path fill="rgb(246,249,212)" stroke="none" d="M 8254,17513 C 8121,17340 7958,17173 7793,17017 8281,17132 8908,16881 10407,16926 10607,17131 10796,17359 10831,17517 10512,17515 10183,17524 9856,17532 9270,17548 8703,17562 8254,17513 Z"/>
       </g>
      </g>
      <g class="com.sun.star.drawing.ClosedBezierShape">
       <g id="id11">
        <rect class="BoundingBox" stroke="none" fill="none" x="4755" y="7418" width="12346" height="25317"/>
        <path fill="rgb(120,75,4)" stroke="none" d="M 16329,32218 L 15945,31957 15575,31678 C 15328,31492 15079,31307 14836,31115 L 14125,30517 C 13197,29698 12303,28831 11505,27879 11404,27761 11298,27648 11201,27526 L 10911,27162 10622,26797 C 10574,26735 10525,26675 10478,26613 L 10342,26424 9798,25668 9286,24889 C 8622,23839 8026,22746 7498,21621 L 7121,20769 C 7001,20482 6889,20192 6772,19905 6744,19832 6714,19761 6687,19688 L 6607,19469 6449,19031 C 6339,18740 6248,18444 6153,18148 5780,16965 5469,15761 5243,14541 5014,13322 4855,12089 4789,10851 L 4769,10387 C 4763,10232 4763,10077 4760,9922 L 4756,9690 4759,9458 C 4762,9303 4760,9148 4770,8993 4791,8473 4828,7950 4933,7440 L 4951,7419 C 4942,7482 4936,7547 4928,7611 4906,7763 4902,7918 4890,8071 4880,8225 4880,8379 4874,8533 4869,8687 4873,8841 4873,8995 4882,9610 4912,10226 4971,10838 4982,10992 5001,11145 5017,11298 5034,11450 5048,11603 5067,11756 L 5129,12213 5160,12442 5196,12670 C 5246,12973 5290,13277 5349,13579 L 5433,14033 C 5462,14184 5496,14334 5527,14484 5785,15686 6100,16875 6488,18039 6873,19205 7316,20353 7836,21464 8871,23689 10166,25796 11728,27692 11925,27927 12118,28167 12320,28398 L 12942,29078 13097,29249 C 13150,29305 13205,29358 13259,29413 L 13585,29739 C 13803,29956 14016,30178 14248,30381 L 14929,31004 C 15162,31206 15403,31398 15638,31597 L 15993,31893 16362,32172 17099,32733 16329,32218 Z"/>
       </g>
      </g>
      <g class="com.sun.star.drawing.ClosedBezierShape">
       <g id="id12">
        <rect class="BoundingBox" stroke="none" fill="none" x="3813" y="8651" width="9973" height="24735"/>
        <path fill="rgb(120,75,4)" stroke="none" d="M 9019,28195 C 7699,26217 6643,24065 5843,21826 5445,20706 5100,19568 4815,18414 L 4613,17547 4434,16675 C 4378,16384 4327,16091 4275,15799 4226,15506 4185,15212 4139,14919 3970,13744 3864,12560 3826,11375 3807,10782 3809,10188 3838,9596 3853,9309 3872,9021 3905,8735 3926,8707 3946,8680 3967,8652 3966,8673 3965,8694 3963,8714 3946,9009 3939,9304 3940,9599 3943,10188 3963,10778 4008,11366 4088,12542 4233,13713 4426,14875 4624,16036 4858,17190 5157,18329 5451,19468 5794,20595 6194,21700 6387,22256 6607,22801 6827,23346 L 7179,24155 C 7298,24424 7430,24686 7553,24953 8064,26012 8632,27043 9263,28036 9901,29024 10595,29975 11350,30880 12106,31766 12922,32596 13785,33384 13783,33384 13780,33383 13778,33383 12864,32658 12010,31857 11213,31001 10419,30118 9685,29180 9019,28195 Z"/>
       </g>
      </g>
      <g class="com.sun.star.drawing.ClosedBezierShape">
       <g id="id13">
        <rect class="BoundingBox" stroke="none" fill="none" x="2588" y="10812" width="7936" height="21097"/>
        <path fill="rgb(120,75,4)" stroke="none" d="M 2852,10813 C 2801,14347 3631,21454 5187,25418 6387,28473 8575,30576 10523,31907 9957,31654 9408,31370 8878,31057 2156,25850 2237,15682 2852,10813 Z"/>
       </g>
      </g>
      <g class="com.sun.star.drawing.ClosedBezierShape">
       <g id="id14">
        <rect class="BoundingBox" stroke="none" fill="none" x="894" y="11208" width="2530" height="14574"/>
        <path fill="rgb(120,75,4)" stroke="none" d="M 2004,11209 C 1412,14798 1031,20672 3423,25780 1823,23269 895,20290 895,17100 895,15023 1289,13036 2004,11209 Z"/>
       </g>
      </g>
      <g class="com.sun.star.drawing.PolyPolygonShape">
       <g id="id15">
        <rect class="BoundingBox" stroke="none" fill="none" x="6195" y="1843" width="6144" height="3770"/>
        <path fill="rgb(255,0,0)" stroke="none" d="M 12294,1872 L 12338,1844 12301,1890 10277,4356 9889,4829 8086,5211 6196,5612 12294,1872 Z"/>
       </g>
      </g>
      <g class="com.sun.star.drawing.ClosedBezierShape">
       <g id="id16">
        <rect class="BoundingBox" stroke="none" fill="none" x="11284" y="894" width="10359" height="4929"/>
        <path fill="rgb(255,0,0)" stroke="none" d="M 21641,1544 C 20911,2407 18703,5048 18363,5822 17375,4910 16740,4449 15538,4418 14716,4398 13242,4612 11816,4820 11648,4844 11468,4870 11285,4896 12415,4007 14527,1946 15513,973 16035,922 16564,895 17100,895 18675,895 20199,1123 21641,1544 Z"/>
       </g>
      </g>
      <g class="com.sun.star.drawing.ClosedBezierShape">
       <g id="id17">
        <rect class="BoundingBox" stroke="none" fill="none" x="17498" y="13099" width="7718" height="2707"/>
        <path fill="rgb(246,249,212)" stroke="none" d="M 17498,15479 C 17898,15210 18703,14882 19341,14643 19758,14551 20205,14457 20659,14361 23245,13817 24689,13479 25202,13100 25263,13447 25074,13662 25009,13943 24785,14540 19998,15386 19214,15722 18631,15972 17951,15590 17498,15479 Z"/>
       </g>
      </g>
      <g class="com.sun.star.drawing.ClosedBezierShape">
       <g id="id18">
        <rect class="BoundingBox" stroke="none" fill="none" x="19047" y="15119" width="5936" height="1621"/>
        <path fill="rgb(246,249,212)" stroke="none" d="M 19065,16555 C 19538,15908 20383,15809 21453,15585 22522,15361 24760,14926 24885,15218 24916,15292 24956,15407 24981,15543 24917,15578 24838,15625 24736,15685 24274,15956 23500,16410 22758,16601 22162,16754 20067,16824 19047,16576 19053,16569 19060,16562 19065,16555 Z"/>
       </g>
      </g>
      <g class="com.sun.star.drawing.ClosedBezierShape">
       <g id="id19">
        <rect class="BoundingBox" stroke="none" fill="none" x="18880" y="15702" width="6126" height="1854"/>
        <path fill="rgb(246,249,212)" stroke="none" d="M 20907,16886 C 21726,16886 22499,16821 22795,16745 23558,16549 24342,16089 24811,15813 24876,15775 24942,15737 25001,15703 25010,15835 25001,15977 24956,16116 24841,16325 24648,16685 23983,17046 23435,17356 22416,17553 21277,17554 L 21271,17554 C 21014,17554 20768,17543 20535,17524 20347,17501 20159,17478 19987,17459 19567,17391 19220,17290 18983,17162 18874,17041 18823,16822 18976,16710 19474,16838 20206,16886 20907,16886 Z"/>
       </g>
      </g>
      <g class="com.sun.star.drawing.ClosedBezierShape">
       <g id="id20">
        <rect class="BoundingBox" stroke="none" fill="none" x="20785" y="1993" width="6130" height="8050"/>
        <path fill="rgb(255,0,0)" stroke="none" d="M 25270,10042 C 24245,8789 23246,8607 22345,8443 21799,8345 21309,8255 20785,7945 21347,6712 22415,3192 22963,1994 24388,2549 25716,3301 26913,4215 26447,5613 25753,8674 25270,10042 Z"/>
       </g>
      </g>
      <g class="com.sun.star.drawing.ClosedBezierShape">
       <g id="id21">
        <rect class="BoundingBox" stroke="none" fill="none" x="1" y="1" width="34200" height="34200"/>
        <path fill="rgb(16,15,13)" stroke="none" d="M 10305,15122 C 10384,15151 10438,15182 10462,15219 10414,15187 10361,15154 10305,15122 Z M 33133,14754 C 33245,15521 33304,16304 33304,17101 33304,19322 32854,21441 32040,23372 32152,22392 32369,20368 32397,19133 L 33133,14754 Z M 32899,13497 L 32158,17965 C 32044,17872 31890,17783 31715,17699 31665,16492 31453,11280 31378,9445 32056,10706 32573,12065 32899,13497 Z M 28808,12901 C 28290,12691 27739,12467 27252,12202 L 27543,4721 C 28712,5709 29740,6859 30591,8136 30601,9205 30616,11832 30533,13749 30094,13422 29480,13173 28808,12901 Z M 28732,23214 C 27759,25249 26018,28404 25756,28890 25408,29537 24738,30606 23078,31154 22141,31327 20529,31438 19663,30420 19408,30119 19166,29865 18929,29637 18960,29625 18990,29612 19020,29599 19067,29622 19118,29645 19173,29670 19183,29678 19193,29685 19203,29693 19289,29759 19374,29836 19459,29917 19628,30078 19794,30251 19973,30418 20062,30501 20156,30582 20257,30658 L 20334,30714 20418,30765 C 20444,30783 20479,30795 20509,30810 20541,30823 20573,30839 20604,30846 20852,30923 21095,30945 21339,30957 21825,30972 22309,30927 22777,30811 23244,30699 23701,30506 24065,30196 23681,30482 23222,30640 22758,30720 22293,30804 21817,30815 21352,30771 21121,30745 20887,30705 20683,30627 20656,30619 20636,30606 20613,30595 20591,30582 20568,30575 20546,30557 L 20480,30510 20416,30457 C 20331,30384 20249,30304 20169,30218 20081,30125 19995,30028 19908,29930 20063,29968 20221,29993 20372,29997 21118,30015 22106,29543 22293,29263 22480,28983 22834,27267 22834,27267 22834,27267 22256,28226 21211,28841 20245,29411 19182,29112 18453,28931 18124,28757 17841,28537 17618,28334 L 17067,27735 C 17067,27735 17726,27985 17857,28069 17907,28101 18637,28480 19327,28517 20017,28554 22218,27573 22405,27448 22592,27323 22974,26633 23389,26708 22955,26521 22517,27044 22200,27174 21883,27305 20148,27510 19626,27510 19103,27510 18936,27995 18656,27939 18220,27852 17388,27497 17127,27461 17026,27438 16927,27441 16849,27499 L 16190,26636 C 16290,26665 16391,26687 16483,26700 16620,26720 16757,26725 16892,26724 17042,26719 17173,26695 17308,26666 17575,26606 17835,26516 18084,26391 18147,26360 18208,26326 18268,26289 18299,26271 18329,26252 18358,26232 18388,26212 18419,26191 18440,26179 18527,26119 18638,26067 18749,26018 18973,25920 19214,25837 19457,25755 19702,25672 19947,25597 20202,25497 L 20251,25478 20302,25454 C 20311,25449 20318,25447 20329,25441 L 20361,25423 C 20380,25411 20399,25398 20416,25385 20482,25333 20532,25279 20577,25221 20667,25107 20737,24985 20791,24855 20842,24725 20885,24588 20881,24441 20878,24369 20863,24293 20823,24230 20780,24168 20717,24128 20652,24115 20707,24152 20748,24203 20762,24259 20777,24314 20772,24373 20758,24430 20729,24544 20670,24653 20599,24752 20529,24851 20448,24944 20362,25022 20319,25060 20274,25096 20233,25118 20222,25124 20213,25128 20204,25132 L 20174,25141 C 20148,25149 20121,25157 20090,25165 19849,25225 19589,25281 19335,25350 19079,25419 18824,25499 18569,25608 18442,25665 18316,25726 18189,25815 18155,25838 18133,25854 18109,25872 18085,25889 18061,25906 18036,25922 17987,25956 17934,25986 17883,26018 17673,26140 17444,26242 17211,26327 17096,26369 16974,26408 16865,26431 16740,26453 16616,26472 16492,26480 16321,26496 16136,26476 15943,26434 L 15676,26366 15676,26366 15509,26323 15952,27118 17389,28322 17464,28459 C 16950,28089 16374,27689 15660,27124 13273,25234 12328,24165 10985,22474 9661,20807 8580,18996 8549,18230 8598,18276 8665,18331 8751,18391 8880,18544 9072,18750 9318,18954 9328,19031 9343,19104 9361,19170 9390,19275 9426,19371 9463,19466 9539,19654 9628,19827 9720,19998 9908,20335 10115,20654 10333,20963 10768,21581 11242,22165 11737,22728 12234,23289 12752,23830 13294,24345 13834,24861 13785,24670 13232,24056 12791,23566 12370,23058 11967,22538 11516,21950 11089,21345 10707,20718 10517,20405 10339,20085 10185,19760 10161,19707 10138,19653 10114,19600 10121,19604 10127,19608 10134,19612 10158,19625 10183,19638 10209,19650 L 10265,19528 C 10310,19546 10354,19562 10400,19577 L 10356,19708 C 10472,19746 10599,19774 10735,19789 L 10749,19669 C 10785,19676 10822,19682 10859,19687 10871,19689 10882,19690 10893,19691 L 10888,19801 C 10921,19803 10954,19803 10987,19803 11081,19801 11179,19797 11271,19785 L 11260,19698 C 11310,19694 11359,19686 11407,19677 L 11424,19760 C 11562,19731 11687,19688 11796,19633 L 11759,19561 C 11806,19538 11850,19514 11893,19487 L 11937,19544 C 12021,19480 12113,19388 12212,19272 L 12189,19251 C 12225,19216 12258,19179 12290,19141 L 12308,19155 C 12377,19066 12451,18965 12527,18854 L 12503,18838 C 12529,18793 12552,18750 12573,18707 L 12609,18731 C 12674,18631 12740,18526 12805,18417 L 12705,18358 C 12722,18291 12729,18239 12725,18212 12725,18207 12723,18202 12720,18198 L 12880,18290 C 12884,18282 12889,18275 12893,18267 13001,18293 13122,18277 13208,18258 L 14276,20865 14567,21575 C 14614,21692 14666,21813 14710,21927 14716,21944 14721,21962 14727,21979 14888,23011 15066,25176 15194,25514 15350,25924 15654,26353 15673,26148 15684,26025 15397,24661 15166,23587 15099,23143 15026,22701 14933,22260 14907,22135 14877,22009 14842,21883 14803,21755 14763,21637 14724,21515 L 14485,20786 13716,18430 C 13718,18421 13719,18409 13720,18395 13728,18267 13662,18115 13561,17957 L 13533,17871 13509,17879 C 13272,17538 12904,17178 12775,16954 12177,15907 8172,15892 6374,14810 6110,14241 5851,13679 5750,13457 5572,13069 5246,10088 5263,8139 5401,7905 5687,7592 6127,7293 5930,9428 6035,13708 7155,14268 8396,14889 9822,14947 10305,15122 9372,14582 7574,14081 7363,13457 7007,12405 6505,8837 7290,6717 7840,6526 8499,6390 9273,6366 9675,6404 10411,6307 12000,6076 13309,5885 14793,5669 15507,5687 16360,5709 16716,6011 17939,7162 18322,7521 18797,7968 19383,8484 20276,9271 21088,9495 21817,9636 22870,10396 24511,11866 24931,12839 24773,12935 24415,13093 23597,13313 22743,13542 21645,13774 20583,13998 19083,14314 17667,14612 17053,14880 16547,15101 16220,15391 16007,15706 15699,16015 15327,16652 15299,17101 15281,17400 15598,19004 15747,19788 15865,20407 15875,18373 16335,17348 16476,17226 16658,17126 16903,17239 17275,17409 18088,17352 18598,17261 18802,17436 19117,17567 19485,17660 19509,17683 19534,17707 19560,17732 L 19478,17812 C 19568,17903 19664,17990 19763,18071 L 19833,17985 C 19881,18029 19920,18064 19943,18087 L 19885,18165 C 19988,18241 20096,18313 20206,18377 L 20237,18326 C 20278,18353 20321,18380 20365,18406 L 20341,18452 C 20453,18511 20571,18565 20690,18613 L 20707,18570 C 20754,18589 20801,18607 20850,18623 L 20834,18667 C 20953,18709 21076,18747 21201,18778 L 21214,18727 C 21263,18738 21312,18748 21362,18758 L 21351,18812 C 21473,18838 21600,18860 21728,18875 L 21736,18810 C 21786,18815 21836,18819 21886,18822 L 21880,18892 C 22005,18903 22133,18910 22261,18911 L 22262,18830 C 22312,18830 22362,18828 22413,18825 L 22414,18911 C 22541,18909 22669,18901 22795,18890 L 22786,18793 C 22835,18787 22885,18780 22934,18772 L 22947,18873 C 23080,18856 23207,18834 23325,18808 L 23301,18700 C 23349,18689 23397,18676 23445,18663 L 23476,18770 C 23595,18736 23718,18686 23842,18623 L 23804,18550 C 23852,18532 23899,18513 23946,18492 L 23978,18547 C 24083,18485 24190,18412 24297,18330 L 24284,18312 C 24328,18285 24370,18257 24413,18228 L 24418,18234 C 24439,18216 24460,18197 24482,18178 25523,17418 26209,16042 26577,15735 27024,15362 27565,15959 27800,16730 28183,17983 28467,18894 26900,22809 28087,21251 28829,19670 29228,18673 29585,20350 29228,22137 28686,23191 L 28732,23214 Z M 15859,28791 C 16320,27722 17034,31950 22650,32324 21320,32811 19909,33127 18443,33248 17566,32241 15469,29695 15859,28791 Z M 12744,18077 C 12730,18102 12712,18134 12690,18172 12461,18062 11179,18355 10587,18461 10261,18520 9745,18452 9249,18338 L 8544,18136 C 8412,17969 8324,17843 8367,17673 8805,17710 9325,17696 9861,17682 10967,17654 12107,17624 12680,18009 12705,18033 12727,18055 12744,18077 Z M 8255,17514 C 8122,17341 7959,17174 7794,17018 8282,17133 8909,16882 10408,16927 10608,17132 10797,17360 10832,17518 10513,17516 10184,17525 9857,17533 9271,17549 8704,17563 8255,17514 Z M 16330,32219 L 15946,31958 15576,31679 C 15329,31493 15080,31308 14837,31116 L 14126,30518 C 13198,29699 12304,28832 11506,27880 11405,27762 11299,27649 11202,27527 L 10912,27163 10623,26798 C 10575,26736 10526,26676 10479,26614 L 10343,26425 9799,25669 9287,24890 C 8623,23840 8027,22747 7499,21622 L 7122,20770 C 7002,20483 6890,20193 6773,19906 6745,19833 6715,19762 6688,19689 L 6608,19470 6450,19032 C 6340,18741 6249,18445 6154,18149 5781,16966 5470,15762 5244,14542 5015,13323 4856,12090 4790,10852 L 4770,10388 C 4764,10233 4764,10078 4761,9923 L 4757,9691 4760,9459 C 4763,9304 4761,9149 4771,8994 4792,8474 4829,7951 4934,7441 4940,7434 4946,7427 4952,7420 4943,7483 4937,7548 4929,7612 4907,7764 4903,7919 4891,8072 4881,8226 4881,8380 4875,8534 4870,8688 4874,8842 4874,8996 4883,9611 4913,10227 4972,10839 4983,10993 5002,11146 5018,11299 5035,11451 5049,11604 5068,11757 L 5130,12214 5161,12443 5197,12671 C 5247,12974 5291,13278 5350,13580 L 5434,14034 C 5463,14185 5497,14335 5528,14485 5786,15687 6101,16876 6489,18040 6874,19206 7317,20354 7837,21465 8872,23690 10167,25797 11729,27693 11926,27928 12119,28168 12321,28399 L 12943,29079 13098,29250 C 13151,29306 13206,29359 13260,29414 L 13586,29740 C 13804,29957 14017,30179 14249,30382 L 14930,31005 C 15163,31207 15404,31399 15639,31598 L 15994,31894 16363,32173 17101,32734 16330,32219 Z M 9020,28196 C 7700,26218 6644,24066 5844,21827 5446,20707 5101,19569 4816,18415 L 4614,17548 4435,16676 C 4379,16385 4328,16092 4276,15800 4227,15507 4186,15213 4140,14920 3971,13745 3865,12561 3827,11376 3808,10783 3810,10189 3839,9597 3854,9310 3873,9022 3906,8736 3927,8708 3947,8681 3968,8653 3967,8674 3966,8695 3964,8715 3947,9010 3940,9305 3941,9600 3944,10189 3964,10779 4009,11367 4089,12543 4234,13714 4427,14876 4625,16037 4859,17191 5158,18330 5452,19469 5795,20596 6195,21701 6388,22257 6608,22802 6828,23347 L 7180,24156 C 7299,24425 7431,24687 7554,24954 8065,26013 8633,27044 9264,28037 9902,29025 10596,29976 11351,30881 12117,31778 12945,32619 13820,33416 12891,32683 12023,31871 11214,31002 10420,30119 9686,29181 9020,28196 Z M 2853,10814 C 2802,14348 3632,21455 5188,25419 6388,28474 8576,30577 10524,31908 9958,31655 9409,31371 8879,31058 2157,25851 2238,15683 2853,10814 Z M 2005,11210 C 1413,14799 1032,20673 3424,25781 1824,23270 896,20291 896,17101 896,15024 1290,13037 2005,11210 Z M 12295,1873 L 12339,1845 12302,1891 10278,4357 9890,4830 8087,5212 6197,5613 12295,1873 Z M 21642,1545 C 20912,2408 18704,5049 18364,5823 17376,4911 16741,4450 15539,4419 14717,4399 13243,4613 11817,4821 11649,4845 11469,4871 11286,4897 12416,4008 14528,1947 15514,974 16036,923 16565,896 17101,896 18676,896 20200,1124 21642,1545 Z M 17499,15480 C 17899,15211 18704,14883 19342,14644 19759,14552 20206,14458 20660,14362 23246,13818 24690,13480 25203,13101 25264,13448 25010,13944 25010,13944 24786,14541 19999,15387 19215,15723 18632,15973 17952,15591 17499,15480 Z M 19066,16556 C 19539,15909 20384,15810 21454,15586 22523,15362 24761,14927 24886,15219 24917,15293 24957,15408 24982,15544 24918,15579 24839,15626 24737,15686 24275,15957 23501,16411 22759,16602 22163,16755 20068,16825 19048,16577 19054,16570 19061,16563 19066,16556 Z M 20908,16887 C 21727,16887 22500,16822 22796,16746 23559,16550 24343,16090 24812,15814 24877,15776 24943,15738 25002,15704 25011,15836 25002,15978 24957,16117 24842,16326 24649,16686 23984,17047 23436,17357 22417,17554 21278,17555 L 21272,17555 C 21015,17555 20769,17544 20536,17525 20348,17502 20160,17479 19988,17460 19568,17392 19221,17291 18984,17163 18875,17042 18824,16823 18977,16711 19475,16839 20207,16887 20908,16887 Z M 25271,10043 C 24246,8790 23247,8608 22346,8444 21800,8346 21310,8256 20786,7946 21348,6713 22416,3193 22964,1995 24389,2550 25717,3302 26914,4216 26448,5614 25754,8675 25271,10043 Z M 17101,1 C 12533,1 8239,1780 5009,5009 1780,8239 1,12533 1,17101 1,21667 1780,25961 5009,29191 8239,32420 12533,34199 17101,34199 21667,34199 25961,32420 29191,29191 32420,25961 34199,21667 34199,17101 34199,12533 32420,8239 29191,5009 25961,1780 21667,1 17101,1 Z"/>
       </g>
      </g>
     </g>
    </g>
   </g>
  </g>
 </g>
</svg>