<?xml version="1.0" encoding="UTF-8"?>
<!DOCTYPE svg PUBLIC "-//W3C//DTD SVG 1.1//EN" "http://www.w3.org/Graphics/SVG/1.1/DTD/svg11.dtd">
<svg version="1.2" width="45.67mm" height="88.04mm" viewBox="0 0 4567 8804" preserveAspectRatio="xMidYMid" fill-rule="evenodd" stroke-width="28.222" stroke-linejoin="round" xmlns="http://www.w3.org/2000/svg" xmlns:ooo="http://xml.openoffice.org/svg/export" xmlns:xlink="http://www.w3.org/1999/xlink" xmlns:presentation="http://sun.com/xmlns/staroffice/presentation" xmlns:smil="http://www.w3.org/2001/SMIL20/" xmlns:anim="urn:oasis:names:tc:opendocument:xmlns:animation:1.0" xml:space="preserve">
 <defs class="ClipPathGroup">
  <clipPath id="presentation_clip_path" clipPathUnits="userSpaceOnUse">
   <rect x="0" y="0" width="4567" height="8804"/>
  </clipPath>
  <clipPath id="presentation_clip_path_shrink" clipPathUnits="userSpaceOnUse">
   <rect x="4" y="8" width="4558" height="8787"/>
  </clipPath>
 </defs>
 <defs class="TextShapeIndex">
  <g ooo:slide="id1" ooo:id-list="id3 id4"/>
 </defs>
 <defs class="EmbeddedBulletChars">
  <g id="bullet-char-template-57356" transform="scale(0.00048828125,-0.00048828125)">
   <path d="M 580,1141 L 1163,571 580,0 -4,571 580,1141 Z"/>
  </g>
  <g id="bullet-char-template-57354" transform="scale(0.00048828125,-0.00048828125)">
   <path d="M 8,1128 L 1137,1128 1137,0 8,0 8,1128 Z"/>
  </g>
  <g id="bullet-char-template-10146" transform="scale(0.00048828125,-0.00048828125)">
   <path d="M 174,0 L 602,739 174,1481 1456,739 174,0 Z M 1358,739 L 309,1346 659,739 1358,739 Z"/>
  </g>
  <g id="bullet-char-template-10132" transform="scale(0.00048828125,-0.00048828125)">
   <path d="M 2015,739 L 1276,0 717,0 1260,543 174,543 174,936 1260,936 717,1481 1274,1481 2015,739 Z"/>
  </g>
  <g id="bullet-char-template-10007" transform="scale(0.00048828125,-0.00048828125)">
   <path d="M 0,-2 C -7,14 -16,27 -25,37 L 356,567 C 262,823 215,952 215,954 215,979 228,992 255,992 264,992 276,990 289,987 310,991 331,999 354,1012 L 381,999 492,748 772,1049 836,1024 860,1049 C 881,1039 901,1025 922,1006 886,937 835,863 770,784 769,783 710,716 594,584 L 774,223 C 774,196 753,168 711,139 L 727,119 C 717,90 699,76 672,76 641,76 570,178 457,381 L 164,-76 C 142,-110 111,-127 72,-127 30,-127 9,-110 8,-76 1,-67 -2,-52 -2,-32 -2,-23 -1,-13 0,-2 Z"/>
  </g>
  <g id="bullet-char-template-10004" transform="scale(0.00048828125,-0.00048828125)">
   <path d="M 285,-33 C 182,-33 111,30 74,156 52,228 41,333 41,471 41,549 55,616 82,672 116,743 169,778 240,778 293,778 328,747 346,684 L 369,508 C 377,444 397,411 428,410 L 1163,1116 C 1174,1127 1196,1133 1229,1133 1271,1133 1292,1118 1292,1087 L 1292,965 C 1292,929 1282,901 1262,881 L 442,47 C 390,-6 338,-33 285,-33 Z"/>
  </g>
  <g id="bullet-char-template-9679" transform="scale(0.00048828125,-0.00048828125)">
   <path d="M 813,0 C 632,0 489,54 383,161 276,268 223,411 223,592 223,773 276,916 383,1023 489,1130 632,1184 813,1184 992,1184 1136,1130 1245,1023 1353,916 1407,772 1407,592 1407,412 1353,268 1245,161 1136,54 992,0 813,0 Z"/>
  </g>
  <g id="bullet-char-template-8226" transform="scale(0.00048828125,-0.00048828125)">
   <path d="M 346,457 C 273,457 209,483 155,535 101,586 74,649 74,723 74,796 101,859 155,911 209,963 273,989 346,989 419,989 480,963 531,910 582,859 608,796 608,723 608,648 583,586 532,535 482,483 420,457 346,457 Z"/>
  </g>
  <g id="bullet-char-template-8211" transform="scale(0.00048828125,-0.00048828125)">
   <path d="M -4,459 L 1135,459 1135,606 -4,606 -4,459 Z"/>
  </g>
  <g id="bullet-char-template-61548" transform="scale(0.00048828125,-0.00048828125)">
   <path d="M 173,740 C 173,903 231,1043 346,1159 462,1274 601,1332 765,1332 928,1332 1067,1274 1183,1159 1299,1043 1357,903 1357,740 1357,577 1299,437 1183,322 1067,206 928,148 765,148 601,148 462,206 346,322 231,437 173,577 173,740 Z"/>
  </g>
 </defs>
 <g>
  <g id="id2" class="Master_Slide">
   <g id="bg-id2" class="Background"/>
   <g id="bo-id2" class="BackgroundObjects"/>
  </g>
 </g>
 <g class="SlideGroup">
  <g>
   <g id="container-id1">
    <g id="id1" class="Slide" clip-path="url(#presentation_clip_path)">
     <g class="Page">
      <g class="com.sun.star.drawing.PolyPolygonShape">
       <g id="id3">
        <rect class="BoundingBox" stroke="none" fill="none" x="-1" y="764" width="3121" height="5890"/>
        <path fill="rgb(0,0,0)" stroke="none" d="M 3118,5112 L 3042,4611 2957,2466 2494,1398 1521,765 642,954 179,1200 0,1606 56,2088 557,3203 1011,4328 1124,5036 1700,5962 2135,6652 2891,5594 3118,5112 Z"/>
        <path fill="none" stroke="rgb(52,101,164)" d="M 3118,5112 L 3042,4611 2957,2466 2494,1398 1521,765 642,954 179,1200 0,1606 56,2088 557,3203 1011,4328 1124,5036 1700,5962 2135,6652 2891,5594 3118,5112 Z"/>
       </g>
      </g>
      <g class="com.sun.star.drawing.ClosedBezierShape">
       <g id="id4">
        <rect class="BoundingBox" stroke="none" fill="none" x="0" y="0" width="4566" height="8803"/>
        <path fill="rgb(42,96,153)" stroke="none" d="M 1083,8758 C 1023,8681 1002,8055 1037,7368 1055,7002 1080,6364 1091,5949 L 1112,5195 840,4876 568,4557 574,4291 C 577,4144 592,3968 608,3901 636,3779 636,3779 737,4060 946,4641 1031,4705 849,4144 783,3942 659,3626 572,3441 485,3257 402,3067 387,3018 372,2970 279,2755 181,2542 L 2,2154 0,1778 0,1658 C 1,1409 15,1378 105,1249 164,1165 354,989 529,859 703,730 942,521 1061,395 1253,191 1304,158 1537,86 1713,31 1949,2 2174,0 L 2230,0 C 2421,2 2600,24 2721,66 2948,145 3214,379 3337,607 3520,946 4003,2580 4143,3333 4224,3775 4291,3934 4456,4092 4516,4149 4565,4214 4565,4237 4565,4283 4129,4680 3930,4816 3862,4862 3655,5025 3471,5177 L 3135,5453 3140,6978 C 3143,7816 3150,8502 3155,8502 3188,8502 3171,8668 3134,8698 3058,8761 2930,8673 2960,8579 3000,8446 3044,7337 3045,6421 L 3045,5539 2816,5783 C 2584,6030 2231,6532 2187,6677 2161,6763 2097,6786 2097,6709 2097,6610 1274,5346 1209,5345 1196,5345 1183,5643 1181,6007 1179,6370 1164,6803 1148,6968 1096,7491 1106,8422 1164,8535 1213,8629 1201,8802 1145,8802 1130,8802 1103,8782 1083,8758 Z M 2225,6395 C 2338,6167 2563,5826 2800,5521 3013,5247 3044,5120 2963,4864 2915,4712 2900,4473 2885,3627 L 2865,2577 2749,2326 C 2685,2188 2622,2008 2608,1927 2556,1621 2347,1446 1710,1179 1458,1073 1431,1069 1110,1089 553,1124 291,1245 142,1533 85,1643 86,1648 175,1755 231,1821 258,1886 245,1921 186,2073 185,2171 242,2193 298,2214 474,2530 529,2706 543,2752 622,2879 704,2989 808,3129 871,3262 913,3430 946,3562 1003,3774 1040,3900 1077,4026 1125,4231 1146,4356 1211,4729 1502,5398 1778,5804 1837,5891 1935,6101 1996,6271 2057,6441 2112,6580 2119,6580 2126,6580 2173,6496 2225,6395 Z"/>
       </g>
      </g>
     </g>
    </g>
   </g>
  </g>
 </g>
</svg>