<?xml version="1.0" encoding="UTF-8"?>
<!DOCTYPE svg PUBLIC "-//W3C//DTD SVG 1.1//EN" "http://www.w3.org/Graphics/SVG/1.1/DTD/svg11.dtd">
<svg version="1.2" width="75.04mm" height="75.09mm" viewBox="0 0 7504 7509" preserveAspectRatio="xMidYMid" fill-rule="evenodd" stroke-width="28.222" stroke-linejoin="round" xmlns="http://www.w3.org/2000/svg" xmlns:ooo="http://xml.openoffice.org/svg/export" xmlns:xlink="http://www.w3.org/1999/xlink" xmlns:presentation="http://sun.com/xmlns/staroffice/presentation" xmlns:smil="http://www.w3.org/2001/SMIL20/" xmlns:anim="urn:oasis:names:tc:opendocument:xmlns:animation:1.0" xml:space="preserve">
 <defs class="ClipPathGroup">
  <clipPath id="presentation_clip_path" clipPathUnits="userSpaceOnUse">
   <rect x="0" y="0" width="7504" height="7509"/>
  </clipPath>
  <clipPath id="presentation_clip_path_shrink" clipPathUnits="userSpaceOnUse">
   <rect x="7" y="7" width="7489" height="7494"/>
  </clipPath>
 </defs>
 <defs class="TextShapeIndex">
  <g ooo:slide="id1" ooo:id-list="id3 id4 id5 id6 id7 id8 id9 id10 id11 id12 id13 id14 id15 id16 id17 id18 id19 id20 id21 id22 id23 id24 id25 id26 id27 id28 id29 id30 id31 id32 id33 id34 id35 id36 id37 id38 id39 id40 id41 id42 id43 id44 id45 id46 id47 id48 id49 id50 id51 id52 id53 id54 id55 id56 id57 id58 id59 id60 id61 id62 id63 id64 id65 id66 id67 id68 id69 id70 id71 id72 id73 id74 id75 id76 id77 id78 id79 id80 id81 id82 id83 id84 id85 id86 id87 id88 id89 id90 id91 id92 id93 id94 id95 id96 id97 id98 id99 id100 id101 id102 id103 id104 id105 id106 id107 id108 id109 id110 id111 id112 id113 id114 id115 id116 id117 id118 id119 id120 id121 id122 id123 id124 id125 id126 id127 id128 id129 id130 id131 id132 id133 id134 id135 id136 id137 id138 id139 id140 id141 id142 id143 id144 id145 id146 id147 id148 id149 id150 id151 id152 id153 id154 id155 id156 id157 id158"/>
 </defs>
 <defs class="EmbeddedBulletChars">
  <g id="bullet-char-template-57356" transform="scale(0.00048828125,-0.00048828125)">
   <path d="M 580,1141 L 1163,571 580,0 -4,571 580,1141 Z"/>
  </g>
  <g id="bullet-char-template-57354" transform="scale(0.00048828125,-0.00048828125)">
   <path d="M 8,1128 L 1137,1128 1137,0 8,0 8,1128 Z"/>
  </g>
  <g id="bullet-char-template-10146" transform="scale(0.00048828125,-0.00048828125)">
   <path d="M 174,0 L 602,739 174,1481 1456,739 174,0 Z M 1358,739 L 309,1346 659,739 1358,739 Z"/>
  </g>
  <g id="bullet-char-template-10132" transform="scale(0.00048828125,-0.00048828125)">
   <path d="M 2015,739 L 1276,0 717,0 1260,543 174,543 174,936 1260,936 717,1481 1274,1481 2015,739 Z"/>
  </g>
  <g id="bullet-char-template-10007" transform="scale(0.00048828125,-0.00048828125)">
   <path d="M 0,-2 C -7,14 -16,27 -25,37 L 356,567 C 262,823 215,952 215,954 215,979 228,992 255,992 264,992 276,990 289,987 310,991 331,999 354,1012 L 381,999 492,748 772,1049 836,1024 860,1049 C 881,1039 901,1025 922,1006 886,937 835,863 770,784 769,783 710,716 594,584 L 774,223 C 774,196 753,168 711,139 L 727,119 C 717,90 699,76 672,76 641,76 570,178 457,381 L 164,-76 C 142,-110 111,-127 72,-127 30,-127 9,-110 8,-76 1,-67 -2,-52 -2,-32 -2,-23 -1,-13 0,-2 Z"/>
  </g>
  <g id="bullet-char-template-10004" transform="scale(0.00048828125,-0.00048828125)">
   <path d="M 285,-33 C 182,-33 111,30 74,156 52,228 41,333 41,471 41,549 55,616 82,672 116,743 169,778 240,778 293,778 328,747 346,684 L 369,508 C 377,444 397,411 428,410 L 1163,1116 C 1174,1127 1196,1133 1229,1133 1271,1133 1292,1118 1292,1087 L 1292,965 C 1292,929 1282,901 1262,881 L 442,47 C 390,-6 338,-33 285,-33 Z"/>
  </g>
  <g id="bullet-char-template-9679" transform="scale(0.00048828125,-0.00048828125)">
   <path d="M 813,0 C 632,0 489,54 383,161 276,268 223,411 223,592 223,773 276,916 383,1023 489,1130 632,1184 813,1184 992,1184 1136,1130 1245,1023 1353,916 1407,772 1407,592 1407,412 1353,268 1245,161 1136,54 992,0 813,0 Z"/>
  </g>
  <g id="bullet-char-template-8226" transform="scale(0.00048828125,-0.00048828125)">
   <path d="M 346,457 C 273,457 209,483 155,535 101,586 74,649 74,723 74,796 101,859 155,911 209,963 273,989 346,989 419,989 480,963 531,910 582,859 608,796 608,723 608,648 583,586 532,535 482,483 420,457 346,457 Z"/>
  </g>
  <g id="bullet-char-template-8211" transform="scale(0.00048828125,-0.00048828125)">
   <path d="M -4,459 L 1135,459 1135,606 -4,606 -4,459 Z"/>
  </g>
  <g id="bullet-char-template-61548" transform="scale(0.00048828125,-0.00048828125)">
   <path d="M 173,740 C 173,903 231,1043 346,1159 462,1274 601,1332 765,1332 928,1332 1067,1274 1183,1159 1299,1043 1357,903 1357,740 1357,577 1299,437 1183,322 1067,206 928,148 765,148 601,148 462,206 346,322 231,437 173,577 173,740 Z"/>
  </g>
 </defs>
 <g>
  <g id="id2" class="Master_Slide">
   <g id="bg-id2" class="Background"/>
   <g id="bo-id2" class="BackgroundObjects"/>
  </g>
 </g>
 <g class="SlideGroup">
  <g>
   <g id="container-id1">
    <g id="id1" class="Slide" clip-path="url(#presentation_clip_path)">
     <g class="Page">
      <g class="com.sun.star.drawing.ClosedBezierShape">
       <g id="id3">
        <rect class="BoundingBox" stroke="none" fill="none" x="5745" y="3349" width="170" height="345"/>
        <path fill="rgb(129,212,26)" stroke="none" d="M 5904,3349 C 5904,3349 5925,3466 5906,3518 5879,3593 5753,3693 5753,3693 5753,3693 5731,3543 5760,3479 5788,3419 5904,3349 5904,3349 Z"/>
       </g>
      </g>
      <g class="com.sun.star.drawing.ClosedBezierShape">
       <g id="id4">
        <rect class="BoundingBox" stroke="none" fill="none" x="5814" y="3747" width="278" height="291"/>
        <path fill="rgb(129,212,26)" stroke="none" d="M 5815,3747 C 5815,3747 5996,3769 6051,3836 6093,3887 6090,4037 6090,4037 6090,4037 5939,4021 5888,3969 5835,3914 5815,3747 5815,3747 Z"/>
       </g>
      </g>
      <g class="com.sun.star.drawing.ClosedBezierShape">
       <g id="id5">
        <rect class="BoundingBox" stroke="none" fill="none" x="5218" y="3463" width="153" height="283"/>
        <path fill="rgb(129,212,26)" stroke="none" d="M 5315,3463 C 5315,3463 5380,3571 5368,3628 5358,3681 5264,3745 5264,3745 5264,3745 5212,3648 5220,3597 5229,3542 5315,3463 5315,3463 Z"/>
       </g>
      </g>
      <g class="com.sun.star.drawing.ClosedBezierShape">
       <g id="id6">
        <rect class="BoundingBox" stroke="none" fill="none" x="4556" y="3476" width="162" height="295"/>
        <path fill="rgb(129,212,26)" stroke="none" d="M 4701,3476 C 4701,3476 4727,3572 4713,3616 4693,3682 4584,3770 4584,3770 4584,3770 4539,3634 4564,3575 4587,3521 4701,3476 4701,3476 Z"/>
       </g>
      </g>
      <g class="com.sun.star.drawing.ClosedBezierShape">
       <g id="id7">
        <rect class="BoundingBox" stroke="none" fill="none" x="4848" y="3309" width="238" height="239"/>
        <path fill="rgb(129,212,26)" stroke="none" d="M 5085,3547 C 5085,3547 5063,3437 5029,3399 4983,3348 4848,3310 4848,3310 4848,3310 4866,3430 4903,3471 4949,3521 5085,3547 5085,3547 Z"/>
       </g>
      </g>
      <g class="com.sun.star.drawing.ClosedBezierShape">
       <g id="id8">
        <rect class="BoundingBox" stroke="none" fill="none" x="5412" y="3299" width="202" height="202"/>
        <path fill="rgb(129,212,26)" stroke="none" d="M 5612,3500 C 5612,3500 5517,3457 5480,3419 5449,3386 5412,3299 5412,3299 5412,3299 5519,3305 5556,3341 5595,3379 5612,3500 5612,3500 Z"/>
       </g>
      </g>
      <g class="com.sun.star.drawing.ClosedBezierShape">
       <g id="id9">
        <rect class="BoundingBox" stroke="none" fill="none" x="5674" y="2870" width="252" height="315"/>
        <path fill="rgb(129,212,26)" stroke="none" d="M 5925,2871 C 5925,2871 5889,3021 5843,3077 5800,3130 5674,3184 5674,3184 5674,3184 5676,3027 5719,2970 5767,2908 5925,2871 5925,2871 Z"/>
       </g>
      </g>
      <g class="com.sun.star.drawing.ClosedBezierShape">
       <g id="id10">
        <rect class="BoundingBox" stroke="none" fill="none" x="4478" y="3017" width="160" height="301"/>
        <path fill="rgb(129,212,26)" stroke="none" d="M 4636,3018 C 4636,3018 4634,3143 4607,3195 4579,3248 4481,3317 4481,3317 4481,3317 4471,3199 4495,3149 4523,3090 4636,3018 4636,3018 Z"/>
       </g>
      </g>
      <g class="com.sun.star.drawing.ClosedBezierShape">
       <g id="id11">
        <rect class="BoundingBox" stroke="none" fill="none" x="4875" y="2874" width="135" height="202"/>
        <path fill="rgb(129,212,26)" stroke="none" d="M 5005,3075 C 5005,3075 5018,2979 4996,2941 4971,2901 4876,2874 4876,2874 4876,2874 4873,2968 4896,3004 4920,3042 5005,3075 5005,3075 Z"/>
       </g>
      </g>
      <g class="com.sun.star.drawing.ClosedBezierShape">
       <g id="id12">
        <rect class="BoundingBox" stroke="none" fill="none" x="5199" y="2904" width="161" height="300"/>
        <path fill="rgb(129,212,26)" stroke="none" d="M 5199,3203 C 5199,3203 5199,3100 5220,3055 5249,2992 5358,2904 5358,2904 5358,2904 5349,3069 5306,3133 5281,3169 5199,3203 5199,3203 Z"/>
       </g>
      </g>
      <g class="com.sun.star.drawing.ClosedBezierShape">
       <g id="id13">
        <rect class="BoundingBox" stroke="none" fill="none" x="5322" y="2832" width="256" height="171"/>
        <path fill="rgb(129,212,26)" stroke="none" d="M 5577,2887 C 5577,2887 5501,2830 5458,2832 5406,2835 5322,2913 5322,2913 5322,2913 5398,3005 5448,3001 5504,2998 5577,2887 5577,2887 Z"/>
       </g>
      </g>
      <g class="com.sun.star.drawing.ClosedBezierShape">
       <g id="id14">
        <rect class="BoundingBox" stroke="none" fill="none" x="5105" y="2568" width="213" height="244"/>
        <path fill="rgb(129,212,26)" stroke="none" d="M 5317,2568 C 5317,2568 5292,2679 5258,2720 5220,2767 5105,2811 5105,2811 5105,2811 5119,2679 5159,2634 5197,2590 5317,2568 5317,2568 Z"/>
       </g>
      </g>
      <g class="com.sun.star.drawing.ClosedBezierShape">
       <g id="id15">
        <rect class="BoundingBox" stroke="none" fill="none" x="5383" y="2447" width="231" height="271"/>
        <path fill="rgb(129,212,26)" stroke="none" d="M 5609,2717 C 5609,2717 5514,2656 5477,2613 5437,2565 5383,2448 5383,2448 5383,2448 5544,2467 5589,2529 5626,2579 5609,2717 5609,2717 Z"/>
       </g>
      </g>
      <g class="com.sun.star.drawing.ClosedBezierShape">
       <g id="id16">
        <rect class="BoundingBox" stroke="none" fill="none" x="5757" y="2454" width="357" height="174"/>
        <path fill="rgb(129,212,26)" stroke="none" d="M 6113,2534 C 6113,2534 5998,2457 5932,2454 5871,2451 5757,2514 5757,2514 5757,2514 5854,2620 5918,2626 5988,2632 6113,2534 6113,2534 Z"/>
       </g>
      </g>
      <g class="com.sun.star.drawing.ClosedBezierShape">
       <g id="id17">
        <rect class="BoundingBox" stroke="none" fill="none" x="5558" y="2125" width="229" height="272"/>
        <path fill="rgb(129,212,26)" stroke="none" d="M 5786,2125 C 5786,2125 5671,2176 5631,2224 5591,2271 5558,2396 5558,2396 5558,2396 5697,2351 5740,2294 5775,2249 5786,2125 5786,2125 Z"/>
       </g>
      </g>
      <g class="com.sun.star.drawing.ClosedBezierShape">
       <g id="id18">
        <rect class="BoundingBox" stroke="none" fill="none" x="4254" y="2649" width="153" height="325"/>
        <path fill="rgb(129,212,26)" stroke="none" d="M 4387,2649 C 4387,2649 4411,2749 4404,2798 4395,2861 4331,2973 4331,2973 4331,2973 4238,2830 4258,2756 4273,2700 4387,2649 4387,2649 Z"/>
       </g>
      </g>
      <g class="com.sun.star.drawing.ClosedBezierShape">
       <g id="id19">
        <rect class="BoundingBox" stroke="none" fill="none" x="4798" y="2180" width="88" height="277"/>
        <path fill="rgb(129,212,26)" stroke="none" d="M 4859,2180 C 4859,2180 4804,2271 4798,2323 4794,2368 4823,2456 4823,2456 4823,2456 4879,2356 4884,2300 4887,2259 4859,2180 4859,2180 Z"/>
       </g>
      </g>
      <g class="com.sun.star.drawing.ClosedBezierShape">
       <g id="id20">
        <rect class="BoundingBox" stroke="none" fill="none" x="4777" y="1982" width="487" height="165"/>
        <path fill="rgb(129,212,26)" stroke="none" d="M 5263,2021 C 5263,2021 5120,1988 5047,1984 4957,1979 4777,2000 4777,2000 4777,2000 4934,2144 5030,2146 5117,2147 5263,2021 5263,2021 Z"/>
       </g>
      </g>
      <g class="com.sun.star.drawing.ClosedBezierShape">
       <g id="id21">
        <rect class="BoundingBox" stroke="none" fill="none" x="4947" y="1517" width="104" height="339"/>
        <path fill="rgb(129,212,26)" stroke="none" d="M 5020,1517 C 5020,1517 4958,1615 4949,1671 4940,1731 4969,1854 4969,1854 4969,1854 5041,1743 5049,1679 5056,1624 5020,1517 5020,1517 Z"/>
       </g>
      </g>
      <g class="com.sun.star.drawing.ClosedBezierShape">
       <g id="id22">
        <rect class="BoundingBox" stroke="none" fill="none" x="4507" y="1807" width="104" height="311"/>
        <path fill="rgb(129,212,26)" stroke="none" d="M 4607,1807 C 4607,1807 4538,1874 4522,1919 4499,1980 4510,2117 4510,2117 4510,2117 4585,2021 4602,1963 4617,1913 4607,1807 4607,1807 Z"/>
       </g>
      </g>
      <g class="com.sun.star.drawing.ClosedBezierShape">
       <g id="id23">
        <rect class="BoundingBox" stroke="none" fill="none" x="4382" y="2357" width="330" height="159"/>
        <path fill="rgb(129,212,26)" stroke="none" d="M 4711,2369 C 4711,2369 4610,2350 4560,2359 4497,2369 4382,2434 4382,2434 4382,2434 4492,2522 4553,2513 4621,2502 4711,2369 4711,2369 Z"/>
       </g>
      </g>
      <g class="com.sun.star.drawing.ClosedBezierShape">
       <g id="id24">
        <rect class="BoundingBox" stroke="none" fill="none" x="4191" y="981" width="207" height="394"/>
        <path fill="rgb(129,212,26)" stroke="none" d="M 4240,1374 C 4240,1374 4173,1223 4196,1152 4222,1070 4378,982 4378,982 4378,982 4412,1133 4388,1201 4363,1275 4240,1374 4240,1374 Z"/>
       </g>
      </g>
      <g class="com.sun.star.drawing.ClosedBezierShape">
       <g id="id25">
        <rect class="BoundingBox" stroke="none" fill="none" x="3061" y="1392" width="178" height="408"/>
        <path fill="rgb(129,212,26)" stroke="none" d="M 3156,1392 C 3156,1392 3251,1539 3236,1619 3221,1700 3078,1799 3078,1799 3078,1799 3049,1639 3066,1561 3080,1498 3156,1392 3156,1392 Z"/>
       </g>
      </g>
      <g class="com.sun.star.drawing.ClosedBezierShape">
       <g id="id26">
        <rect class="BoundingBox" stroke="none" fill="none" x="3189" y="1760" width="146" height="204"/>
        <path fill="rgb(129,212,26)" stroke="none" d="M 3333,1760 C 3333,1760 3262,1772 3239,1799 3202,1841 3190,1963 3190,1963 3190,1963 3280,1944 3307,1908 3336,1869 3333,1760 3333,1760 Z"/>
       </g>
      </g>
      <g class="com.sun.star.drawing.ClosedBezierShape">
       <g id="id27">
        <rect class="BoundingBox" stroke="none" fill="none" x="3988" y="2193" width="185" height="515"/>
        <path fill="rgb(129,212,26)" stroke="none" d="M 4066,2193 C 4066,2193 3989,2353 3988,2441 3987,2533 4064,2707 4064,2707 4064,2707 4176,2517 4171,2412 4167,2330 4066,2193 4066,2193 Z"/>
       </g>
      </g>
      <g class="com.sun.star.drawing.ClosedBezierShape">
       <g id="id28">
        <rect class="BoundingBox" stroke="none" fill="none" x="4532" y="1618" width="338" height="125"/>
        <path fill="rgb(129,212,26)" stroke="none" d="M 4869,1714 C 4869,1714 4781,1637 4728,1623 4665,1607 4533,1639 4533,1639 4533,1639 4628,1724 4687,1738 4746,1752 4869,1714 4869,1714 Z"/>
       </g>
      </g>
      <g class="com.sun.star.drawing.ClosedBezierShape">
       <g id="id29">
        <rect class="BoundingBox" stroke="none" fill="none" x="4420" y="1254" width="159" height="387"/>
        <path fill="rgb(129,212,26)" stroke="none" d="M 4575,1421 C 4559,1351 4448,1254 4448,1254 4448,1254 4410,1390 4424,1457 4438,1527 4528,1640 4528,1640 4528,1640 4590,1493 4575,1421 Z"/>
       </g>
      </g>
      <g class="com.sun.star.drawing.ClosedBezierShape">
       <g id="id30">
        <rect class="BoundingBox" stroke="none" fill="none" x="3905" y="1181" width="180" height="488"/>
        <path fill="rgb(129,212,26)" stroke="none" d="M 3943,1181 C 3943,1181 3891,1345 3909,1426 3929,1521 4065,1668 4065,1668 4065,1668 4100,1471 4074,1379 4053,1301 3943,1181 3943,1181 Z"/>
       </g>
      </g>
      <g class="com.sun.star.drawing.ClosedBezierShape">
       <g id="id31">
        <rect class="BoundingBox" stroke="none" fill="none" x="3883" y="1794" width="364" height="233"/>
        <path fill="rgb(129,212,26)" stroke="none" d="M 4246,1794 C 4246,1794 4108,1795 4049,1828 3979,1866 3883,2005 3883,2005 3883,2005 4021,2044 4081,2015 4161,1976 4246,1794 4246,1794 Z"/>
       </g>
      </g>
      <g class="com.sun.star.drawing.ClosedBezierShape">
       <g id="id32">
        <rect class="BoundingBox" stroke="none" fill="none" x="3350" y="2203" width="379" height="239"/>
        <path fill="rgb(129,212,26)" stroke="none" d="M 3567,2226 C 3503,2189 3350,2207 3350,2207 3350,2207 3425,2327 3479,2364 3552,2413 3728,2440 3728,2440 3728,2440 3643,2268 3567,2226 Z"/>
       </g>
      </g>
      <g class="com.sun.star.drawing.ClosedBezierShape">
       <g id="id33">
        <rect class="BoundingBox" stroke="none" fill="none" x="3556" y="1713" width="253" height="290"/>
        <path fill="rgb(129,212,26)" stroke="none" d="M 3808,1713 C 3808,1713 3697,1732 3657,1770 3598,1828 3557,2002 3557,2002 3557,2002 3686,1961 3730,1911 3776,1859 3808,1713 3808,1713 Z"/>
       </g>
      </g>
      <g class="com.sun.star.drawing.ClosedBezierShape">
       <g id="id34">
        <rect class="BoundingBox" stroke="none" fill="none" x="3397" y="1434" width="410" height="239"/>
        <path fill="rgb(129,212,26)" stroke="none" d="M 3806,1449 C 3806,1449 3644,1415 3574,1449 3492,1490 3397,1671 3397,1671 3397,1671 3597,1678 3679,1627 3739,1589 3806,1449 3806,1449 Z"/>
       </g>
      </g>
      <g class="com.sun.star.drawing.ClosedBezierShape">
       <g id="id35">
        <rect class="BoundingBox" stroke="none" fill="none" x="3394" y="922" width="338" height="343"/>
        <path fill="rgb(129,212,26)" stroke="none" d="M 3730,922 C 3730,922 3563,973 3504,1034 3449,1091 3394,1264 3394,1264 3394,1264 3598,1254 3657,1204 3739,1135 3730,922 3730,922 Z"/>
       </g>
      </g>
      <g class="com.sun.star.drawing.ClosedBezierShape">
       <g id="id36">
        <rect class="BoundingBox" stroke="none" fill="none" x="3131" y="1061" width="257" height="237"/>
        <path fill="rgb(129,212,26)" stroke="none" d="M 3131,1061 C 3131,1061 3257,1060 3304,1097 3351,1134 3387,1261 3387,1261 3387,1261 3256,1320 3204,1285 3142,1243 3131,1061 3131,1061 Z"/>
       </g>
      </g>
      <g class="com.sun.star.drawing.ClosedBezierShape">
       <g id="id37">
        <rect class="BoundingBox" stroke="none" fill="none" x="3409" y="2503" width="278" height="437"/>
        <path fill="rgb(129,212,26)" stroke="none" d="M 3686,2939 C 3686,2939 3529,2842 3479,2764 3432,2689 3409,2503 3409,2503 3409,2503 3559,2582 3606,2652 3660,2733 3686,2939 3686,2939 Z"/>
       </g>
      </g>
      <g class="com.sun.star.drawing.ClosedBezierShape">
       <g id="id38">
        <rect class="BoundingBox" stroke="none" fill="none" x="2927" y="2073" width="261" height="324"/>
        <path fill="rgb(129,212,26)" stroke="none" d="M 2927,2073 C 2927,2073 3045,2102 3085,2146 3145,2210 3187,2396 3187,2396 3187,2396 3023,2331 2973,2261 2937,2209 2927,2073 2927,2073 Z"/>
       </g>
      </g>
      <g class="com.sun.star.drawing.ClosedBezierShape">
       <g id="id39">
        <rect class="BoundingBox" stroke="none" fill="none" x="2740" y="1848" width="191" height="171"/>
        <path fill="rgb(129,212,26)" stroke="none" d="M 2930,1848 C 2930,1848 2830,1850 2794,1882 2759,1914 2741,2018 2741,2018 2741,2018 2829,2012 2862,1984 2900,1952 2930,1848 2930,1848 Z"/>
       </g>
      </g>
      <g class="com.sun.star.drawing.ClosedBezierShape">
       <g id="id40">
        <rect class="BoundingBox" stroke="none" fill="none" x="2641" y="1621" width="131" height="241"/>
        <path fill="rgb(129,212,26)" stroke="none" d="M 2767,1621 C 2767,1621 2695,1685 2673,1728 2652,1768 2641,1861 2641,1861 2641,1861 2730,1830 2753,1791 2781,1743 2767,1621 2767,1621 Z"/>
       </g>
      </g>
      <g class="com.sun.star.drawing.ClosedBezierShape">
       <g id="id41">
        <rect class="BoundingBox" stroke="none" fill="none" x="2456" y="1342" width="178" height="327"/>
        <path fill="rgb(129,212,26)" stroke="none" d="M 2604,1342 C 2604,1342 2490,1404 2466,1462 2439,1525 2475,1668 2475,1668 2475,1668 2599,1613 2624,1554 2651,1489 2604,1342 2604,1342 Z"/>
       </g>
      </g>
      <g class="com.sun.star.drawing.ClosedBezierShape">
       <g id="id42">
        <rect class="BoundingBox" stroke="none" fill="none" x="1776" y="1989" width="259" height="131"/>
        <path fill="rgb(129,212,26)" stroke="none" d="M 2034,2059 C 2034,2059 1959,1989 1914,1989 1861,1990 1776,2074 1776,2074 1776,2074 1854,2123 1907,2118 1941,2115 2034,2059 2034,2059 Z"/>
       </g>
      </g>
      <g class="com.sun.star.drawing.ClosedBezierShape">
       <g id="id43">
        <rect class="BoundingBox" stroke="none" fill="none" x="1662" y="1653" width="304" height="322"/>
        <path fill="rgb(129,212,26)" stroke="none" d="M 1883,1723 C 1827,1667 1662,1653 1662,1653 1662,1653 1717,1832 1779,1893 1829,1941 1965,1974 1965,1974 1965,1974 1943,1785 1883,1723 Z"/>
       </g>
      </g>
      <g class="com.sun.star.drawing.ClosedBezierShape">
       <g id="id44">
        <rect class="BoundingBox" stroke="none" fill="none" x="2093" y="1697" width="156" height="388"/>
        <path fill="rgb(129,212,26)" stroke="none" d="M 2171,1697 C 2171,1697 2233,1780 2243,1831 2260,1913 2220,2083 2220,2083 2220,2083 2094,1938 2093,1848 2093,1790 2171,1697 2171,1697 Z"/>
       </g>
      </g>
      <g class="com.sun.star.drawing.ClosedBezierShape">
       <g id="id45">
        <rect class="BoundingBox" stroke="none" fill="none" x="2385" y="1882" width="153" height="268"/>
        <path fill="rgb(129,212,26)" stroke="none" d="M 2466,1882 C 2466,1882 2536,1962 2536,2012 2536,2065 2462,2149 2462,2149 2462,2149 2383,2062 2385,2007 2387,1957 2466,1882 2466,1882 Z"/>
       </g>
      </g>
      <g class="com.sun.star.drawing.ClosedBezierShape">
       <g id="id46">
        <rect class="BoundingBox" stroke="none" fill="none" x="2631" y="2593" width="356" height="150"/>
        <path fill="rgb(129,212,26)" stroke="none" d="M 2986,2730 C 2986,2730 2884,2616 2816,2597 2756,2581 2631,2623 2631,2623 2631,2623 2720,2714 2777,2733 2844,2755 2986,2730 2986,2730 Z"/>
       </g>
      </g>
      <g class="com.sun.star.drawing.ClosedBezierShape">
       <g id="id47">
        <rect class="BoundingBox" stroke="none" fill="none" x="1858" y="2140" width="177" height="389"/>
        <path fill="rgb(129,212,26)" stroke="none" d="M 1957,2140 C 1957,2140 1878,2201 1864,2247 1838,2338 1902,2528 1902,2528 1902,2528 2033,2378 2033,2284 2033,2229 1957,2140 1957,2140 Z"/>
       </g>
      </g>
      <g class="com.sun.star.drawing.ClosedBezierShape">
       <g id="id48">
        <rect class="BoundingBox" stroke="none" fill="none" x="2168" y="2321" width="136" height="319"/>
        <path fill="rgb(129,212,26)" stroke="none" d="M 2238,2321 C 2238,2321 2172,2401 2168,2451 2162,2517 2229,2639 2229,2639 2229,2639 2298,2550 2302,2495 2305,2433 2238,2321 2238,2321 Z"/>
       </g>
      </g>
      <g class="com.sun.star.drawing.ClosedBezierShape">
       <g id="id49">
        <rect class="BoundingBox" stroke="none" fill="none" x="2414" y="2368" width="148" height="325"/>
        <path fill="rgb(129,212,26)" stroke="none" d="M 2488,2368 C 2488,2368 2420,2434 2415,2480 2406,2555 2490,2691 2490,2691 2490,2691 2562,2583 2561,2521 2559,2464 2488,2368 2488,2368 Z"/>
       </g>
      </g>
      <g class="com.sun.star.drawing.ClosedBezierShape">
       <g id="id50">
        <rect class="BoundingBox" stroke="none" fill="none" x="1440" y="2343" width="169" height="334"/>
        <path fill="rgb(129,212,26)" stroke="none" d="M 1603,2675 C 1603,2675 1484,2596 1455,2531 1430,2475 1445,2343 1445,2343 1445,2343 1560,2410 1589,2469 1619,2530 1603,2675 1603,2675 Z"/>
       </g>
      </g>
      <g class="com.sun.star.drawing.ClosedBezierShape">
       <g id="id51">
        <rect class="BoundingBox" stroke="none" fill="none" x="1292" y="2804" width="175" height="326"/>
        <path fill="rgb(129,212,26)" stroke="none" d="M 1386,2804 C 1386,2804 1302,2869 1293,2919 1280,2991 1358,3129 1358,3129 1358,3129 1462,3030 1465,2963 1468,2903 1386,2804 1386,2804 Z"/>
       </g>
      </g>
      <g class="com.sun.star.drawing.ClosedBezierShape">
       <g id="id52">
        <rect class="BoundingBox" stroke="none" fill="none" x="895" y="2810" width="251" height="221"/>
        <path fill="rgb(129,212,26)" stroke="none" d="M 1136,3030 C 1136,3030 1162,2889 1122,2845 1069,2787 895,2819 895,2819 895,2819 921,2934 960,2970 1006,3014 1136,3030 1136,3030 Z"/>
       </g>
      </g>
      <g class="com.sun.star.drawing.ClosedBezierShape">
       <g id="id53">
        <rect class="BoundingBox" stroke="none" fill="none" x="1560" y="3095" width="320" height="128"/>
        <path fill="rgb(129,212,26)" stroke="none" d="M 1879,3144 C 1879,3144 1756,3087 1693,3096 1644,3103 1542,3173 1563,3173 1583,3173 1652,3223 1700,3221 1765,3219 1879,3144 1879,3144 Z"/>
       </g>
      </g>
      <g class="com.sun.star.drawing.ClosedBezierShape">
       <g id="id54">
        <rect class="BoundingBox" stroke="none" fill="none" x="1566" y="2804" width="251" height="200"/>
        <path fill="rgb(129,212,26)" stroke="none" d="M 1800,3003 C 1800,3003 1835,2878 1800,2838 1747,2776 1566,2819 1566,2819 1566,2819 1612,2940 1659,2973 1699,3002 1800,3003 1800,3003 Z"/>
       </g>
      </g>
      <g class="com.sun.star.drawing.ClosedBezierShape">
       <g id="id55">
        <rect class="BoundingBox" stroke="none" fill="none" x="1876" y="2808" width="176" height="296"/>
        <path fill="rgb(129,212,26)" stroke="none" d="M 2051,2808 C 2051,2808 1956,2853 1927,2897 1889,2955 1876,3103 1876,3103 1876,3103 1981,3024 2013,2967 2039,2920 2051,2808 2051,2808 Z"/>
       </g>
      </g>
      <g class="com.sun.star.drawing.ClosedBezierShape">
       <g id="id56">
        <rect class="BoundingBox" stroke="none" fill="none" x="2034" y="2982" width="177" height="299"/>
        <path fill="rgb(129,212,26)" stroke="none" d="M 2210,2982 C 2210,2982 2100,3031 2068,3081 2034,3137 2034,3280 2034,3280 2034,3280 2137,3214 2168,3162 2199,3109 2210,2982 2210,2982 Z"/>
       </g>
      </g>
      <g class="com.sun.star.drawing.ClosedBezierShape">
       <g id="id57">
        <rect class="BoundingBox" stroke="none" fill="none" x="1069" y="3120" width="156" height="349"/>
        <path fill="rgb(129,212,26)" stroke="none" d="M 1072,3121 C 1072,3121 1189,3160 1213,3213 1248,3291 1182,3468 1182,3468 1182,3468 1098,3365 1079,3302 1061,3245 1072,3121 1072,3121 Z"/>
       </g>
      </g>
      <g class="com.sun.star.drawing.ClosedBezierShape">
       <g id="id58">
        <rect class="BoundingBox" stroke="none" fill="none" x="860" y="3622" width="465" height="179"/>
        <path fill="rgb(129,212,26)" stroke="none" d="M 1324,3700 C 1324,3700 1183,3630 1107,3623 1024,3615 860,3663 860,3663 860,3663 1019,3798 1114,3800 1191,3802 1324,3700 1324,3700 Z"/>
       </g>
      </g>
      <g class="com.sun.star.drawing.ClosedBezierShape">
       <g id="id59">
        <rect class="BoundingBox" stroke="none" fill="none" x="1497" y="3404" width="175" height="478"/>
        <path fill="rgb(129,212,26)" stroke="none" d="M 1574,3405 C 1574,3405 1501,3545 1498,3623 1495,3712 1570,3881 1570,3881 1570,3881 1667,3648 1670,3623 1674,3597 1574,3405 1574,3405 Z"/>
       </g>
      </g>
      <g class="com.sun.star.drawing.ClosedBezierShape">
       <g id="id60">
        <rect class="BoundingBox" stroke="none" fill="none" x="1911" y="3616" width="165" height="386"/>
        <path fill="rgb(129,212,26)" stroke="none" d="M 1966,3617 C 1966,3617 1906,3732 1911,3794 1917,3872 2014,4001 2014,4001 2014,4001 2083,3863 2073,3790 2063,3722 1966,3617 1966,3617 Z"/>
       </g>
      </g>
      <g class="com.sun.star.drawing.ClosedBezierShape">
       <g id="id61">
        <rect class="BoundingBox" stroke="none" fill="none" x="2220" y="3537" width="280" height="272"/>
        <path fill="rgb(129,212,26)" stroke="none" d="M 2499,3537 C 2499,3537 2376,3618 2324,3670 2284,3710 2220,3807 2220,3807 2220,3807 2357,3802 2406,3759 2464,3707 2499,3537 2499,3537 Z"/>
       </g>
      </g>
      <g class="com.sun.star.drawing.ClosedBezierShape">
       <g id="id62">
        <rect class="BoundingBox" stroke="none" fill="none" x="2366" y="2923" width="212" height="555"/>
        <path fill="rgb(129,212,26)" stroke="none" d="M 2404,2923 C 2404,2923 2349,3112 2373,3203 2403,3315 2576,3476 2576,3476 2561,3484 2541,3279 2559,3148 2572,3055 2404,2923 2404,2923 Z"/>
       </g>
      </g>
      <g class="com.sun.star.drawing.ClosedBezierShape">
       <g id="id63">
        <rect class="BoundingBox" stroke="none" fill="none" x="606" y="1254" width="5711" height="5674"/>
        <path fill="rgb(0,0,0)" stroke="none" d="M 2988,4526 C 3006,4681 3020,4902 2895,4984 2802,5044 2680,4939 2579,4895 2504,4863 2445,4796 2369,4770 2253,4730 2127,4708 2008,4729 1945,4740 1898,4805 1835,4814 1794,4820 1753,4788 1712,4792 1663,4796 1619,4820 1574,4840 1524,4862 1481,4900 1429,4917 1373,4936 1312,4932 1254,4943 1202,4953 1152,4982 1099,4980 1058,4978 1021,4957 982,4943 933,4926 888,4892 837,4888 760,4881 607,4932 607,4932 607,4932 755,4953 827,4973 916,4997 1007,5039 1099,5038 1216,5037 1291,4942 1450,4984 1489,4994 1554,4948 1570,4987 1602,5065 1473,5184 1405,5230 1336,5277 1256,5263 1175,5252 1122,5245 1088,5184 1037,5167 969,5144 944,5151 875,5171 840,5181 734,5215 734,5215 734,5215 798,5214 830,5215 889,5217 950,5207 1006,5226 1077,5251 1176,5321 1250,5333 1341,5348 1375,5295 1457,5252 1499,5230 1541,5228 1570,5189 1598,5152 1599,5096 1629,5060 1683,4995 1761,4954 1835,4917 1885,4892 1939,4872 1994,4866 2042,4860 2094,4856 2138,4877 2174,4893 2220,4920 2224,4961 2230,5017 2171,5063 2131,5101 2074,5155 1997,5182 1928,5219 1896,5236 1864,5259 1829,5267 1769,5280 1705,5251 1646,5267 1593,5281 1546,5314 1502,5348 1461,5379 1422,5414 1395,5459 1376,5489 1380,5534 1357,5562 1283,5651 1061,5728 1061,5728 1061,5728 1305,5703 1395,5625 1428,5596 1427,5538 1453,5503 1477,5471 1503,5427 1536,5407 1571,5386 1618,5355 1656,5344 1711,5329 1764,5368 1818,5352 1932,5317 2067,5123 2149,5215 2189,5261 2138,5348 2104,5400 2080,5436 2021,5456 1987,5481 1907,5539 1801,5549 1722,5610 1670,5650 1584,5693 1591,5761 1600,5848 1550,5899 1478,5934 1427,5959 1416,6101 1416,6101 1416,6101 1517,5985 1567,5927 1626,5859 1624,5765 1694,5709 1769,5651 1935,5518 1994,5595 2035,5650 1914,5707 1877,5765 1838,5825 1791,5881 1767,5949 1748,6000 1748,6057 1743,6112 1763,6239 1741,6311 1794,6414 1794,6414 1792,6276 1798,6208 1805,6117 1802,6022 1835,5938 1864,5867 1918,5809 1970,5754 2008,5713 2066,5694 2097,5647 2128,5599 2118,5530 2145,5481 2179,5420 2228,5368 2283,5329 2314,5308 2350,5293 2386,5289 2476,5279 2564,5335 2655,5333 2707,5332 2778,5255 2809,5300 2854,5365 2751,5452 2703,5514 2631,5605 2503,5637 2441,5735 2377,5837 2398,5980 2345,6089 2328,6124 2308,6162 2276,6182 2220,6217 2140,6185 2083,6219 1997,6269 1884,6451 1884,6451 1953,6380 2012,6282 2107,6274 L 2073,6565 C 2066,6568 2102,6419 2166,6289 2200,6218 2308,6226 2359,6167 2394,6126 2403,6065 2427,6016 2458,5954 2486,5889 2527,5835 2542,5815 2556,5777 2579,5783 2640,5799 2604,5920 2644,5971 2666,6000 2714,5996 2734,6027 2747,6048 2750,6079 2744,6104 2728,6168 2698,6232 2665,6287 2635,6337 2561,6379 2563,6438 2567,6529 2606,6610 2655,6683 2723,6787 2782,6861 2782,6861 2782,6861 2662,6643 2658,6521 2656,6460 2663,6399 2692,6348 2719,6301 2795,6281 2820,6233 2845,6184 2858,6123 2851,6067 2840,5992 2731,5958 2711,5885 2702,5849 2733,5789 2744,5754 2763,5690 2816,5641 2864,5599 2893,5574 2924,5544 2961,5543 3012,5542 3058,5581 3099,5614 3141,5647 3183,5688 3205,5739 3226,5785 3229,5839 3226,5890 3220,6003 3238,6210 3138,6267 2958,6368 2895,6842 2895,6842 2895,6842 3032,6378 3179,6418 3313,6455 3149,6897 3149,6897 3149,6897 3234,6671 3265,6517 3281,6441 3231,6256 3264,6185 3288,6133 3293,6048 3346,6034 3418,6016 3482,6106 3532,6163 3569,6205 3601,6258 3611,6315 3623,6383 3592,6452 3584,6521 3568,6656 3546,6927 3546,6927 3546,6927 3585,6824 3565,6656 3561,6627 3658,6398 3649,6370 3628,6302 3656,6224 3635,6156 3619,6100 3575,6057 3549,6005 3531,5969 3524,5927 3501,5894 3475,5857 3427,5841 3405,5802 3371,5742 3354,5668 3357,5599 3361,5499 3358,5334 3450,5315 3550,5294 3581,5483 3653,5562 3718,5633 3786,5702 3859,5765 3892,5793 3938,5805 3962,5842 3987,5880 3998,5929 3997,5975 3995,6023 3967,6066 3952,6112 3931,6173 3862,6236 3887,6296 3952,6458 4070,6836 4055,6842 4055,6842 3988,6596 3990,6469 3991,6393 3948,6319 3966,6244 3985,6165 4078,6087 4100,6008 4109,5976 4099,5926 4128,5912 4196,5879 4270,5966 4334,6008 4374,6035 4416,6066 4443,6108 4476,6159 4482,6226 4502,6285 4525,6356 4525,6441 4571,6499 4618,6559 4763,6613 4763,6613 4763,6613 4609,6480 4567,6392 4524,6302 4565,6173 4512,6089 4468,6019 4365,6005 4327,5931 4313,5903 4295,5857 4317,5835 4385,5766 4516,5833 4595,5890 4641,5924 4685,5975 4729,6012 4798,6071 4902,6049 4935,6137 4995,6293 5286,6300 5286,6300 5286,6300 5024,6250 5063,6126 5113,5966 5452,6130 5452,6130 5452,6130 5157,5888 4901,6023 4841,6055 4786,5949 4729,5912 4656,5866 4596,5782 4512,5772 4392,5759 4260,5791 4159,5687 4100,5627 3983,5727 3914,5680 3869,5650 3858,5583 3842,5529 3825,5474 3779,5398 3818,5359 3895,5280 4027,5402 4131,5429 4241,5457 4346,5506 4457,5525 4559,5543 4664,5527 4767,5543 4824,5553 4883,5562 4935,5588 4996,5618 5036,5684 5097,5713 5204,5765 5325,5777 5441,5794 5577,5781 5683,5776 5830,5768 5830,5768 5566,5767 5438,5735 5365,5717 5257,5724 5190,5687 5124,5651 5041,5597 5042,5518 5043,5420 5127,5345 5207,5300 5284,5257 5425,5268 5510,5252 5589,5237 5676,5236 5751,5267 5780,5279 5801,5306 5823,5329 5892,5401 6013,5562 6013,5562 6013,5562 5788,5342 5858,5252 5900,5197 6047,5315 6047,5315 6047,5315 5928,5215 5858,5189 5781,5161 5715,5218 5634,5219 5531,5219 5411,5175 5310,5200 5172,5235 5047,5321 4908,5355 4811,5379 4700,5441 4601,5425 4467,5403 4330,5365 4220,5278 4198,5260 4173,5174 4183,5145 4245,4963 4537,5057 4718,5049 4830,5044 4941,5080 5052,5079 5169,5077 5283,5038 5400,5038 5500,5038 5603,5043 5696,5008 5773,4980 5845,4980 5933,5082 5983,5140 6191,5315 6191,5315 6191,5315 6013,5070 5926,5008 5865,4966 5783,4905 5717,4939 5592,5004 5479,5004 5372,4961 5301,4933 5224,5008 5149,5006 5090,5004 4980,5024 4977,4961 4968,4798 5272,4868 5407,4792 5520,4727 5635,4658 5761,4711 5831,4740 5912,4729 5985,4711 6151,4668 6318,4979 6315,4984 6315,4984 6198,4734 6119,4677 6092,4658 6056,4657 6023,4652 5943,4638 5861,4615 5782,4633 5679,4657 5578,4694 5483,4685 5354,4673 5229,4855 5052,4836 4992,4830 4945,4901 4887,4921 4755,4965 4615,4980 4478,4991 4337,5002 4193,5008 4052,4987 3979,4976 3899,4970 3838,4925 3786,4885 3756,4817 3728,4755 3708,4709 3684,4658 3690,4607 3699,4538 3753,4484 3790,4427 3840,4350 3897,4278 3955,4209 4009,4146 4055,4070 4124,4028 4233,3962 4365,3958 4488,3928 4684,3882 4880,3830 5080,3807 5159,3797 5238,3797 5317,3799 5406,3802 5495,3835 5582,3821 5650,3811 5713,3776 5775,3744 5951,3653 6278,3423 6278,3423 6278,3423 5840,3727 5589,3773 5466,3796 5342,3735 5218,3733 5081,3730 4944,3746 4808,3762 4629,3784 4443,3783 4276,3851 4111,3917 3959,4282 3832,4153 3728,4049 3946,3871 4038,3755 4146,3619 4281,3502 4429,3423 4549,3360 4686,3338 4818,3320 4978,3298 5140,3330 5300,3312 5421,3299 5537,3245 5658,3239 5752,3234 5846,3278 5940,3268 6035,3258 6212,3179 6212,3179 6212,3179 6046,3218 5961,3220 5867,3222 5775,3181 5682,3187 5587,3192 5498,3242 5403,3253 5267,3270 5128,3251 4990,3257 4831,3264 4668,3255 4512,3294 4422,3316 4334,3352 4255,3405 4143,3479 4051,3584 3959,3685 3922,3725 3896,3777 3856,3814 3845,3823 3833,3843 3821,3836 3765,3804 3794,3698 3811,3633 3844,3507 3932,3400 4021,3309 4125,3201 4258,3130 4385,3058 4477,3005 4581,2993 4681,2959 4772,2928 4858,2866 4953,2862 5120,2856 5452,2936 5452,2936 5452,2936 5273,2852 5180,2825 5118,2808 5054,2790 4990,2792 4813,2798 4558,3087 4471,2921 4427,2838 4624,2784 4627,2689 4648,2550 4917,2500 5051,2488 5145,2464 5241,2437 5338,2434 5388,2433 5439,2430 5489,2438 5589,2453 5782,2519 5782,2519 5782,2519 5665,2451 5603,2427 5543,2403 5478,2403 5415,2396 5334,2387 5254,2425 5173,2436 5083,2448 4892,2544 4908,2449 4924,2350 5599,2024 5596,2017 5596,2017 5064,2229 4911,2386 4845,2455 4745,2478 4677,2545 4608,2614 4570,2711 4509,2788 4474,2831 4441,2877 4398,2910 4332,2963 4250,2989 4176,3028 4110,3063 4039,3087 3980,3132 3911,3183 3860,3257 3797,3316 3731,3378 3670,3535 3591,3493 3536,3464 3571,3358 3594,3298 3631,3199 3725,3138 3797,3065 3868,2994 3951,2938 4021,2866 4131,2752 4229,2626 4327,2501 4404,2401 4465,2287 4550,2194 4633,2105 4723,2020 4825,1958 4935,1892 5180,1818 5180,1818 5180,1818 4891,1854 4763,1921 4660,1975 4577,2067 4495,2154 4415,2238 4381,2484 4282,2431 4186,2380 4326,2205 4355,2095 4375,2014 4394,1931 4426,1855 4456,1783 4494,1714 4540,1652 4600,1569 4746,1427 4746,1427 4746,1427 4562,1574 4484,1663 4440,1714 4399,1771 4367,1833 4327,1915 4304,2006 4279,2095 4248,2203 4242,2318 4203,2423 4173,2506 4133,2585 4083,2656 4027,2735 3956,2801 3887,2866 3856,2894 3822,2970 3790,2943 3708,2874 3896,2744 3914,2633 3931,2533 3893,2429 3900,2327 3904,2270 3936,2215 3931,2158 3928,2112 3887,2074 3887,2028 3886,1982 3907,1936 3928,1896 3995,1768 4125,1687 4193,1560 4235,1481 4279,1302 4279,1302 4279,1302 4187,1522 4114,1611 4072,1663 4004,1686 3962,1737 3904,1809 3852,1892 3828,1984 3798,2098 3852,2225 3821,2338 3816,2356 3811,2386 3794,2386 3702,2385 3703,2214 3653,2132 3593,2034 3510,1952 3460,1848 3426,1777 3402,1701 3391,1623 3375,1501 3401,1254 3401,1254 3401,1254 3349,1444 3350,1541 3351,1623 3369,1706 3398,1781 3450,1916 3555,2021 3618,2150 3675,2268 3720,2393 3759,2519 3774,2565 3795,2611 3794,2659 3792,2733 3761,2803 3732,2870 3705,2930 3665,2982 3629,3036 3604,3071 3586,3117 3549,3139 3520,3156 3481,3166 3450,3154 3390,3131 3360,3057 3319,3006 3290,2970 3249,2941 3236,2895 3211,2804 3256,2706 3264,2611 3273,2500 3304,2386 3288,2276 3269,2147 3211,2027 3150,1914 3140,1895 3124,1880 3112,1862 3066,1795 3018,1728 2978,1656 2957,1619 2939,1581 2923,1541 2891,1462 2844,1298 2844,1298 2844,1298 2882,1557 2933,1674 2970,1758 3042,1819 3085,1899 3111,1948 3134,2000 3150,2054 3173,2129 3194,2208 3195,2287 3196,2368 3177,2448 3157,2526 3144,2577 3151,2668 3102,2674 2995,2688 2968,2493 2913,2394 2875,2326 2850,2250 2816,2180 2771,2086 2733,1986 2672,1903 2627,1843 2562,1804 2513,1748 2464,1690 2425,1622 2379,1560 2314,1470 2180,1294 2180,1294 2180,1294 2332,1589 2427,1722 2484,1801 2562,1861 2620,1940 2649,1979 2675,2021 2696,2065 2726,2131 2745,2202 2765,2272 2769,2286 2786,2306 2775,2316 2700,2383 2601,2222 2510,2187 2440,2160 2365,2146 2293,2124 2232,2106 2166,2098 2111,2065 1986,1992 1787,1766 1787,1766 1787,1766 1967,1990 2080,2073 2156,2128 2246,2157 2331,2194 2410,2229 2494,2253 2572,2290 2623,2314 2673,2340 2720,2372 2773,2407 2828,2444 2871,2493 2921,2550 2952,2622 2988,2689 3045,2793 3105,2896 3143,3010 3167,3080 3224,3164 3188,3227 3179,3244 3154,3243 3136,3242 3075,3240 3018,3204 2961,3179 2922,3163 2881,3150 2847,3124 2776,3070 2719,2995 2665,2921 2610,2847 2595,2733 2520,2681 2457,2637 2371,2658 2297,2645 2217,2630 2136,2623 2059,2597 1996,2574 1932,2548 1880,2504 1818,2452 1778,2375 1729,2309 1648,2200 1491,1977 1491,1977 1491,1977 1678,2371 1825,2519 1869,2563 1989,2552 1980,2615 1970,2689 1846,2655 1777,2667 1702,2679 1626,2688 1550,2685 1512,2684 1474,2674 1436,2667 1316,2645 1191,2641 1078,2593 1044,2578 985,2530 985,2530 985,2530 1244,2697 1388,2737 1473,2760 1562,2754 1650,2752 1761,2749 1872,2729 1983,2715 2052,2706 2121,2679 2190,2685 2240,2690 2289,2709 2334,2733 2374,2755 2407,2788 2441,2818 2524,2891 2606,2966 2679,3050 2730,3110 2765,3183 2816,3242 2854,3286 2899,3323 2940,3364 2961,3385 3009,3397 3002,3427 2993,3462 2936,3447 2902,3453 2831,3465 2758,3471 2686,3471 2596,3471 2505,3466 2417,3449 2335,3432 2251,3411 2176,3371 2111,3337 2055,3286 2001,3235 1923,3161 1787,2991 1787,2991 1787,2991 1946,3258 2056,3360 2094,3396 2203,3391 2186,3441 2145,3565 1940,3423 1825,3379 1700,3331 1554,3262 1440,3191 1393,3161 1394,3083 1340,3076 1125,3048 813,2940 813,2940 813,2940 1170,3041 1323,3124 1385,3158 1413,3208 1471,3250 1519,3285 1578,3295 1629,3327 1691,3367 1740,3439 1808,3464 1954,3516 2113,3513 2266,3537 2341,3550 2417,3560 2493,3574 2593,3593 2701,3590 2792,3637 2819,3651 2847,3671 2861,3700 2886,3751 2882,3815 2878,3873 2875,3922 2884,3988 2847,4017 2716,4119 2524,3977 2362,3969 2242,3963 2121,3972 2001,3969 1925,3967 1847,3979 1773,3958 1659,3925 1542,3873 1457,3785 1401,3727 1397,3626 1343,3567 1261,3477 1150,3419 1040,3375 948,3338 748,3316 748,3316 748,3316 1007,3380 1116,3456 1194,3511 1243,3603 1309,3674 1378,3747 1443,3827 1522,3888 1595,3945 1673,4001 1760,4028 1884,4067 2019,4045 2149,4058 2276,4070 2407,4069 2531,4106 2608,4129 2682,4168 2751,4213 2804,4247 2859,4283 2899,4334 2941,4389 2980,4455 2988,4526 Z"/>
       </g>
      </g>
      <g class="com.sun.star.drawing.ClosedBezierShape">
       <g id="id64">
        <rect class="BoundingBox" stroke="none" fill="none" x="522" y="1248" width="5814" height="5816"/>
        <path fill="none" stroke="rgb(0,0,0)" stroke-width="39" stroke-linejoin="miter" d="M 2988,4526 C 3006,4681 3020,4902 2895,4984 2802,5044 2680,4939 2579,4895 2504,4863 2445,4796 2369,4770 2253,4730 2127,4708 2008,4729 1945,4740 1898,4805 1835,4814 1794,4820 1753,4788 1712,4792 1663,4796 1619,4820 1574,4840 1524,4862 1481,4900 1429,4917 1373,4936 1312,4932 1254,4943 1202,4953 1152,4982 1099,4980 1058,4978 1021,4957 982,4943 933,4926 888,4892 837,4888 760,4881 607,4932 607,4932 607,4932 755,4953 827,4973 916,4997 1007,5039 1099,5038 1216,5037 1291,4942 1450,4984 1489,4994 1554,4948 1570,4987 1602,5065 1473,5184 1405,5230 1336,5277 1256,5263 1175,5252 1122,5245 1088,5184 1037,5167 969,5144 944,5151 875,5171 840,5181 734,5215 734,5215 734,5215 798,5214 830,5215 889,5217 950,5207 1006,5226 1077,5251 1176,5321 1250,5333 1341,5348 1375,5295 1457,5252 1499,5230 1541,5228 1570,5189 1598,5152 1599,5096 1629,5060 1683,4995 1761,4954 1835,4917 1885,4892 1939,4872 1994,4866 2042,4860 2094,4856 2138,4877 2174,4893 2220,4920 2224,4961 2230,5017 2171,5063 2131,5101 2074,5155 1997,5182 1928,5219 1896,5236 1864,5259 1829,5267 1769,5280 1705,5251 1646,5267 1593,5281 1546,5314 1502,5348 1461,5379 1422,5414 1395,5459 1376,5489 1380,5534 1357,5562 1283,5651 1061,5728 1061,5728 1061,5728 1305,5703 1395,5625 1428,5596 1427,5538 1453,5503 1477,5471 1503,5427 1536,5407 1571,5386 1618,5355 1656,5344 1711,5329 1764,5368 1818,5352 1932,5317 2067,5123 2149,5215 2189,5261 2138,5348 2104,5400 2080,5436 2021,5456 1987,5481 1907,5539 1801,5549 1722,5610 1670,5650 1584,5693 1591,5761 1600,5848 1550,5899 1478,5934 1427,5959 1416,6101 1416,6101 1416,6101 1517,5985 1567,5927 1626,5859 1624,5765 1694,5709 1769,5651 1935,5518 1994,5595 2035,5650 1914,5707 1877,5765 1838,5825 1791,5881 1767,5949 1748,6000 1748,6057 1743,6112 1763,6239 1741,6311 1794,6414 1794,6414 1792,6276 1798,6208 1805,6117 1802,6022 1835,5938 1864,5867 1918,5809 1970,5754 2008,5713 2066,5694 2097,5647 2128,5599 2118,5530 2145,5481 2179,5420 2228,5368 2283,5329 2314,5308 2350,5293 2386,5289 2476,5279 2564,5335 2655,5333 2707,5332 2778,5255 2809,5300 2854,5365 2751,5452 2703,5514 2631,5605 2503,5637 2441,5735 2377,5837 2398,5980 2345,6089 2328,6124 2308,6162 2276,6182 2220,6217 2140,6185 2083,6219 1997,6269 1884,6451 1884,6451 1953,6380 2012,6282 2107,6274 L 2073,6565 C 2066,6568 2102,6419 2166,6289 2200,6218 2308,6226 2359,6167 2394,6126 2403,6065 2427,6016 2458,5954 2486,5889 2527,5835 2542,5815 2556,5777 2579,5783 2640,5799 2604,5920 2644,5971 2666,6000 2714,5996 2734,6027 2747,6048 2750,6079 2744,6104 2728,6168 2698,6232 2665,6287 2635,6337 2561,6379 2563,6438 2567,6529 2606,6610 2655,6683 2723,6787 2782,6861 2782,6861 2782,6861 2662,6643 2658,6521 2656,6460 2663,6399 2692,6348 2719,6301 2795,6281 2820,6233 2845,6184 2858,6123 2851,6067 2840,5992 2731,5958 2711,5885 2702,5849 2733,5789 2744,5754 2763,5690 2816,5641 2864,5599 2893,5574 2924,5544 2961,5543 3012,5542 3058,5581 3099,5614 3141,5647 3183,5688 3205,5739 3226,5785 3229,5839 3226,5890 3220,6003 3238,6210 3138,6267 2958,6368 2895,6842 2895,6842 2895,6842 3032,6378 3179,6418 3313,6455 3149,6897 3149,6897 3149,6897 3234,6671 3265,6517 3281,6441 3231,6256 3264,6185 3288,6133 3293,6048 3346,6034 3418,6016 3482,6106 3532,6163 3569,6205 3601,6258 3611,6315 3623,6383 3592,6452 3584,6521 3568,6656 3546,6927 3546,6927 3546,6927 3585,6824 3565,6656 3561,6627 3658,6398 3649,6370 3628,6302 3656,6224 3635,6156 3619,6100 3575,6057 3549,6005 3531,5969 3524,5927 3501,5894 3475,5857 3427,5841 3405,5802 3371,5742 3354,5668 3357,5599 3361,5499 3358,5334 3450,5315 3550,5294 3581,5483 3653,5562 3718,5633 3786,5702 3859,5765 3892,5793 3938,5805 3962,5842 3987,5880 3998,5929 3997,5975 3995,6023 3967,6066 3952,6112 3931,6173 3862,6236 3887,6296 3952,6458 4070,6836 4055,6842 4055,6842 3988,6596 3990,6469 3991,6393 3948,6319 3966,6244 3985,6165 4078,6087 4100,6008 4109,5976 4099,5926 4128,5912 4196,5879 4270,5966 4334,6008 4374,6035 4416,6066 4443,6108 4476,6159 4482,6226 4502,6285 4525,6356 4525,6441 4571,6499 4618,6559 4763,6613 4763,6613 4763,6613 4609,6480 4567,6392 4524,6302 4565,6173 4512,6089 4468,6019 4365,6005 4327,5931 4313,5903 4295,5857 4317,5835 4385,5766 4516,5833 4595,5890 4641,5924 4685,5975 4729,6012 4798,6071 4902,6049 4935,6137 4995,6293 5286,6300 5286,6300 5286,6300 5024,6250 5063,6126 5113,5966 5452,6130 5452,6130 5452,6130 5157,5888 4901,6023 4841,6055 4786,5949 4729,5912 4656,5866 4596,5782 4512,5772 4392,5759 4260,5791 4159,5687 4100,5627 3983,5727 3914,5680 3869,5650 3858,5583 3842,5529 3825,5474 3779,5398 3818,5359 3895,5280 4027,5402 4131,5429 4241,5457 4346,5506 4457,5525 4559,5543 4664,5527 4767,5543 4824,5553 4883,5562 4935,5588 4996,5618 5036,5684 5097,5713 5204,5765 5325,5777 5441,5794 5577,5781 5683,5776 5830,5768 5830,5768 5566,5767 5438,5735 5365,5717 5257,5724 5190,5687 5124,5651 5041,5597 5042,5518 5043,5420 5127,5345 5207,5300 5284,5257 5425,5268 5510,5252 5589,5237 5676,5236 5751,5267 5780,5279 5801,5306 5823,5329 5892,5401 6013,5562 6013,5562 6013,5562 5788,5342 5858,5252 5900,5197 6047,5315 6047,5315 6047,5315 5928,5215 5858,5189 5781,5161 5715,5218 5634,5219 5531,5219 5411,5175 5310,5200 5172,5235 5047,5321 4908,5355 4811,5379 4700,5441 4601,5425 4467,5403 4330,5365 4220,5278 4198,5260 4173,5174 4183,5145 4245,4963 4537,5057 4718,5049 4830,5044 4941,5080 5052,5079 5169,5077 5283,5038 5400,5038 5500,5038 5603,5043 5696,5008 5773,4980 5845,4980 5933,5082 5983,5140 6191,5315 6191,5315 6191,5315 6013,5070 5926,5008 5865,4966 5783,4905 5717,4939 5592,5004 5479,5004 5372,4961 5301,4933 5224,5008 5149,5006 5090,5004 4980,5024 4977,4961 4968,4798 5272,4868 5407,4792 5520,4727 5635,4658 5761,4711 5831,4740 5912,4729 5985,4711 6151,4668 6318,4979 6315,4984 6315,4984 6198,4734 6119,4677 6092,4658 6056,4657 6023,4652 5943,4638 5861,4615 5782,4633 5679,4657 5578,4694 5483,4685 5354,4673 5229,4855 5052,4836 4992,4830 4945,4901 4887,4921 4755,4965 4615,4980 4478,4991 4337,5002 4193,5008 4052,4987 3979,4976 3899,4970 3838,4925 3786,4885 3756,4817 3728,4755 3708,4709 3684,4658 3690,4607 3699,4538 3753,4484 3790,4427 3840,4350 3897,4278 3955,4209 4009,4146 4055,4070 4124,4028 4233,3962 4365,3958 4488,3928 4684,3882 4880,3830 5080,3807 5159,3797 5238,3797 5317,3799 5406,3802 5495,3835 5582,3821 5650,3811 5713,3776 5775,3744 5951,3653 6278,3423 6278,3423 6278,3423 5840,3727 5589,3773 5466,3796 5342,3735 5218,3733 5081,3730 4944,3746 4808,3762 4629,3784 4443,3783 4276,3851 4111,3917 3959,4282 3832,4153 3728,4049 3946,3871 4038,3755 4146,3619 4281,3502 4429,3423 4549,3360 4686,3338 4818,3320 4978,3298 5140,3330 5300,3312 5421,3299 5537,3245 5658,3239 5752,3234 5846,3278 5940,3268 6035,3258 6212,3179 6212,3179 6212,3179 6046,3218 5961,3220 5867,3222 5775,3181 5682,3187 5587,3192 5498,3242 5403,3253 5267,3270 5128,3251 4990,3257 4831,3264 4668,3255 4512,3294 4422,3316 4334,3352 4255,3405 4143,3479 4051,3584 3959,3685 3922,3725 3896,3777 3856,3814 3845,3823 3833,3843 3821,3836 3765,3804 3794,3698 3811,3633 3844,3507 3932,3400 4021,3309 4125,3201 4258,3130 4385,3058 4477,3005 4581,2993 4681,2959 4772,2928 4858,2866 4953,2862 5120,2856 5452,2936 5452,2936 5452,2936 5273,2852 5180,2825 5118,2808 5054,2790 4990,2792 4813,2798 4558,3087 4471,2921 4427,2838 4624,2784 4627,2689 4648,2550 4917,2500 5051,2488 5145,2464 5241,2437 5338,2434 5388,2433 5439,2430 5489,2438 5589,2453 5782,2519 5782,2519 5782,2519 5665,2451 5603,2427 5543,2403 5478,2403 5415,2396 5334,2387 5254,2425 5173,2436 5083,2448 4892,2544 4908,2449 4924,2350 5599,2024 5596,2017 5596,2017 5064,2229 4911,2386 4845,2455 4745,2478 4677,2545 4608,2614 4570,2711 4509,2788 4474,2831 4441,2877 4398,2910 4332,2963 4250,2989 4176,3028 4110,3063 4039,3087 3980,3132 3911,3183 3860,3257 3797,3316 3731,3378 3670,3535 3591,3493 3536,3464 3571,3358 3594,3298 3631,3199 3725,3138 3797,3065 3868,2994 3951,2938 4021,2866 4131,2752 4229,2626 4327,2501 4404,2401 4465,2287 4550,2194 4633,2105 4723,2020 4825,1958 4935,1892 5180,1818 5180,1818 5180,1818 4891,1854 4763,1921 4660,1975 4577,2067 4495,2154 4415,2238 4381,2484 4282,2431 4186,2380 4326,2205 4355,2095 4375,2014 4394,1931 4426,1855 4456,1783 4494,1714 4540,1652 4600,1569 4746,1427 4746,1427 4746,1427 4562,1574 4484,1663 4440,1714 4399,1771 4367,1833 4327,1915 4304,2006 4279,2095 4248,2203 4242,2318 4203,2423 4173,2506 4133,2585 4083,2656 4027,2735 3956,2801 3887,2866 3856,2894 3822,2970 3790,2943 3708,2874 3896,2744 3914,2633 3931,2533 3893,2429 3900,2327 3904,2270 3936,2215 3931,2158 3928,2112 3887,2074 3887,2028 3886,1982 3907,1936 3928,1896 3995,1768 4125,1687 4193,1560 4235,1481 4279,1302 4279,1302 4279,1302 4187,1522 4114,1611 4072,1663 4004,1686 3962,1737 3904,1809 3852,1892 3828,1984 3798,2098 3852,2225 3821,2338 3816,2356 3811,2386 3794,2386 3702,2385 3703,2214 3653,2132 3593,2034 3510,1952 3460,1848 3426,1777 3402,1701 3391,1623 3375,1501 3401,1254 3401,1254 3401,1254 3349,1444 3350,1541 3351,1623 3369,1706 3398,1781 3450,1916 3555,2021 3618,2150 3675,2268 3720,2393 3759,2519 3774,2565 3795,2611 3794,2659 3792,2733 3761,2803 3732,2870 3705,2930 3665,2982 3629,3036 3604,3071 3586,3117 3549,3139 3520,3156 3481,3166 3450,3154 3390,3131 3360,3057 3319,3006 3290,2970 3249,2941 3236,2895 3211,2804 3256,2706 3264,2611 3273,2500 3304,2386 3288,2276 3269,2147 3211,2027 3150,1914 3140,1895 3124,1880 3112,1862 3066,1795 3018,1728 2978,1656 2957,1619 2939,1581 2923,1541 2891,1462 2844,1298 2844,1298 2844,1298 2882,1557 2933,1674 2970,1758 3042,1819 3085,1899 3111,1948 3134,2000 3150,2054 3173,2129 3194,2208 3195,2287 3196,2368 3177,2448 3157,2526 3144,2577 3151,2668 3102,2674 2995,2688 2968,2493 2913,2394 2875,2326 2850,2250 2816,2180 2771,2086 2733,1986 2672,1903 2627,1843 2562,1804 2513,1748 2464,1690 2425,1622 2379,1560 2314,1470 2180,1294 2180,1294 2180,1294 2332,1589 2427,1722 2484,1801 2562,1861 2620,1940 2649,1979 2675,2021 2696,2065 2726,2131 2745,2202 2765,2272 2769,2286 2786,2306 2775,2316 2700,2383 2601,2222 2510,2187 2440,2160 2365,2146 2293,2124 2232,2106 2166,2098 2111,2065 1986,1992 1787,1766 1787,1766 1787,1766 1967,1990 2080,2073 2156,2128 2246,2157 2331,2194 2410,2229 2494,2253 2572,2290 2623,2314 2673,2340 2720,2372 2773,2407 2828,2444 2871,2493 2921,2550 2952,2622 2988,2689 3045,2793 3105,2896 3143,3010 3167,3080 3224,3164 3188,3227 3179,3244 3154,3243 3136,3242 3075,3240 3018,3204 2961,3179 2922,3163 2881,3150 2847,3124 2776,3070 2719,2995 2665,2921 2610,2847 2595,2733 2520,2681 2457,2637 2371,2658 2297,2645 2217,2630 2136,2623 2059,2597 1996,2574 1932,2548 1880,2504 1818,2452 1778,2375 1729,2309 1648,2200 1491,1977 1491,1977 1491,1977 1678,2371 1825,2519 1869,2563 1989,2552 1980,2615 1970,2689 1846,2655 1777,2667 1702,2679 1626,2688 1550,2685 1512,2684 1474,2674 1436,2667 1316,2645 1191,2641 1078,2593 1044,2578 985,2530 985,2530 985,2530 1244,2697 1388,2737 1473,2760 1562,2754 1650,2752 1761,2749 1872,2729 1983,2715 2052,2706 2121,2679 2190,2685 2240,2690 2289,2709 2334,2733 2374,2755 2407,2788 2441,2818 2524,2891 2606,2966 2679,3050 2730,3110 2765,3183 2816,3242 2854,3286 2899,3323 2940,3364 2961,3385 3009,3397 3002,3427 2993,3462 2936,3447 2902,3453 2831,3465 2758,3471 2686,3471 2596,3471 2505,3466 2417,3449 2335,3432 2251,3411 2176,3371 2111,3337 2055,3286 2001,3235 1923,3161 1787,2991 1787,2991 1787,2991 1946,3258 2056,3360 2094,3396 2203,3391 2186,3441 2145,3565 1940,3423 1825,3379 1700,3331 1554,3262 1440,3191 1393,3161 1394,3083 1340,3076 1125,3048 813,2940 813,2940 813,2940 1170,3041 1323,3124 1385,3158 1413,3208 1471,3250 1519,3285 1578,3295 1629,3327 1691,3367 1740,3439 1808,3464 1954,3516 2113,3513 2266,3537 2341,3550 2417,3560 2493,3574 2593,3593 2701,3590 2792,3637 2819,3651 2847,3671 2861,3700 2886,3751 2882,3815 2878,3873 2875,3922 2884,3988 2847,4017 2716,4119 2524,3977 2362,3969 2242,3963 2121,3972 2001,3969 1925,3967 1847,3979 1773,3958 1659,3925 1542,3873 1457,3785 1401,3727 1397,3626 1343,3567 1261,3477 1150,3419 1040,3375 948,3338 748,3316 748,3316 748,3316 1007,3380 1116,3456 1194,3511 1243,3603 1309,3674 1378,3747 1443,3827 1522,3888 1595,3945 1673,4001 1760,4028 1884,4067 2019,4045 2149,4058 2276,4070 2407,4069 2531,4106 2608,4129 2682,4168 2751,4213 2804,4247 2859,4283 2899,4334 2941,4389 2980,4455 2988,4526 Z"/>
       </g>
      </g>
      <g class="com.sun.star.drawing.ClosedBezierShape">
       <g id="id65">
        <rect class="BoundingBox" stroke="none" fill="none" x="5790" y="3724" width="319" height="336"/>
        <path fill="none" stroke="rgb(0,0,0)" stroke-width="39" stroke-linejoin="miter" d="M 5813,3747 C 5813,3747 5994,3769 6049,3836 6091,3887 6088,4037 6088,4037 6088,4037 5937,4021 5886,3969 5833,3914 5813,3747 5813,3747 Z"/>
       </g>
      </g>
      <g class="com.sun.star.drawing.ClosedBezierShape">
       <g id="id66">
        <rect class="BoundingBox" stroke="none" fill="none" x="5723" y="3317" width="210" height="414"/>
        <path fill="none" stroke="rgb(0,0,0)" stroke-width="39" stroke-linejoin="miter" d="M 5902,3349 C 5902,3349 5923,3466 5904,3518 5877,3593 5751,3693 5751,3693 5751,3693 5729,3543 5758,3479 5786,3419 5902,3349 5902,3349 Z"/>
       </g>
      </g>
      <g class="com.sun.star.drawing.ClosedBezierShape">
       <g id="id67">
        <rect class="BoundingBox" stroke="none" fill="none" x="5379" y="3277" width="257" height="257"/>
        <path fill="none" stroke="rgb(0,0,0)" stroke-width="39" stroke-linejoin="miter" d="M 5610,3500 C 5610,3500 5515,3457 5478,3419 5447,3386 5410,3299 5410,3299 5410,3299 5517,3305 5554,3341 5593,3379 5610,3500 5610,3500 Z"/>
       </g>
      </g>
      <g class="com.sun.star.drawing.ClosedBezierShape">
       <g id="id68">
        <rect class="BoundingBox" stroke="none" fill="none" x="5197" y="3432" width="191" height="343"/>
        <path fill="none" stroke="rgb(0,0,0)" stroke-width="39" stroke-linejoin="miter" d="M 5313,3463 C 5313,3463 5378,3571 5366,3628 5356,3681 5262,3745 5262,3745 5262,3745 5210,3648 5218,3597 5227,3542 5313,3463 5313,3463 Z"/>
       </g>
      </g>
      <g class="com.sun.star.drawing.ClosedBezierShape">
       <g id="id69">
        <rect class="BoundingBox" stroke="none" fill="none" x="4536" y="3450" width="202" height="355"/>
        <path fill="none" stroke="rgb(0,0,0)" stroke-width="39" stroke-linejoin="miter" d="M 4701,3477 C 4701,3477 4727,3573 4713,3617 4693,3683 4584,3771 4584,3771 4584,3771 4539,3635 4564,3576 4587,3522 4701,3477 4701,3477 Z"/>
       </g>
      </g>
      <g class="com.sun.star.drawing.ClosedBezierShape">
       <g id="id70">
        <rect class="BoundingBox" stroke="none" fill="none" x="4822" y="3283" width="287" height="290"/>
        <path fill="none" stroke="rgb(0,0,0)" stroke-width="39" stroke-linejoin="miter" d="M 5083,3547 C 5083,3547 5061,3437 5027,3399 4981,3348 4846,3310 4846,3310 4846,3310 4864,3430 4901,3471 4947,3521 5083,3547 5083,3547 Z"/>
       </g>
      </g>
      <g class="com.sun.star.drawing.ClosedBezierShape">
       <g id="id71">
        <rect class="BoundingBox" stroke="none" fill="none" x="4459" y="2983" width="199" height="372"/>
        <path fill="none" stroke="rgb(0,0,0)" stroke-width="39" stroke-linejoin="miter" d="M 4636,3019 C 4636,3019 4634,3144 4607,3196 4579,3249 4481,3318 4481,3318 4481,3318 4471,3200 4495,3150 4523,3091 4636,3019 4636,3019 Z"/>
       </g>
      </g>
      <g class="com.sun.star.drawing.ClosedBezierShape">
       <g id="id72">
        <rect class="BoundingBox" stroke="none" fill="none" x="5655" y="2839" width="299" height="371"/>
        <path fill="none" stroke="rgb(0,0,0)" stroke-width="39" stroke-linejoin="miter" d="M 5926,2866 C 5926,2866 5890,3016 5844,3072 5801,3125 5675,3179 5675,3179 5675,3179 5677,3022 5720,2965 5768,2903 5926,2866 5926,2866 Z"/>
       </g>
      </g>
      <g class="com.sun.star.drawing.ClosedBezierShape">
       <g id="id73">
        <rect class="BoundingBox" stroke="none" fill="none" x="5180" y="2856" width="202" height="373"/>
        <path fill="none" stroke="rgb(0,0,0)" stroke-width="39" stroke-linejoin="miter" d="M 5200,3198 C 5200,3198 5200,3095 5221,3050 5250,2987 5359,2899 5359,2899 5359,2899 5350,3064 5307,3128 5282,3164 5200,3198 5200,3198 Z"/>
       </g>
      </g>
      <g class="com.sun.star.drawing.ClosedBezierShape">
       <g id="id74">
        <rect class="BoundingBox" stroke="none" fill="none" x="5296" y="2807" width="310" height="210"/>
        <path fill="none" stroke="rgb(0,0,0)" stroke-width="39" stroke-linejoin="miter" d="M 5578,2882 C 5578,2882 5502,2825 5459,2827 5407,2830 5323,2908 5323,2908 5323,2908 5399,3000 5449,2996 5505,2993 5578,2882 5578,2882 Z"/>
       </g>
      </g>
      <g class="com.sun.star.drawing.ClosedBezierShape">
       <g id="id75">
        <rect class="BoundingBox" stroke="none" fill="none" x="4857" y="2843" width="174" height="256"/>
        <path fill="none" stroke="rgb(0,0,0)" stroke-width="39" stroke-linejoin="miter" d="M 5006,3070 C 5006,3070 5019,2974 4997,2936 4972,2896 4877,2869 4877,2869 4877,2869 4874,2963 4897,2999 4921,3037 5006,3070 5006,3070 Z"/>
       </g>
      </g>
      <g class="com.sun.star.drawing.ClosedBezierShape">
       <g id="id76">
        <rect class="BoundingBox" stroke="none" fill="none" x="5083" y="2538" width="262" height="299"/>
        <path fill="none" stroke="rgb(0,0,0)" stroke-width="39" stroke-linejoin="miter" d="M 5318,2563 C 5318,2563 5293,2674 5259,2715 5221,2762 5106,2806 5106,2806 5106,2806 5120,2674 5160,2629 5198,2585 5318,2563 5318,2563 Z"/>
       </g>
      </g>
      <g class="com.sun.star.drawing.ClosedBezierShape">
       <g id="id77">
        <rect class="BoundingBox" stroke="none" fill="none" x="5351" y="2419" width="284" height="328"/>
        <path fill="none" stroke="rgb(0,0,0)" stroke-width="39" stroke-linejoin="miter" d="M 5610,2712 C 5610,2712 5515,2651 5478,2608 5438,2560 5384,2443 5384,2443 5384,2443 5545,2462 5590,2524 5627,2574 5610,2712 5610,2712 Z"/>
       </g>
      </g>
      <g class="com.sun.star.drawing.ClosedBezierShape">
       <g id="id78">
        <rect class="BoundingBox" stroke="none" fill="none" x="5726" y="2429" width="423" height="213"/>
        <path fill="none" stroke="rgb(0,0,0)" stroke-width="39" stroke-linejoin="miter" d="M 6114,2529 C 6114,2529 5999,2452 5933,2449 5872,2446 5758,2509 5758,2509 5758,2509 5855,2615 5919,2621 5989,2627 6114,2529 6114,2529 Z"/>
       </g>
      </g>
      <g class="com.sun.star.drawing.ClosedBezierShape">
       <g id="id79">
        <rect class="BoundingBox" stroke="none" fill="none" x="4236" y="2616" width="191" height="391"/>
        <path fill="none" stroke="rgb(0,0,0)" stroke-width="39" stroke-linejoin="miter" d="M 4388,2644 C 4388,2644 4412,2744 4405,2793 4396,2856 4332,2968 4332,2968 4332,2968 4239,2825 4259,2751 4274,2695 4388,2644 4388,2644 Z"/>
       </g>
      </g>
      <g class="com.sun.star.drawing.ClosedBezierShape">
       <g id="id80">
        <rect class="BoundingBox" stroke="none" fill="none" x="5531" y="2088" width="280" height="334"/>
        <path fill="none" stroke="rgb(0,0,0)" stroke-width="39" stroke-linejoin="miter" d="M 5787,2120 C 5787,2120 5672,2171 5632,2219 5592,2266 5559,2391 5559,2391 5559,2391 5698,2346 5741,2289 5776,2244 5787,2120 5787,2120 Z"/>
       </g>
      </g>
      <g class="com.sun.star.drawing.ClosedBezierShape">
       <g id="id81">
        <rect class="BoundingBox" stroke="none" fill="none" x="4779" y="2129" width="128" height="372"/>
        <path fill="none" stroke="rgb(0,0,0)" stroke-width="39" stroke-linejoin="miter" d="M 4860,2175 C 4860,2175 4805,2266 4799,2318 4795,2363 4824,2451 4824,2451 4824,2451 4880,2351 4885,2295 4888,2254 4860,2175 4860,2175 Z"/>
       </g>
      </g>
      <g class="com.sun.star.drawing.ClosedBezierShape">
       <g id="id82">
        <rect class="BoundingBox" stroke="none" fill="none" x="4348" y="2332" width="398" height="198"/>
        <path fill="none" stroke="rgb(0,0,0)" stroke-width="39" stroke-linejoin="miter" d="M 4712,2364 C 4712,2364 4611,2345 4561,2354 4498,2364 4383,2429 4383,2429 4383,2429 4493,2517 4554,2508 4622,2497 4712,2364 4712,2364 Z"/>
       </g>
      </g>
      <g class="com.sun.star.drawing.ClosedBezierShape">
       <g id="id83">
        <rect class="BoundingBox" stroke="none" fill="none" x="4733" y="1958" width="574" height="204"/>
        <path fill="none" stroke="rgb(0,0,0)" stroke-width="39" stroke-linejoin="miter" d="M 5264,2016 C 5264,2016 5121,1983 5048,1979 4958,1974 4778,1995 4778,1995 4778,1995 4935,2139 5031,2141 5118,2142 5264,2016 5264,2016 Z"/>
       </g>
      </g>
      <g class="com.sun.star.drawing.ClosedBezierShape">
       <g id="id84">
        <rect class="BoundingBox" stroke="none" fill="none" x="4928" y="1466" width="144" height="433"/>
        <path fill="none" stroke="rgb(0,0,0)" stroke-width="39" stroke-linejoin="miter" d="M 5021,1512 C 5021,1512 4959,1610 4950,1666 4941,1726 4970,1849 4970,1849 4970,1849 5042,1738 5050,1674 5057,1619 5021,1512 5021,1512 Z"/>
       </g>
      </g>
      <g class="com.sun.star.drawing.ClosedBezierShape">
       <g id="id85">
        <rect class="BoundingBox" stroke="none" fill="none" x="4493" y="1594" width="418" height="164"/>
        <path fill="none" stroke="rgb(0,0,0)" stroke-width="39" stroke-linejoin="miter" d="M 4870,1709 C 4870,1709 4782,1632 4729,1618 4666,1602 4534,1634 4534,1634 4534,1634 4629,1719 4688,1733 4747,1747 4870,1709 4870,1709 Z"/>
       </g>
      </g>
      <g class="com.sun.star.drawing.ClosedBezierShape">
       <g id="id86">
        <rect class="BoundingBox" stroke="none" fill="none" x="4488" y="1759" width="144" height="406"/>
        <path fill="none" stroke="rgb(0,0,0)" stroke-width="39" stroke-linejoin="miter" d="M 4608,1802 C 4608,1802 4539,1869 4523,1914 4500,1975 4511,2112 4511,2112 4511,2112 4586,2016 4603,1958 4618,1908 4608,1802 4608,1802 Z"/>
       </g>
      </g>
      <g class="com.sun.star.drawing.ClosedBezierShape">
       <g id="id87">
        <rect class="BoundingBox" stroke="none" fill="none" x="3969" y="2150" width="224" height="596"/>
        <path fill="none" stroke="rgb(0,0,0)" stroke-width="39" stroke-linejoin="miter" d="M 4067,2188 C 4067,2188 3990,2348 3989,2436 3988,2528 4065,2702 4065,2702 4065,2702 4177,2512 4172,2407 4168,2325 4067,2188 4067,2188 Z"/>
       </g>
      </g>
      <g class="com.sun.star.drawing.ClosedBezierShape">
       <g id="id88">
        <rect class="BoundingBox" stroke="none" fill="none" x="4402" y="1213" width="197" height="461"/>
        <path fill="none" stroke="rgb(0,0,0)" stroke-width="39" stroke-linejoin="miter" d="M 4576,1416 C 4560,1346 4449,1249 4449,1249 4449,1249 4411,1385 4425,1452 4439,1522 4529,1635 4529,1635 4529,1635 4591,1488 4576,1416 Z"/>
       </g>
      </g>
      <g class="com.sun.star.drawing.ClosedBezierShape">
       <g id="id89">
        <rect class="BoundingBox" stroke="none" fill="none" x="3852" y="1769" width="427" height="273"/>
        <path fill="none" stroke="rgb(0,0,0)" stroke-width="39" stroke-linejoin="miter" d="M 4247,1789 C 4247,1789 4109,1790 4050,1823 3980,1861 3884,2000 3884,2000 3884,2000 4022,2039 4082,2010 4162,1971 4247,1789 4247,1789 Z"/>
       </g>
      </g>
      <g class="com.sun.star.drawing.ClosedBezierShape">
       <g id="id90">
        <rect class="BoundingBox" stroke="none" fill="none" x="4172" y="947" width="246" height="455"/>
        <path fill="none" stroke="rgb(0,0,0)" stroke-width="39" stroke-linejoin="miter" d="M 4241,1369 C 4241,1369 4174,1218 4197,1147 4223,1065 4379,977 4379,977 4379,977 4413,1128 4389,1196 4364,1270 4241,1369 4241,1369 Z"/>
       </g>
      </g>
      <g class="com.sun.star.drawing.ClosedBezierShape">
       <g id="id91">
        <rect class="BoundingBox" stroke="none" fill="none" x="3886" y="1137" width="219" height="570"/>
        <path fill="none" stroke="rgb(0,0,0)" stroke-width="39" stroke-linejoin="miter" d="M 3944,1176 C 3944,1176 3892,1340 3910,1421 3930,1516 4066,1663 4066,1663 4066,1663 4101,1466 4075,1374 4054,1296 3944,1176 3944,1176 Z"/>
       </g>
      </g>
      <g class="com.sun.star.drawing.ClosedBezierShape">
       <g id="id92">
        <rect class="BoundingBox" stroke="none" fill="none" x="3531" y="1683" width="305" height="345"/>
        <path fill="none" stroke="rgb(0,0,0)" stroke-width="39" stroke-linejoin="miter" d="M 3809,1708 C 3809,1708 3698,1727 3658,1765 3599,1823 3558,1997 3558,1997 3558,1997 3687,1956 3731,1906 3777,1854 3809,1708 3809,1708 Z"/>
       </g>
      </g>
      <g class="com.sun.star.drawing.ClosedBezierShape">
       <g id="id93">
        <rect class="BoundingBox" stroke="none" fill="none" x="3366" y="1409" width="471" height="278"/>
        <path fill="none" stroke="rgb(0,0,0)" stroke-width="39" stroke-linejoin="miter" d="M 3807,1444 C 3807,1444 3645,1410 3575,1444 3493,1485 3398,1666 3398,1666 3398,1666 3598,1673 3680,1622 3740,1584 3807,1444 3807,1444 Z"/>
       </g>
      </g>
      <g class="com.sun.star.drawing.ClosedBezierShape">
       <g id="id94">
        <rect class="BoundingBox" stroke="none" fill="none" x="3367" y="890" width="385" height="391"/>
        <path fill="none" stroke="rgb(0,0,0)" stroke-width="39" stroke-linejoin="miter" d="M 3731,917 C 3731,917 3564,968 3505,1029 3450,1086 3395,1259 3395,1259 3395,1259 3599,1249 3658,1199 3740,1130 3731,917 3731,917 Z"/>
       </g>
      </g>
      <g class="com.sun.star.drawing.ClosedBezierShape">
       <g id="id95">
        <rect class="BoundingBox" stroke="none" fill="none" x="3112" y="1036" width="301" height="276"/>
        <path fill="none" stroke="rgb(0,0,0)" stroke-width="39" stroke-linejoin="miter" d="M 3132,1056 C 3132,1056 3258,1055 3305,1092 3352,1129 3388,1256 3388,1256 3388,1256 3257,1315 3205,1280 3143,1238 3132,1056 3132,1056 Z"/>
       </g>
      </g>
      <g class="com.sun.star.drawing.ClosedBezierShape">
       <g id="id96">
        <rect class="BoundingBox" stroke="none" fill="none" x="3318" y="2178" width="447" height="284"/>
        <path fill="none" stroke="rgb(0,0,0)" stroke-width="39" stroke-linejoin="miter" d="M 3568,2221 C 3504,2184 3351,2202 3351,2202 3351,2202 3426,2322 3480,2359 3553,2408 3729,2435 3729,2435 3729,2435 3644,2263 3568,2221 Z"/>
       </g>
      </g>
      <g class="com.sun.star.drawing.ClosedBezierShape">
       <g id="id97">
        <rect class="BoundingBox" stroke="none" fill="none" x="3386" y="2463" width="327" height="511"/>
        <path fill="none" stroke="rgb(0,0,0)" stroke-width="39" stroke-linejoin="miter" d="M 3687,2934 C 3687,2934 3530,2837 3480,2759 3433,2684 3410,2498 3410,2498 3410,2498 3560,2577 3607,2647 3661,2728 3687,2934 3687,2934 Z"/>
       </g>
      </g>
      <g class="com.sun.star.drawing.ClosedBezierShape">
       <g id="id98">
        <rect class="BoundingBox" stroke="none" fill="none" x="2906" y="2042" width="311" height="382"/>
        <path fill="none" stroke="rgb(0,0,0)" stroke-width="39" stroke-linejoin="miter" d="M 2928,2068 C 2928,2068 3046,2097 3086,2141 3146,2205 3188,2391 3188,2391 3188,2391 3024,2326 2974,2256 2938,2204 2928,2068 2928,2068 Z"/>
       </g>
      </g>
      <g class="com.sun.star.drawing.ClosedBezierShape">
       <g id="id99">
        <rect class="BoundingBox" stroke="none" fill="none" x="3168" y="1732" width="187" height="252"/>
        <path fill="none" stroke="rgb(0,0,0)" stroke-width="39" stroke-linejoin="miter" d="M 3334,1755 C 3334,1755 3263,1767 3240,1794 3203,1836 3191,1958 3191,1958 3191,1958 3281,1939 3308,1903 3337,1864 3334,1755 3334,1755 Z"/>
       </g>
      </g>
      <g class="com.sun.star.drawing.ClosedBezierShape">
       <g id="id100">
        <rect class="BoundingBox" stroke="none" fill="none" x="3042" y="1352" width="218" height="477"/>
        <path fill="none" stroke="rgb(0,0,0)" stroke-width="39" stroke-linejoin="miter" d="M 3157,1387 C 3157,1387 3252,1534 3237,1614 3222,1695 3079,1794 3079,1794 3079,1794 3050,1634 3067,1556 3081,1493 3157,1387 3157,1387 Z"/>
       </g>
      </g>
      <g class="com.sun.star.drawing.ClosedBezierShape">
       <g id="id101">
        <rect class="BoundingBox" stroke="none" fill="none" x="2718" y="1822" width="241" height="214"/>
        <path fill="none" stroke="rgb(0,0,0)" stroke-width="39" stroke-linejoin="miter" d="M 2931,1843 C 2931,1843 2831,1845 2795,1877 2760,1909 2742,2013 2742,2013 2742,2013 2830,2007 2863,1979 2901,1947 2931,1843 2931,1843 Z"/>
       </g>
      </g>
      <g class="com.sun.star.drawing.ClosedBezierShape">
       <g id="id102">
        <rect class="BoundingBox" stroke="none" fill="none" x="2618" y="1576" width="174" height="310"/>
        <path fill="none" stroke="rgb(0,0,0)" stroke-width="39" stroke-linejoin="miter" d="M 2768,1616 C 2768,1616 2696,1680 2674,1723 2653,1763 2642,1856 2642,1856 2642,1856 2731,1825 2754,1786 2782,1738 2768,1616 2768,1616 Z"/>
       </g>
      </g>
      <g class="com.sun.star.drawing.ClosedBezierShape">
       <g id="id103">
        <rect class="BoundingBox" stroke="none" fill="none" x="2437" y="1308" width="217" height="384"/>
        <path fill="none" stroke="rgb(0,0,0)" stroke-width="39" stroke-linejoin="miter" d="M 2605,1337 C 2605,1337 2491,1399 2467,1457 2440,1520 2476,1663 2476,1663 2476,1663 2600,1608 2625,1549 2652,1484 2605,1337 2605,1337 Z"/>
       </g>
      </g>
      <g class="com.sun.star.drawing.ClosedBezierShape">
       <g id="id104">
        <rect class="BoundingBox" stroke="none" fill="none" x="2366" y="1848" width="192" height="327"/>
        <path fill="none" stroke="rgb(0,0,0)" stroke-width="39" stroke-linejoin="miter" d="M 2467,1877 C 2467,1877 2537,1957 2537,2007 2537,2060 2463,2144 2463,2144 2463,2144 2384,2057 2386,2002 2388,1952 2467,1877 2467,1877 Z"/>
       </g>
      </g>
      <g class="com.sun.star.drawing.ClosedBezierShape">
       <g id="id105">
        <rect class="BoundingBox" stroke="none" fill="none" x="2074" y="1660" width="195" height="461"/>
        <path fill="none" stroke="rgb(0,0,0)" stroke-width="39" stroke-linejoin="miter" d="M 2172,1692 C 2172,1692 2234,1775 2244,1826 2261,1908 2221,2078 2221,2078 2221,2078 2095,1933 2094,1843 2094,1785 2172,1692 2172,1692 Z"/>
       </g>
      </g>
      <g class="com.sun.star.drawing.ClosedBezierShape">
       <g id="id106">
        <rect class="BoundingBox" stroke="none" fill="none" x="2596" y="2568" width="430" height="190"/>
        <path fill="none" stroke="rgb(0,0,0)" stroke-width="39" stroke-linejoin="miter" d="M 2987,2725 C 2987,2725 2885,2611 2817,2592 2757,2576 2632,2618 2632,2618 2632,2618 2721,2709 2778,2728 2845,2750 2987,2725 2987,2725 Z"/>
       </g>
      </g>
      <g class="com.sun.star.drawing.ClosedBezierShape">
       <g id="id107">
        <rect class="BoundingBox" stroke="none" fill="none" x="2395" y="2333" width="188" height="391"/>
        <path fill="none" stroke="rgb(0,0,0)" stroke-width="39" stroke-linejoin="miter" d="M 2489,2363 C 2489,2363 2421,2429 2416,2475 2407,2550 2491,2686 2491,2686 2491,2686 2563,2578 2562,2516 2560,2459 2489,2363 2489,2363 Z"/>
       </g>
      </g>
      <g class="com.sun.star.drawing.ClosedBezierShape">
       <g id="id108">
        <rect class="BoundingBox" stroke="none" fill="none" x="2149" y="2282" width="175" height="389"/>
        <path fill="none" stroke="rgb(0,0,0)" stroke-width="39" stroke-linejoin="miter" d="M 2239,2316 C 2239,2316 2173,2396 2169,2446 2163,2512 2230,2634 2230,2634 2230,2634 2299,2545 2303,2490 2306,2428 2239,2316 2239,2316 Z"/>
       </g>
      </g>
      <g class="com.sun.star.drawing.ClosedBezierShape">
       <g id="id109">
        <rect class="BoundingBox" stroke="none" fill="none" x="1635" y="1626" width="355" height="370"/>
        <path fill="none" stroke="rgb(0,0,0)" stroke-width="39" stroke-linejoin="miter" d="M 1884,1718 C 1828,1662 1663,1648 1663,1648 1663,1648 1718,1827 1780,1888 1830,1936 1966,1969 1966,1969 1966,1969 1944,1780 1884,1718 Z"/>
       </g>
      </g>
      <g class="com.sun.star.drawing.ClosedBezierShape">
       <g id="id110">
        <rect class="BoundingBox" stroke="none" fill="none" x="1745" y="1964" width="324" height="170"/>
        <path fill="none" stroke="rgb(0,0,0)" stroke-width="39" stroke-linejoin="miter" d="M 2035,2054 C 2035,2054 1960,1984 1915,1984 1862,1985 1777,2069 1777,2069 1777,2069 1855,2118 1908,2113 1942,2110 2035,2054 2035,2054 Z"/>
       </g>
      </g>
      <g class="com.sun.star.drawing.ClosedBezierShape">
       <g id="id111">
        <rect class="BoundingBox" stroke="none" fill="none" x="1839" y="2108" width="216" height="455"/>
        <path fill="none" stroke="rgb(0,0,0)" stroke-width="39" stroke-linejoin="miter" d="M 1958,2135 C 1958,2135 1879,2196 1865,2242 1839,2333 1903,2523 1903,2523 1903,2523 2034,2373 2034,2279 2034,2224 1958,2135 1958,2135 Z"/>
       </g>
      </g>
      <g class="com.sun.star.drawing.ClosedBezierShape">
       <g id="id112">
        <rect class="BoundingBox" stroke="none" fill="none" x="1422" y="2306" width="208" height="399"/>
        <path fill="none" stroke="rgb(0,0,0)" stroke-width="39" stroke-linejoin="miter" d="M 1604,2670 C 1604,2670 1485,2591 1456,2526 1431,2470 1446,2338 1446,2338 1446,2338 1561,2405 1590,2464 1620,2525 1604,2670 1604,2670 Z"/>
       </g>
      </g>
      <g class="com.sun.star.drawing.ClosedBezierShape">
       <g id="id113">
        <rect class="BoundingBox" stroke="none" fill="none" x="2339" y="2895" width="264" height="608"/>
        <path fill="none" stroke="rgb(0,0,0)" stroke-width="39" stroke-linejoin="miter" d="M 2396,2929 C 2396,2929 2341,3118 2365,3209 2395,3321 2568,3482 2568,3482 2553,3490 2533,3285 2551,3154 2564,3061 2396,2929 2396,2929 Z"/>
       </g>
      </g>
      <g class="com.sun.star.drawing.ClosedBezierShape">
       <g id="id114">
        <rect class="BoundingBox" stroke="none" fill="none" x="2015" y="2945" width="220" height="367"/>
        <path fill="none" stroke="rgb(0,0,0)" stroke-width="39" stroke-linejoin="miter" d="M 2211,2977 C 2211,2977 2101,3026 2069,3076 2035,3132 2035,3275 2035,3275 2035,3275 2138,3209 2169,3157 2200,3104 2211,2977 2211,2977 Z"/>
       </g>
      </g>
      <g class="com.sun.star.drawing.ClosedBezierShape">
       <g id="id115">
        <rect class="BoundingBox" stroke="none" fill="none" x="1853" y="2770" width="224" height="371"/>
        <path fill="none" stroke="rgb(0,0,0)" stroke-width="39" stroke-linejoin="miter" d="M 2052,2803 C 2052,2803 1957,2848 1928,2892 1890,2950 1877,3098 1877,3098 1877,3098 1982,3019 2014,2962 2040,2915 2052,2803 2052,2803 Z"/>
       </g>
      </g>
      <g class="com.sun.star.drawing.ClosedBezierShape">
       <g id="id116">
        <rect class="BoundingBox" stroke="none" fill="none" x="1540" y="2779" width="298" height="240"/>
        <path fill="none" stroke="rgb(0,0,0)" stroke-width="39" stroke-linejoin="miter" d="M 1801,2998 C 1801,2998 1836,2873 1801,2833 1748,2771 1567,2814 1567,2814 1567,2814 1613,2935 1660,2968 1700,2997 1801,2998 1801,2998 Z"/>
       </g>
      </g>
      <g class="com.sun.star.drawing.ClosedBezierShape">
       <g id="id117">
        <rect class="BoundingBox" stroke="none" fill="none" x="1541" y="3070" width="380" height="167"/>
        <path fill="none" stroke="rgb(0,0,0)" stroke-width="39" stroke-linejoin="miter" d="M 1880,3139 C 1880,3139 1757,3082 1694,3091 1645,3098 1543,3168 1564,3168 1584,3168 1653,3218 1701,3216 1766,3214 1880,3139 1880,3139 Z"/>
       </g>
      </g>
      <g class="com.sun.star.drawing.ClosedBezierShape">
       <g id="id118">
        <rect class="BoundingBox" stroke="none" fill="none" x="1273" y="2772" width="215" height="385"/>
        <path fill="none" stroke="rgb(0,0,0)" stroke-width="39" stroke-linejoin="miter" d="M 1387,2799 C 1387,2799 1303,2864 1294,2914 1281,2986 1359,3124 1359,3124 1359,3124 1463,3025 1466,2958 1469,2898 1387,2799 1387,2799 Z"/>
       </g>
      </g>
      <g class="com.sun.star.drawing.ClosedBezierShape">
       <g id="id119">
        <rect class="BoundingBox" stroke="none" fill="none" x="872" y="2785" width="294" height="263"/>
        <path fill="none" stroke="rgb(0,0,0)" stroke-width="39" stroke-linejoin="miter" d="M 1137,3025 C 1137,3025 1163,2884 1123,2840 1070,2782 896,2814 896,2814 896,2814 922,2929 961,2965 1007,3009 1137,3025 1137,3025 Z"/>
       </g>
      </g>
      <g class="com.sun.star.drawing.ClosedBezierShape">
       <g id="id120">
        <rect class="BoundingBox" stroke="none" fill="none" x="2186" y="3505" width="347" height="335"/>
        <path fill="none" stroke="rgb(0,0,0)" stroke-width="39" stroke-linejoin="miter" d="M 2503,3548 C 2503,3548 2380,3629 2328,3681 2288,3721 2224,3818 2224,3818 2224,3818 2361,3813 2410,3770 2468,3718 2503,3548 2503,3548 Z"/>
       </g>
      </g>
      <g class="com.sun.star.drawing.ClosedBezierShape">
       <g id="id121">
        <rect class="BoundingBox" stroke="none" fill="none" x="1890" y="3581" width="204" height="456"/>
        <path fill="none" stroke="rgb(0,0,0)" stroke-width="39" stroke-linejoin="miter" d="M 1965,3615 C 1965,3615 1905,3730 1910,3792 1916,3870 2013,3999 2013,3999 2013,3999 2082,3861 2072,3788 2062,3720 1965,3615 1965,3615 Z"/>
       </g>
      </g>
      <g class="com.sun.star.drawing.ClosedBezierShape">
       <g id="id122">
        <rect class="BoundingBox" stroke="none" fill="none" x="1478" y="3358" width="213" height="570"/>
        <path fill="none" stroke="rgb(0,0,0)" stroke-width="39" stroke-linejoin="miter" d="M 1574,3401 C 1574,3401 1501,3541 1498,3619 1495,3708 1570,3877 1570,3877 1570,3877 1667,3644 1670,3619 1674,3593 1574,3401 1574,3401 Z"/>
       </g>
      </g>
      <g class="com.sun.star.drawing.ClosedBezierShape">
       <g id="id123">
        <rect class="BoundingBox" stroke="none" fill="none" x="1044" y="3097" width="196" height="414"/>
        <path fill="none" stroke="rgb(0,0,0)" stroke-width="39" stroke-linejoin="miter" d="M 1067,3124 C 1067,3124 1184,3163 1208,3216 1243,3294 1177,3471 1177,3471 1177,3471 1093,3368 1074,3305 1056,3248 1067,3124 1067,3124 Z"/>
       </g>
      </g>
      <g class="com.sun.star.drawing.ClosedBezierShape">
       <g id="id124">
        <rect class="BoundingBox" stroke="none" fill="none" x="814" y="3605" width="543" height="219"/>
        <path fill="none" stroke="rgb(0,0,0)" stroke-width="39" stroke-linejoin="miter" d="M 1319,3703 C 1319,3703 1178,3633 1102,3626 1019,3618 855,3666 855,3666 855,3666 1014,3801 1109,3803 1186,3805 1319,3703 1319,3703 Z"/>
       </g>
      </g>
      <g class="com.sun.star.drawing.ClosedBezierShape">
       <g id="id125">
        <rect class="BoundingBox" stroke="none" fill="none" x="938" y="3323" width="4536" height="3090"/>
        <path fill="rgb(255,222,89)" stroke="none" d="M 4282,3933 C 4074,4042 3873,3873 3719,3751 3467,3624 3175,3629 2900,3602 2508,3575 2088,3595 1755,3828 1612,3933 1234,4108 1481,4301 1666,4395 1863,4300 2046,4255 2501,4136 2985,3974 3453,4124 3974,4265 4492,4429 5031,4492 5217,4520 5466,4600 5473,4826 5459,5093 5156,5188 4939,5244 4551,5310 4186,5114 3805,5077 3466,5023 3132,4930 2790,4888 2579,4830 2017,5165 2325,5228 2504,5264 2750,5274 2962,5286 3209,5282 3462,5305 3689,5404 3908,5423 4014,5796 3750,5834 3612,5875 3025,5969 3384,6100 3608,6182 3598,6472 3427,6401 3593,6156 3059,6187 3140,5953 3225,5724 3681,5733 3659,5657 3629,5555 3311,5499 3132,5467 2825,5411 2521,5496 2227,5405 2004,5394 1839,5132 2033,4962 2218,4715 2545,4643 2836,4685 3220,4739 3594,4846 3976,4905 4203,4936 4421,5015 4648,5036 4803,5032 5109,4997 5116,4826 4978,4707 4769,4731 4601,4674 4281,4625 3960,4572 3654,4461 3315,4351 2948,4282 2595,4372 2305,4418 2041,4564 1753,4611 1465,4643 1121,4573 951,4320 881,4074 1112,3887 1277,3747 1600,3480 2016,3342 2433,3338 2880,3309 3339,3315 3772,3435 3979,3544 4243,3672 4351,3879 4346,3912 4313,3931 4282,3933 Z"/>
       </g>
      </g>
      <g class="com.sun.star.drawing.ClosedBezierShape">
       <g id="id126">
        <rect class="BoundingBox" stroke="none" fill="none" x="931" y="3316" width="4550" height="3104"/>
        <path fill="none" stroke="rgb(0,0,0)" stroke-width="13" stroke-linejoin="miter" d="M 4282,3933 C 4074,4042 3873,3873 3719,3751 3467,3624 3175,3629 2900,3602 2508,3575 2088,3595 1755,3828 1612,3933 1234,4108 1481,4301 1666,4395 1863,4300 2046,4255 2501,4136 2985,3974 3453,4124 3974,4265 4492,4429 5031,4492 5217,4520 5466,4600 5473,4826 5459,5093 5156,5188 4939,5244 4551,5310 4186,5114 3805,5077 3466,5023 3132,4930 2790,4888 2579,4830 2017,5165 2325,5228 2504,5264 2750,5274 2962,5286 3209,5282 3462,5305 3689,5404 3908,5423 4014,5796 3750,5834 3612,5875 3025,5969 3384,6100 3608,6182 3598,6472 3427,6401 3593,6156 3059,6187 3140,5953 3225,5724 3681,5733 3659,5657 3629,5555 3311,5499 3132,5467 2825,5411 2521,5496 2227,5405 2004,5394 1839,5132 2033,4962 2218,4715 2545,4643 2836,4685 3220,4739 3594,4846 3976,4905 4203,4936 4421,5015 4648,5036 4803,5032 5109,4997 5116,4826 4978,4707 4769,4731 4601,4674 4281,4625 3960,4572 3654,4461 3315,4351 2948,4282 2595,4372 2305,4418 2041,4564 1753,4611 1465,4643 1121,4573 951,4320 881,4074 1112,3887 1277,3747 1600,3480 2016,3342 2433,3338 2880,3309 3339,3315 3772,3435 3979,3544 4243,3672 4351,3879 4346,3912 4313,3931 4282,3933 Z"/>
       </g>
      </g>
      <g class="com.sun.star.drawing.OpenBezierShape">
       <g id="id127">
        <rect class="BoundingBox" stroke="none" fill="none" x="3846" y="3739" width="203" height="113"/>
        <path fill="none" stroke="rgb(0,0,0)" stroke-width="13" stroke-linejoin="miter" d="M 3848,3747 C 3910,3736 3918,3797 3949,3794 3969,3793 3967,3772 3990,3777 4008,3781 4033,3786 4040,3814 4047,3842 4023,3846 3996,3842 3969,3838 3938,3820 3951,3795"/>
       </g>
      </g>
      <g class="com.sun.star.drawing.PolyPolygonShape">
       <g id="id128">
        <rect class="BoundingBox" stroke="none" fill="none" x="3977" y="3797" width="55" height="45"/>
        <path fill="rgb(0,0,0)" stroke="none" d="M 4018,3797 L 3978,3830 4031,3841 4018,3797 Z"/>
       </g>
      </g>
      <g class="com.sun.star.drawing.PolyPolygonShape">
       <g id="id129">
        <rect class="BoundingBox" stroke="none" fill="none" x="3963" y="3785" width="79" height="66"/>
        <path fill="none" stroke="rgb(0,0,0)" stroke-width="13" stroke-linejoin="miter" d="M 4018,3797 L 3978,3830 4031,3841 4018,3797 Z"/>
       </g>
      </g>
      <g class="com.sun.star.drawing.PolyPolygonShape">
       <g id="id130">
        <rect class="BoundingBox" stroke="none" fill="none" x="2746" y="4067" width="1218" height="573"/>
        <path fill="rgb(0,0,0)" stroke="none" d="M 3963,4232 L 3656,4639 2988,4581 2746,4067 3763,4102 3963,4232 Z"/>
       </g>
      </g>
      <g class="com.sun.star.drawing.PolyPolygonShape">
       <g id="id131">
        <rect class="BoundingBox" stroke="none" fill="none" x="2721" y="4051" width="1265" height="605"/>
        <path fill="none" stroke="rgb(0,0,0)" stroke-width="30" stroke-linejoin="miter" d="M 3963,4232 L 3656,4639 2988,4581 2746,4067 3763,4102 3963,4232 Z"/>
       </g>
      </g>
      <g class="com.sun.star.drawing.PolyPolygonShape">
       <g id="id132">
        <rect class="BoundingBox" stroke="none" fill="none" x="2090" y="4746" width="531" height="424"/>
        <path fill="rgb(0,0,0)" stroke="none" d="M 2090,4865 L 2420,5168 2620,4909 2309,4746 2090,4865 Z"/>
       </g>
      </g>
      <g class="com.sun.star.drawing.PolyPolygonShape">
       <g id="id133">
        <rect class="BoundingBox" stroke="none" fill="none" x="2064" y="4728" width="580" height="464"/>
        <path fill="none" stroke="rgb(0,0,0)" stroke-width="30" stroke-linejoin="miter" d="M 2090,4865 L 2420,5168 2620,4909 2309,4746 2090,4865 Z"/>
       </g>
      </g>
      <g class="com.sun.star.drawing.PolyPolygonShape">
       <g id="id134">
        <rect class="BoundingBox" stroke="none" fill="none" x="3217" y="5758" width="288" height="248"/>
        <path fill="rgb(0,0,0)" stroke="none" d="M 3217,5828 L 3279,6005 3504,5901 3391,5758 3217,5828 Z"/>
       </g>
      </g>
      <g class="com.sun.star.drawing.PolyPolygonShape">
       <g id="id135">
        <rect class="BoundingBox" stroke="none" fill="none" x="3198" y="5739" width="331" height="288"/>
        <path fill="none" stroke="rgb(0,0,0)" stroke-width="30" stroke-linejoin="miter" d="M 3217,5828 L 3279,6005 3504,5901 3391,5758 3217,5828 Z"/>
       </g>
      </g>
      <g class="com.sun.star.drawing.ClosedBezierShape">
       <g id="id136">
        <rect class="BoundingBox" stroke="none" fill="none" x="888" y="2419" width="428" height="290"/>
        <path fill="rgb(129,212,26)" stroke="none" d="M 1315,2675 C 1315,2675 1239,2478 1156,2436 1076,2394 888,2450 888,2450 888,2450 951,2646 1029,2690 1114,2737 1315,2675 1315,2675 Z"/>
       </g>
      </g>
      <g class="com.sun.star.drawing.ClosedBezierShape">
       <g id="id137">
        <rect class="BoundingBox" stroke="none" fill="none" x="864" y="2395" width="479" height="328"/>
        <path fill="none" stroke="rgb(0,0,0)" stroke-width="39" stroke-linejoin="miter" d="M 1316,2670 C 1316,2670 1240,2473 1157,2431 1077,2389 889,2445 889,2445 889,2445 952,2641 1030,2685 1115,2732 1316,2670 1316,2670 Z"/>
       </g>
      </g>
      <g class="com.sun.star.drawing.ClosedBezierShape">
       <g id="id138">
        <rect class="BoundingBox" stroke="none" fill="none" x="594" y="3179" width="349" height="213"/>
        <path fill="rgb(129,212,26)" stroke="none" d="M 942,3345 C 942,3345 893,3216 839,3190 764,3154 595,3216 595,3216 595,3216 674,3362 743,3386 807,3408 942,3345 942,3345 Z"/>
       </g>
      </g>
      <g class="com.sun.star.drawing.ClosedBezierShape">
       <g id="id139">
        <rect class="BoundingBox" stroke="none" fill="none" x="562" y="3162" width="401" height="253"/>
        <path fill="none" stroke="rgb(0,0,0)" stroke-width="39" stroke-linejoin="miter" d="M 937,3348 C 937,3348 888,3219 834,3193 759,3157 590,3219 590,3219 590,3219 669,3365 738,3389 802,3411 937,3348 937,3348 Z"/>
       </g>
      </g>
      <g class="com.sun.star.drawing.ClosedBezierShape">
       <g id="id140">
        <rect class="BoundingBox" stroke="none" fill="none" x="1370" y="1794" width="252" height="370"/>
        <path fill="rgb(129,212,26)" stroke="none" d="M 1370,1794 C 1370,1794 1562,1859 1607,1945 1640,2008 1604,2163 1604,2163 1604,2163 1478,2134 1439,2085 1378,2009 1370,1794 1370,1794 Z"/>
       </g>
      </g>
      <g class="com.sun.star.drawing.ClosedBezierShape">
       <g id="id141">
        <rect class="BoundingBox" stroke="none" fill="none" x="1350" y="1761" width="293" height="422"/>
        <path fill="none" stroke="rgb(0,0,0)" stroke-width="39" stroke-linejoin="miter" d="M 1371,1789 C 1371,1789 1563,1854 1608,1940 1641,2003 1605,2158 1605,2158 1605,2158 1479,2129 1440,2080 1379,2004 1371,1789 1371,1789 Z"/>
       </g>
      </g>
      <g class="com.sun.star.drawing.ClosedBezierShape">
       <g id="id142">
        <rect class="BoundingBox" stroke="none" fill="none" x="2104" y="1172" width="208" height="296"/>
        <path fill="rgb(129,212,26)" stroke="none" d="M 2109,1173 C 2109,1173 2255,1208 2292,1269 2326,1324 2302,1467 2302,1467 2302,1467 2171,1452 2134,1402 2089,1342 2109,1173 2109,1173 Z"/>
       </g>
      </g>
      <g class="com.sun.star.drawing.ClosedBezierShape">
       <g id="id143">
        <rect class="BoundingBox" stroke="none" fill="none" x="2086" y="1143" width="247" height="342"/>
        <path fill="none" stroke="rgb(0,0,0)" stroke-width="39" stroke-linejoin="miter" d="M 2110,1168 C 2110,1168 2256,1203 2293,1264 2327,1319 2303,1462 2303,1462 2303,1462 2172,1447 2135,1397 2090,1337 2110,1168 2110,1168 Z"/>
       </g>
      </g>
      <g class="com.sun.star.drawing.ClosedBezierShape">
       <g id="id144">
        <rect class="BoundingBox" stroke="none" fill="none" x="4632" y="1230" width="263" height="304"/>
        <path fill="rgb(129,212,26)" stroke="none" d="M 4893,1230 C 4893,1230 4732,1269 4682,1332 4640,1384 4633,1530 4633,1530 4633,1530 4791,1546 4842,1494 4903,1432 4893,1230 4893,1230 Z"/>
       </g>
      </g>
      <g class="com.sun.star.drawing.ClosedBezierShape">
       <g id="id145">
        <rect class="BoundingBox" stroke="none" fill="none" x="4613" y="1200" width="303" height="348"/>
        <path fill="none" stroke="rgb(0,0,0)" stroke-width="39" stroke-linejoin="miter" d="M 4894,1225 C 4894,1225 4733,1264 4683,1327 4641,1379 4634,1525 4634,1525 4634,1525 4792,1541 4843,1489 4904,1427 4894,1225 4894,1225 Z"/>
       </g>
      </g>
      <g class="com.sun.star.drawing.ClosedBezierShape">
       <g id="id146">
        <rect class="BoundingBox" stroke="none" fill="none" x="2744" y="1089" width="237" height="453"/>
        <path fill="rgb(129,212,26)" stroke="none" d="M 2792,1089 C 2792,1089 2945,1174 2972,1254 3003,1345 2926,1541 2926,1541 2926,1541 2775,1431 2750,1345 2727,1262 2792,1089 2792,1089 Z"/>
       </g>
      </g>
      <g class="com.sun.star.drawing.ClosedBezierShape">
       <g id="id147">
        <rect class="BoundingBox" stroke="none" fill="none" x="2726" y="1055" width="275" height="513"/>
        <path fill="none" stroke="rgb(0,0,0)" stroke-width="39" stroke-linejoin="miter" d="M 2793,1084 C 2793,1084 2946,1169 2973,1249 3004,1340 2927,1536 2927,1536 2927,1536 2776,1426 2751,1340 2728,1257 2793,1084 2793,1084 Z"/>
       </g>
      </g>
      <g class="com.sun.star.drawing.ClosedBezierShape">
       <g id="id148">
        <rect class="BoundingBox" stroke="none" fill="none" x="5412" y="1885" width="245" height="258"/>
        <path fill="rgb(129,212,26)" stroke="none" d="M 5655,1885 C 5655,1885 5528,1938 5482,1989 5446,2030 5412,2141 5412,2141 5412,2141 5557,2147 5604,2099 5654,2048 5655,1885 5655,1885 Z"/>
       </g>
      </g>
      <g class="com.sun.star.drawing.ClosedBezierShape">
       <g id="id149">
        <rect class="BoundingBox" stroke="none" fill="none" x="5386" y="1850" width="291" height="307"/>
        <path fill="none" stroke="rgb(0,0,0)" stroke-width="39" stroke-linejoin="miter" d="M 5656,1880 C 5656,1880 5529,1933 5483,1984 5447,2025 5413,2136 5413,2136 5413,2136 5558,2142 5605,2094 5655,2043 5656,1880 5656,1880 Z"/>
       </g>
      </g>
      <g class="com.sun.star.drawing.ClosedBezierShape">
       <g id="id150">
        <rect class="BoundingBox" stroke="none" fill="none" x="5970" y="3402" width="441" height="249"/>
        <path fill="rgb(129,212,26)" stroke="none" d="M 6410,3429 C 6410,3429 6246,3384 6169,3410 6086,3439 5970,3590 5970,3590 5970,3590 6152,3675 6237,3642 6320,3611 6410,3429 6410,3429 Z"/>
       </g>
      </g>
      <g class="com.sun.star.drawing.ClosedBezierShape">
       <g id="id151">
        <rect class="BoundingBox" stroke="none" fill="none" x="5937" y="3382" width="500" height="289"/>
        <path fill="none" stroke="rgb(0,0,0)" stroke-width="39" stroke-linejoin="miter" d="M 6408,3429 C 6408,3429 6244,3384 6167,3410 6084,3439 5968,3590 5968,3590 5968,3590 6150,3675 6235,3642 6318,3611 6408,3429 6408,3429 Z"/>
       </g>
      </g>
      <g class="com.sun.star.drawing.ClosedBezierShape">
       <g id="id152">
        <rect class="BoundingBox" stroke="none" fill="none" x="6080" y="3026" width="259" height="223"/>
        <path fill="rgb(129,212,26)" stroke="none" d="M 6338,3026 C 6338,3026 6321,3187 6266,3229 6216,3267 6080,3236 6080,3236 6080,3236 6118,3105 6166,3066 6213,3029 6338,3026 6338,3026 Z"/>
       </g>
      </g>
      <g class="com.sun.star.drawing.ClosedBezierShape">
       <g id="id153">
        <rect class="BoundingBox" stroke="none" fill="none" x="6056" y="3000" width="306" height="264"/>
        <path fill="none" stroke="rgb(0,0,0)" stroke-width="39" stroke-linejoin="miter" d="M 6339,3021 C 6339,3021 6322,3182 6267,3224 6217,3262 6081,3231 6081,3231 6081,3231 6119,3100 6167,3061 6214,3024 6339,3021 6339,3021 Z"/>
       </g>
      </g>
      <g class="com.sun.star.drawing.ClosedBezierShape">
       <g id="id154">
        <rect class="BoundingBox" stroke="none" fill="none" x="5095" y="1645" width="332" height="209"/>
        <path fill="rgb(129,212,26)" stroke="none" d="M 5426,1653 C 5426,1653 5284,1630 5224,1663 5163,1697 5095,1838 5095,1838 5095,1838 5252,1874 5317,1835 5376,1800 5426,1653 5426,1653 Z"/>
       </g>
      </g>
      <g class="com.sun.star.drawing.ClosedBezierShape">
       <g id="id155">
        <rect class="BoundingBox" stroke="none" fill="none" x="5067" y="1620" width="387" height="249"/>
        <path fill="none" stroke="rgb(0,0,0)" stroke-width="39" stroke-linejoin="miter" d="M 5427,1648 C 5427,1648 5285,1625 5225,1658 5164,1692 5096,1833 5096,1833 5096,1833 5253,1869 5318,1830 5377,1795 5427,1648 5427,1648 Z"/>
       </g>
      </g>
      <g class="com.sun.star.drawing.ClosedBezierShape">
       <g id="id156">
        <rect class="BoundingBox" stroke="none" fill="none" x="4508" y="3875" width="381" height="441"/>
        <path fill="rgb(0,0,0)" stroke="none" d="M 4513,3875 C 4530,3882 4554,3901 4569,3914 4589,3933 4588,3951 4598,3969 4569,3976 4542,3999 4522,4034 4512,4052 4508,4074 4508,4096 4508,4136 4522,4179 4538,4208 4559,4248 4568,4288 4642,4310 4651,4313 4666,4315 4681,4315 L 4682,4315 C 4702,4315 4724,4312 4737,4309 4790,4295 4827,4276 4848,4235 4874,4183 4903,4068 4877,4011 4863,3980 4806,3965 4771,3965 4752,3964 4724,3973 4697,3977 4700,3964 4703,3950 4707,3940 4720,3912 4737,3920 4760,3897 4765,3891 4753,3883 4746,3883 4745,3883 4744,3883 4743,3884 4711,3896 4697,3933 4691,3965 4688,3943 4680,3920 4667,3911 4628,3882 4543,3877 4513,3875 Z"/>
       </g>
      </g>
      <g class="com.sun.star.drawing.ClosedBezierShape">
       <g id="id157">
        <rect class="BoundingBox" stroke="none" fill="none" x="4534" y="3883" width="157" height="135"/>
        <path fill="rgb(0,169,51)" stroke="none" d="M 4535,3884 C 4559,3886 4626,3890 4659,3916 4681,3933 4693,3992 4689,4011 4689,4011 4689,4010 4689,4009 4684,3994 4671,3978 4656,3960 4652,3947 4660,3943 4662,3932 4653,3938 4651,3946 4646,3954 4632,3947 4620,3946 4609,3946 4621,3952 4632,3954 4646,3963 4665,3983 4672,4000 4682,4017 4669,4015 4639,3996 4625,3985 4601,3964 4606,3942 4583,3920 4570,3908 4548,3890 4535,3884 Z"/>
       </g>
      </g>
      <g class="com.sun.star.drawing.ClosedBezierShape">
       <g id="id158">
        <rect class="BoundingBox" stroke="none" fill="none" x="4516" y="3974" width="363" height="330"/>
        <path fill="rgb(255,0,0)" stroke="none" d="M 4768,3974 C 4801,3975 4854,3990 4867,4019 4892,4072 4866,4179 4841,4228 4821,4266 4786,4283 4735,4296 4712,4302 4666,4305 4644,4298 4573,4277 4565,4239 4545,4202 4520,4158 4502,4087 4530,4039 4549,4006 4576,3986 4605,3983 4607,3984 4608,3986 4610,3987 4624,3998 4651,4015 4669,4021 4654,4026 4630,4028 4630,4031 4630,4034 4665,4039 4680,4034 4700,4028 4732,4004 4736,3998 4738,3995 4702,4009 4698,4007 4696,4005 4712,3989 4715,3986 4713,3987 4753,3974 4768,3974 Z"/>
       </g>
      </g>
     </g>
    </g>
   </g>
  </g>
 </g>
</svg>